<svg xmlns="http://www.w3.org/2000/svg" viewBox="0 0 26.67 93.37"><defs><style>.cls-1{fill:#45b500;}.cls-2{fill:#a5db14;}.cls-2,.cls-5{opacity:0.5;}.cls-3{fill:#f9d300;}.cls-4{fill:#008d36;}.cls-6{fill:#f6f6f6;}.cls-7{fill:#fff;}.cls-8{fill:#e85d75;}.cls-9{fill:#1d1d1b;opacity:0.15;}</style></defs><title>bottle</title><g id="Capa_2" data-name="Capa 2"><g id="Layer_5" data-name="Layer 5"><path class="cls-1" d="M3.53,93.09A3.52,3.52,0,0,1,0,89.57V50.18A16.12,16.12,0,0,1,4.28,39.24a9.33,9.33,0,0,0,2.48-5.83l.13-2.26.59-10.63L8.1,9.37l0-.61-.87-.71h0l.84-5.83H18.58L19.42,8h0l-.87.71,0,.61.62,11.15.59,10.63.13,2.26a9.33,9.33,0,0,0,2.48,5.83,16.12,16.12,0,0,1,4.28,10.94V89.57a3.52,3.52,0,0,1-3.53,3.52Z"/><path class="cls-2" d="M5.56,39.29c-.17.22-.35.43-.54.64A15,15,0,0,0,1,50.18V89.57A2.53,2.53,0,0,0,3.53,92.1a22,22,0,0,1,9.81-2.48,22,22,0,0,1,9.81,2.48,2.53,2.53,0,0,0,2.52-2.53V50.18a15,15,0,0,0-4-10.25c-.18-.21-.36-.42-.53-.64Z"/><path class="cls-3" d="M8.72,2.42a1.16,1.16,0,0,1-1.13-1.2v0A1.16,1.16,0,0,1,8.72,0H18a1.17,1.17,0,0,1,1.13,1.2v0A1.17,1.17,0,0,1,18,2.42Z"/><path class="cls-4" d="M8.1,9.37l0-.61-.87-.71H19.41l-.87.71,0,.61Z"/><g class="cls-5"><path class="cls-6" d="M11,10.93c.32,0,.37,4.47.18,11.65,0,1.8-.12,3.76-.18,5.87Q11,30,10.9,31.72c0,.56-.05,1.13-.08,1.71a12.39,12.39,0,0,1-.2,1.88,13.15,13.15,0,0,1-1.23,3.76,14.38,14.38,0,0,1-1.07,1.75,8.57,8.57,0,0,1-.64.82l-.63.75A12,12,0,0,0,4.24,49c-.1,1.19-.06,2.62-.07,3.94s0,2.65,0,3.94c0,2.58-.05,5.07-.07,7.45-.06,4.74-.14,9-.25,12.61C3.62,84.1,3.32,88.54,3,88.54s-.62-4.44-.83-11.62c-.11-3.59-.19-7.87-.25-12.61,0-2.38,0-4.87-.07-7.45,0-1.29,0-2.61,0-3.94s-.05-2.63.07-4.17a14.2,14.2,0,0,1,3.41-7.87l.63-.72a7,7,0,0,0,.54-.68A12.1,12.1,0,0,0,7.4,38a11.28,11.28,0,0,0,1.1-3.12,12,12,0,0,0,.21-1.61c0-.57.08-1.14.13-1.7.08-1.13.16-2.21.24-3.27.16-2.1.32-4.06.46-5.85C10.15,15.33,10.69,10.91,11,10.93Z"/></g><path class="cls-7" d="M15,87.86a1,1,0,0,1-.46-.11,5.58,5.58,0,0,0-.73-.27l-3.27-1a5,5,0,0,0-.74-.19,1.08,1.08,0,0,1-.77-.52,1.14,1.14,0,0,1-.14-.54A1,1,0,0,1,9,84.79c.08-.21.13-.35.28-.83l.4-1.25a4,4,0,0,1,1-1.69,1.24,1.24,0,0,1,0-.27V79.49a1,1,0,0,1,.06-.34,2.92,2.92,0,0,1-.14-.86h-.24a1.08,1.08,0,0,1-1.08-1.08V75.93a1.08,1.08,0,0,1,1.08-1.08h.32V74a1.21,1.21,0,0,1,0-.34,3,3,0,0,1-.15-1,2.87,2.87,0,0,1,.19-1l-.27,0h-.15a1.09,1.09,0,0,1-1.07-1.08V69.33a1.09,1.09,0,0,1,.37-.82,1.15,1.15,0,0,1,.71-.26h.15l.18,0a.66.66,0,0,1,0-.14V66.46a1.08,1.08,0,0,1,.7-1l.18,0a1.89,1.89,0,0,1,.09-.34,1,1,0,0,1-.09-.42,1.77,1.77,0,0,0,0-.22,1,1,0,0,1-.44-.28c-.15-.18-.25-.28-.61-.64l-.93-.93A3.59,3.59,0,0,1,8.4,60.09a3.69,3.69,0,0,1,1.2-2.65,4.52,4.52,0,0,1,1.05-.79v-1a1,1,0,0,1,.06-.34,2.92,2.92,0,0,1-.14-.86h-.24a1.08,1.08,0,0,1-1.08-1.08V52.08A1.08,1.08,0,0,1,10.33,51h.32v-.87a1.33,1.33,0,0,1,0-.34,3,3,0,0,1,0-2l-.3,0h-.11a1.07,1.07,0,0,1-1.08-1.07V45.48a1.07,1.07,0,0,1,.37-.82,1.09,1.09,0,0,1,.71-.26h.15l.18,0a.76.76,0,0,1,0-.15V42.6a1.07,1.07,0,0,1,.7-1,1,1,0,0,1,.38-.07,1.05,1.05,0,0,1,.81.37c.19.22.26.29.57.61l.26.27.85-.58a7.48,7.48,0,0,0,.67-.49,1.08,1.08,0,0,1,.69-.25,1.11,1.11,0,0,1,.46.11,1.08,1.08,0,0,1,.61,1v1.61a1.11,1.11,0,0,1-.22.66,1.11,1.11,0,0,1,.22.66v1.29a1,1,0,0,1,0,.33.86.86,0,0,1,0,.32v1.32a1,1,0,0,1-.24.67,1.09,1.09,0,0,1,.24.68v1.31a.91.91,0,0,1,0,.33,1,1,0,0,1,0,.34v1.32a1.07,1.07,0,0,1-1.07,1.07h-.13a5.06,5.06,0,0,0-.83-.05h-.74c0,.07,0,.12,0,.16h.79a4.79,4.79,0,0,0,.81,0h.14a1.07,1.07,0,0,1,1.07,1.08V56.9a1.05,1.05,0,0,1-.36.8,1,1,0,0,1-.71.28h-.15l.3.3c.32.32.44.43.63.6a1.09,1.09,0,0,1-.07,1.66,4.68,4.68,0,0,0-.58.52l-1,1a1.12,1.12,0,0,1,.25.11,1.08,1.08,0,0,1,.51.91v.51a1.13,1.13,0,0,1,0,.32,1.13,1.13,0,0,1,0,.32v.47a1.15,1.15,0,0,1-.08.41,2.68,2.68,0,0,1,.07.27h.07a1.06,1.06,0,0,1,1.07,1.07V68a1.07,1.07,0,0,1-.22.66,1.11,1.11,0,0,1,.22.66v1.29a1,1,0,0,1,0,.33.88.88,0,0,1,0,.33v1.31a1,1,0,0,1-.24.68,1,1,0,0,1,.24.68v1.3a1,1,0,0,1,0,.34.91.91,0,0,1,0,.33v1.32a1.07,1.07,0,0,1-1.07,1.08h-.13a6.67,6.67,0,0,0-.83,0h-.74c0,.06,0,.11,0,.15h.79a6.24,6.24,0,0,0,.81,0h.14a1.07,1.07,0,0,1,1.07,1.07v1.31a1.09,1.09,0,0,1-.36.81l-.1.08a3.1,3.1,0,0,1,.75,2A4.11,4.11,0,0,1,16.73,85l-.41,1.27c-.14.45-.18.61-.24.84a1.08,1.08,0,0,1-.6.7A1,1,0,0,1,15,87.86Zm-1.59-4.09-.22-.08a1.23,1.23,0,0,0-.25-.06ZM12.23,59.71l-.17.15-.18.2Z"/><path class="cls-3" d="M15.58,42a.53.53,0,0,1,.24.06.57.57,0,0,1,.33.52v1.61a.57.57,0,0,1-.38.54,3.82,3.82,0,0,0-.51.24l.22,0h.1A.59.59,0,0,1,16,45a.57.57,0,0,1,.2.44v1.29a.51.51,0,0,1-.1.32.56.56,0,0,1,.1.33v1.32a.56.56,0,0,1-.57.57H15.5a7,7,0,0,0-.88,0H13.27a.72.72,0,0,0,.25.31h1.1a8.08,8.08,0,0,0,.89-.05h.07a.56.56,0,0,1,.57.57v1.31a.54.54,0,0,1-.1.33.59.59,0,0,1,.1.34v1.32a.56.56,0,0,1-.57.57h-.07a7.4,7.4,0,0,0-.89-.05h-1.2a.88.88,0,0,1,0,.16,1.11,1.11,0,0,1,0,.17,1.28,1.28,0,0,0-.1.47.32.32,0,0,0,.13.3s.05,0,.22.06h1a7.06,7.06,0,0,0,.87,0h.08a.61.61,0,0,1,.38.15.59.59,0,0,1,.19.43V56.9a.59.59,0,0,1-.19.43.61.61,0,0,1-.38.15h-.07a7.66,7.66,0,0,0-.89,0h-.46l.27.26,1,.94c.33.33.45.44.65.62a.58.58,0,0,1,.18.43v0a.56.56,0,0,1-.22.44,5.42,5.42,0,0,0-.63.56l-1.95,2a.81.81,0,0,1,.25.09l.29-.12,0,0,.18-.08a.58.58,0,0,1,.26-.06A.6.6,0,0,1,15,63v.51a.58.58,0,0,1-.1.32.51.51,0,0,1,.1.32v.47a.58.58,0,0,1-.15.38,1.47,1.47,0,0,1,.19.73,2,2,0,0,1,0,.35l.19-.15a.56.56,0,0,1,.37-.13.52.52,0,0,1,.24.05.59.59,0,0,1,.33.52V68a.58.58,0,0,1-.38.55,2.79,2.79,0,0,0-.51.23l.22,0h.1a.58.58,0,0,1,.37.13.57.57,0,0,1,.2.44v1.29a.56.56,0,0,1-.1.33.54.54,0,0,1,.1.33v1.31A.59.59,0,0,1,16,73a.61.61,0,0,1-.38.15H15.5a7.24,7.24,0,0,0-.88,0H13.27a.7.7,0,0,0,.25.3h1.1a6,6,0,0,0,.89,0h.07a.56.56,0,0,1,.57.58v1.3a.67.67,0,0,1-.1.34.54.54,0,0,1,.1.33v1.32a.59.59,0,0,1-.19.43.55.55,0,0,1-.38.15h-.07a7.63,7.63,0,0,0-.89,0h-1.2a.77.77,0,0,1,0,.15,1,1,0,0,1,0,.17,1.31,1.31,0,0,0-.1.47.35.35,0,0,0,.13.31s.05,0,.22.06h1a5.44,5.44,0,0,0,.87,0h.08a.56.56,0,0,1,.57.57v1.31a.57.57,0,0,1-.19.43.55.55,0,0,1-.38.15h-.07l-.5,0a3.07,3.07,0,0,1,1.15,1.2,2.76,2.76,0,0,1,.28,1.21,3.45,3.45,0,0,1-.19,1.11l-.4,1.27c-.15.46-.19.62-.26.86a.59.59,0,0,1-.31.38.7.7,0,0,1-.25,0,.5.5,0,0,1-.24-.06A6.4,6.4,0,0,0,14,87l-3.28-1a4.11,4.11,0,0,0-.82-.21.56.56,0,0,1-.4-.28.51.51,0,0,1-.08-.29.76.76,0,0,1,0-.21c.09-.22.14-.36.3-.85l.4-1.26a3.23,3.23,0,0,1,1.16-1.71.59.59,0,0,1-.16-.4V79.49a.6.6,0,0,1,.1-.32,2.28,2.28,0,0,1-.18-.94,2.12,2.12,0,0,1,0-.44h-.78a.58.58,0,0,1-.58-.58V75.93a.58.58,0,0,1,.58-.58h.83a.37.37,0,0,1,0-.11V74a.64.64,0,0,1,.1-.33,2.34,2.34,0,0,1-.2-1,2,2,0,0,1,.53-1.42.86.86,0,0,1,.14-.13h-.44a7,7,0,0,0-.88,0h-.07a.6.6,0,0,1-.58-.58V69.33a.58.58,0,0,1,.58-.58h.08a6.37,6.37,0,0,0,.87,0h.37l-.24-.18a.59.59,0,0,1-.26-.48V66.46a.58.58,0,0,1,.37-.54.51.51,0,0,1,.2,0A.61.61,0,0,1,12,66a1.5,1.5,0,0,1,0-.22,1.54,1.54,0,0,1,.18-.72.58.58,0,0,1-.15-.38v0a2.54,2.54,0,0,0,0-.3V64l-.11,0h0a.59.59,0,0,1-.43-.19c-.16-.18-.26-.29-.62-.65l-.94-.93a3.15,3.15,0,0,1-1-2.14h0A3.19,3.19,0,0,1,10,57.79a3.87,3.87,0,0,1,1.2-.83.13.13,0,0,1,0-.06V55.64a.58.58,0,0,1,.1-.32,2.28,2.28,0,0,1-.18-.94,2.12,2.12,0,0,1,0-.44h-.78a.58.58,0,0,1-.58-.58V52.08a.58.58,0,0,1,.58-.58h.83a.41.41,0,0,1,0-.11V50.13a.58.58,0,0,1,.1-.32,2.34,2.34,0,0,1-.2-1,2,2,0,0,1,.53-1.42.93.93,0,0,1,.14-.14h-.44a6.75,6.75,0,0,0-.88,0h-.07a.57.57,0,0,1-.38-.14.57.57,0,0,1-.2-.43V45.48a.58.58,0,0,1,.58-.58h.08a6.28,6.28,0,0,0,.87,0h.37a2.11,2.11,0,0,0-.24-.18.59.59,0,0,1-.26-.49V42.6a.59.59,0,0,1,.37-.54.76.76,0,0,1,.21,0,.57.57,0,0,1,.43.2c.2.23.27.3.6.63l.55.57,1.19-.82c.49-.34.52-.36.71-.51a.55.55,0,0,1,.37-.14M11.77,60.88l1.34-1.34-.19-.19a.7.7,0,0,0-.49-.25,1.3,1.3,0,0,0-.73.41,1.13,1.13,0,0,0-.4.68c0,.07,0,.22.3.51l.17.18m1.54,6.4.12-.08-.22,0,.1.1M14,84.48l.08-.26a1,1,0,0,0,.06-.31.5.5,0,0,0-.06-.24,1.21,1.21,0,0,0-.7-.46,2,2,0,0,0-.52-.1.54.54,0,0,0-.27.06c-.05,0-.19.1-.32.49l-.07.24,1.8.58M15.58,41a1.6,1.6,0,0,0-1,.36,5.3,5.3,0,0,1-.63.46l-.5.35c-.28-.29-.34-.35-.52-.56A1.57,1.57,0,0,0,11.73,41a1.54,1.54,0,0,0-.56.1,1.58,1.58,0,0,0-1,1.47v1.31a1.55,1.55,0,0,0-.86.37,1.61,1.61,0,0,0-.54,1.2v1.28A1.57,1.57,0,0,0,9.29,48a1.68,1.68,0,0,0,.8.37,4.38,4.38,0,0,0,0,.52,3.71,3.71,0,0,0,.13,1,1.84,1.84,0,0,0,0,.33v.38a1.58,1.58,0,0,0-1.4,1.57v1.28a1.57,1.57,0,0,0,1.36,1.56,2.33,2.33,0,0,0,.08.38,1.32,1.32,0,0,0,0,.34v.72a4.72,4.72,0,0,0-.9.73,4.15,4.15,0,0,0-1.35,3,4.08,4.08,0,0,0,1.31,2.84l.93.94c.34.34.44.44.59.61a1.53,1.53,0,0,0,.31.26,1.45,1.45,0,0,0,0,.29,1.59,1.59,0,0,0-.93,1.44v1.3a1.64,1.64,0,0,0-.86.38,1.59,1.59,0,0,0-.54,1.19v1.28a1.55,1.55,0,0,0,.54,1.19,1.52,1.52,0,0,0,.8.37,4.38,4.38,0,0,0,0,.52,3.73,3.73,0,0,0,.13,1,1.69,1.69,0,0,0,0,.33v.37a1.58,1.58,0,0,0-1.4,1.57v1.28a1.57,1.57,0,0,0,1.36,1.56,2.33,2.33,0,0,0,.08.38,1.37,1.37,0,0,0,0,.34v1.36a4.58,4.58,0,0,0-1,1.71l-.41,1.25c-.14.47-.19.6-.27.81a1.54,1.54,0,0,0-.1.56,1.56,1.56,0,0,0,1.33,1.55,3.6,3.6,0,0,1,.67.18l3.27,1a3.29,3.29,0,0,1,.66.25,1.64,1.64,0,0,0,.68.15,1.49,1.49,0,0,0,.66-.15,1.56,1.56,0,0,0,.87-1c.06-.23.1-.38.24-.82l.41-1.27a4.72,4.72,0,0,0,.23-1.41A3.62,3.62,0,0,0,17.05,82a4,4,0,0,0-.2-.35,1.59,1.59,0,0,0,.3-.93V79.44a1.56,1.56,0,0,0-.45-1.1,1.6,1.6,0,0,0,.45-1.11V75.91a1.84,1.84,0,0,0,0-.33,1.87,1.87,0,0,0,0-.34v-1.3a1.57,1.57,0,0,0-.15-.68,1.57,1.57,0,0,0,.15-.68V71.27a1.69,1.69,0,0,0,0-.33,1.84,1.84,0,0,0,0-.33V69.32a1.66,1.66,0,0,0-.14-.66,1.59,1.59,0,0,0,.14-.66V66.39a1.58,1.58,0,0,0-.9-1.42,1.06,1.06,0,0,0-.25-.09,1.94,1.94,0,0,0,0-.24v-.47a1.72,1.72,0,0,1,0-.64V63a1.56,1.56,0,0,0-.47-1.11l.52-.51a5.56,5.56,0,0,1,.52-.48,1.53,1.53,0,0,0,.62-1.18v-.07a1.58,1.58,0,0,0-.51-1.17l-.29-.26a1.16,1.16,0,0,0,.21-.16,1.57,1.57,0,0,0,.53-1.18V55.59a1.6,1.6,0,0,0-.45-1.11,1.56,1.56,0,0,0,.45-1.1V52.06a1.87,1.87,0,0,0,0-.34,1.84,1.84,0,0,0,0-.33V50.08A1.6,1.6,0,0,0,17,49.4a1.56,1.56,0,0,0,.15-.67V47.41a1.84,1.84,0,0,0,0-.33,1.66,1.66,0,0,0,0-.32V45.47a1.63,1.63,0,0,0-.14-.66,1.63,1.63,0,0,0,.14-.66V42.54a1.58,1.58,0,0,0-.9-1.43,1.72,1.72,0,0,0-.67-.15Z"/><path class="cls-8" d="M13.61,64.88a.87.87,0,0,1,1,.89.85.85,0,0,1-1,.88.89.89,0,1,1,0-1.77Zm0,.46c-.36,0-.57.16-.57.43s.21.43.57.43.57-.17.57-.43S14,65.34,13.62,65.34Z"/><path class="cls-8" d="M14.53,63.55a2.91,2.91,0,0,0-.34.11.7.7,0,0,0-.29.15.25.25,0,0,0-.06.17v.23h.36l.33,0v.47a2.5,2.5,0,0,0-.33,0H13l-.32,0a3.12,3.12,0,0,0,0-.33v-.57c0-.35.18-.56.5-.56a.51.51,0,0,1,.36.13.58.58,0,0,1,.11.21c0-.11.08-.16.24-.23s.14-.07.38-.16l.23-.11Zm-1.06.32a.19.19,0,0,0-.21-.21c-.12,0-.18.07-.18.2v.35h.39Z"/><path class="cls-8" d="M12.61,62.74a5,5,0,0,0-.62.7c-.17-.19-.27-.31-.64-.68l-.94-.93a2.55,2.55,0,0,1-.85-1.73,2.66,2.66,0,0,1,.9-1.88,2.78,2.78,0,0,1,2-.92,2.43,2.43,0,0,1,1.7.81l.94.94c.34.34.47.46.67.64a5.58,5.58,0,0,0-.69.62ZM13.42,59a1.24,1.24,0,0,0-.9-.42,1.64,1.64,0,0,0-1.13.58,1.6,1.6,0,0,0-.58,1.08,1.29,1.29,0,0,0,.47.92l.58.59L14,59.57Z"/><path class="cls-8" d="M13,54.08a2,2,0,0,0-.12.64.94.94,0,0,0,.34.76.92.92,0,0,0,.57.18h1a6.73,6.73,0,0,0,.95,0v1.31a6.88,6.88,0,0,0-1-.05H12.77a5.92,5.92,0,0,0-.95.05V55.66h.5a1.4,1.4,0,0,1-.58-1.26,2.23,2.23,0,0,1,.08-.62Z"/><path class="cls-8" d="M11.82,52.08a6,6,0,0,0,.95.05h1.94a9.15,9.15,0,0,0,1-.05V53.4a6.79,6.79,0,0,0-1,0H12.77a6.39,6.39,0,0,0-.95,0Zm-1.4,0h.94v1.28h-.94Z"/><path class="cls-8" d="M15.67,51.41a6.79,6.79,0,0,0-1,0H12.77a5.92,5.92,0,0,0-.95,0V50.16h.44a1.74,1.74,0,0,1-.54-1.3,1.36,1.36,0,0,1,.36-1,1.33,1.33,0,0,1,1.06-.36h1.58a8.52,8.52,0,0,0,.95-.05v1.31a7,7,0,0,0-1,0H13.42a.71.71,0,0,0-.47.1.5.5,0,0,0-.17.42,1.16,1.16,0,0,0,.66.94h1.27c.36,0,.63,0,1,0Z"/><path class="cls-8" d="M10.42,45.5a6.07,6.07,0,0,0,.95,0h1.77l-.69-.7a3.88,3.88,0,0,0-.63-.54V42.63c.21.24.28.32.62.66l.88.91,1.54-1.05a9.42,9.42,0,0,0,.81-.59v1.61a5.13,5.13,0,0,0-.85.42l-.78.48.45.47h.26a4.29,4.29,0,0,0,.92,0v1.29a6.54,6.54,0,0,0-1-.05H11.37a7.28,7.28,0,0,0-.95.05Z"/><path class="cls-8" d="M11,85.43a6,6,0,0,0-.91-.23c.09-.24.15-.39.31-.88l.4-1.26a2.57,2.57,0,0,1,1.15-1.55A2.62,2.62,0,0,1,14,81.45a2.76,2.76,0,0,1,1.72,1.31,2.44,2.44,0,0,1,.06,1.89l-.4,1.26c-.15.47-.2.64-.27.89a5.53,5.53,0,0,0-.86-.32Zm3.72-1a1.24,1.24,0,0,0,0-1,1.72,1.72,0,0,0-1-.75,1.61,1.61,0,0,0-1.23,0,1.28,1.28,0,0,0-.61.83l-.25.79,2.9.92Z"/><path class="cls-8" d="M13,77.93a2,2,0,0,0-.12.65.94.94,0,0,0,.34.75,1,1,0,0,0,.57.19h1a8.66,8.66,0,0,0,.95,0v1.3a8.86,8.86,0,0,0-1,0H12.77a7.39,7.39,0,0,0-.95,0V79.52h.5a1.43,1.43,0,0,1-.58-1.27,2.27,2.27,0,0,1,.08-.62Z"/><path class="cls-8" d="M11.82,75.93a6,6,0,0,0,.95,0h1.94a9.15,9.15,0,0,0,1,0v1.32a6.79,6.79,0,0,0-1,0H12.77a6.39,6.39,0,0,0-.95,0Zm-1.4,0h.94v1.28h-.94Z"/><path class="cls-8" d="M15.67,75.26a8.72,8.72,0,0,0-1-.05H12.77a7.39,7.39,0,0,0-.95.05V74h.44a1.72,1.72,0,0,1-.54-1.3,1.26,1.26,0,0,1,1.42-1.37h1.58a8.52,8.52,0,0,0,.95,0V72.6a7,7,0,0,0-1,0H13.42a.78.78,0,0,0-.47.1.5.5,0,0,0-.17.42,1.14,1.14,0,0,0,.66.94h1.27a7.43,7.43,0,0,0,1-.05Z"/><path class="cls-8" d="M10.42,69.35a6.07,6.07,0,0,0,.95.05h1.77l-.69-.69a4.07,4.07,0,0,0-.63-.55V66.48a8.12,8.12,0,0,0,.62.66l.88.92L14.86,67c.55-.38.59-.41.81-.58V68a4.36,4.36,0,0,0-.85.41l-.78.48.45.48h.26a4.12,4.12,0,0,0,.92-.06v1.29a6.54,6.54,0,0,0-1,0H11.37a7.28,7.28,0,0,0-.95,0Z"/><path class="cls-9" d="M22.39,39.52a9.33,9.33,0,0,1-2.48-5.83l-.13-2.26L19.19,20.8,18.57,9.65l0-.61.87-.71h0l-.84-5.83h0a1.18,1.18,0,0,0,.54-1v0A1.16,1.16,0,0,0,18,.28H13.34V93.37h9.8a3.52,3.52,0,0,0,3.53-3.52V50.46A16.12,16.12,0,0,0,22.39,39.52Z"/></g></g></svg>