<svg xmlns="http://www.w3.org/2000/svg" viewBox="0 0 188.32 188.32"><defs><style>.cls-1{fill:#f6bec8;}.cls-2{fill:#e85d75;}</style></defs><title>desafio</title><g id="Capa_2" data-name="Capa 2"><g id="Layer_5" data-name="Layer 5"><circle class="cls-1" cx="94.16" cy="94.16" r="94.16" transform="translate(-39 94.16) rotate(-45)"/><g id="YmSdRu"><path class="cls-2" d="M94.08,161.17c-4.14-7.31-8-14-11.69-20.75-1-1.94-2.13-2.8-4.49-2.59-6.23.55-12.48.79-18.72,1.12-6,.33-10-3.16-10.34-9.22Q46.36,85.81,44,41.88c-.4-7.36,3.3-11.14,10.61-10.81Q97.67,33,140.75,35c6.13.28,9.49,3.76,9.2,9.85q-1.89,40-4,80c-.33,6.15-3.82,9.43-10.1,9.76-9.19.5-18.38,1-27.57,1.26a4.17,4.17,0,0,0-4.3,3C100.87,146.13,97.56,153.36,94.08,161.17ZM86.44,98.85h14.15c1.44-6.74,1.47-6.71,6.13-11.42A57.62,57.62,0,0,0,112,81.62a18.08,18.08,0,0,0,.23-21.35c-5-7.12-14.93-9.92-24.59-6.94C80.22,55.6,74.13,63.91,74,72c0,.79.7,2.2,1.26,2.3,4.41.8,8.86,1.36,13.33,2,.47-2,.74-3.44,1.16-4.84C90.52,69,91.9,67,94.72,67.17c1.5.11,3.51.81,4.25,1.93,1.42,2.17.73,4.63-1,6.58-2.12,2.37-4.31,4.68-6.51,7C87.12,87.16,85.62,92.52,86.44,98.85Zm15,12.75v-1.35c0-7.11,0-7.11-7.16-7.1-8.67,0-8.67,0-8.67,8.65,0,8,0,8,7.67,8C101.46,119.74,101.46,119.74,101.46,111.6Z"/></g></g></g></svg>