<svg xmlns="http://www.w3.org/2000/svg" viewBox="0 0 188.32 188.32"><defs><style>.cls-1{isolation:isolate;}.cls-2{fill:#f6bec8;}.cls-3{fill:#6c4b41;}.cls-4{fill:#4d2a22;}.cls-5{fill:#f9f1e4;}.cls-6{fill:#e3d5bd;}.cls-7{fill:#f7fffa;}.cls-8{fill:#fdc59d;}.cls-9{fill:#eea47d;}.cls-10{fill:#4f0200;}.cls-11{fill:#7c5850;}.cls-12{fill:#fca691;opacity:0.61;mix-blend-mode:multiply;}</style></defs><title>female</title><g class="cls-1"><g id="Capa_2" data-name="Capa 2"><g id="OBJECTS"><circle class="cls-2" cx="94.16" cy="94.16" r="94.16" transform="translate(-39 94.16) rotate(-45)"/><path class="cls-3" d="M81.94,17.66S18,10.87,26,88c0,0-27,40.27-5.69,55.32,0,0-.47,13.1,13.28,16,0,0-3.8-3.88-2.37-11.65,0,0,.47,10.68,8.53,12.13a22.53,22.53,0,0,1-2.37-7.76s9,23.29,51.19,22.32,57-18.33,57-18.33a24.31,24.31,0,0,0,16.59-15s-1.42,13.1-4.74,12.62c0,0,18.48-5.34,16.59-19.41s-8.06-17-8.06-17S177.22,56,149.72,28.34C117.18-4.4,81.94,17.66,81.94,17.66Z"/><path class="cls-4" d="M157.42,153.64a1.29,1.29,0,0,0,.92-.23l0-.09C157.78,153.53,157.42,153.64,157.42,153.64Z"/><path class="cls-4" d="M161.56,142.41c2.11-10.67,1.35-22.53-6.41-33.28-20.9-29-122.7-11.65-122.7-11.65s-15.86,40.77-.83,61.34a20.3,20.3,0,0,0,2,.53s-3.8-3.88-2.37-11.65c0,0,.47,10.68,8.53,12.13a22.53,22.53,0,0,1-2.37-7.76s9,23.29,51.19,22.32,57-18.33,57-18.33A24.4,24.4,0,0,0,161.56,142.41Z"/><path class="cls-5" d="M94.16,188.32a93.77,93.77,0,0,0,43.09-10.45c-.91-4-3.61-14.21-8.33-20.45-8-10.52-52.1-13.65-62.32-1.71-5.32,6.2-9.27,19.26-10.69,24.48A93.69,93.69,0,0,0,94.16,188.32Z"/><path class="cls-6" d="M99.61,188.16V153h-3.8v35.3C97.08,188.27,98.35,188.23,99.61,188.16Z"/><path class="cls-7" d="M97.73,156c-.36-.12-6.39,8.71-9.25,6.92s-7.35-11.51-5.33-13.42,26.67-1.72,27.1.86c.33,2-1.81,14.1-4.9,13.51S97.73,156,97.73,156Z"/><path class="cls-8" d="M65.53,157.07c-.28.39-.56.79-.83,1.2l-.12.21c-.25.38-.48.77-.72,1.17l-.16.27q-.39.68-.75,1.38l-.17.32-.66,1.31a2,2,0,0,1-.1.21c-.23.49-.46,1-.68,1.48l-.18.39c-.22.5-.43,1-.64,1.51l-.07.16c-.2.48-.39.95-.57,1.42l-.15.38-.57,1.5c0,.1-.07.2-.11.3-.16.44-.31.88-.47,1.31a2.47,2.47,0,0,1-.1.29L58,173.32c0,.11-.07.22-.11.33-.15.45-.29.89-.43,1.32l0,.08c-.15.47-.29.91-.42,1.35,0,.08,0,.17-.08.25-.13.43-.25.85-.37,1.24v0q-.18.62-.33,1.17l0,.06c-.11.38-.21.72-.29,1a93.61,93.61,0,0,0,15.64,5.35c.13-14.86-2.23-25.95-4.11-30.69a9.69,9.69,0,0,0-.84.86c-.3.34-.59.72-.88,1.1Z"/><path class="cls-8" d="M136.83,176.16v-.07l-.26-1a.83.83,0,0,0,0-.15l-.28-1.05,0,0c-.1-.36-.2-.73-.32-1.11,0-.09-.05-.17-.07-.26l-.36-1.16s0-.11-.05-.16c-.11-.35-.23-.71-.35-1.07l-.1-.3c-.13-.4-.28-.8-.42-1.21l-.1-.28c-.14-.37-.27-.74-.42-1.12L134,167c-.16-.42-.33-.83-.5-1.25,0-.11-.09-.22-.13-.32-.18-.43-.36-.85-.55-1.27a.61.61,0,0,1-.05-.12c-.18-.39-.37-.79-.56-1.18l-.13-.28c-.21-.41-.41-.82-.63-1.22l-.12-.22c-.2-.37-.4-.72-.61-1.08l-.11-.19c-.23-.38-.47-.76-.71-1.13l-.16-.23c-.25-.38-.51-.74-.77-1.09h0a9.63,9.63,0,0,0-.92-1l-.21-.19a11.65,11.65,0,0,0-1-.82l-.16-.12c-.4-.29-.82-.58-1.28-.85l-.06,0q-.75-.45-1.59-.87h0c-3,7.25-2.41,20.47-1.11,30.42a93.35,93.35,0,0,0,14.66-6C137.14,177.39,137,176.81,136.83,176.16Z"/><polygon class="cls-8" points="100.83 142.03 101.63 151.99 97.53 155.88 93.48 152.18 93 141.93 100.83 142.03"/><polygon class="cls-9" points="100.83 142.03 93 141.93 93.32 148.78 101.4 149.06 100.83 142.03"/><path class="cls-8" d="M162.23,105.8c-.33,9.55-7.7,17-16.46,16.74s-15.58-8.3-15.25-17.85S138.23,87.64,147,88,162.57,96.25,162.23,105.8Z"/><path class="cls-9" d="M159,105.47c-.19,5.63-4.54,10-9.7,9.87s-9.19-4.9-9-10.53,4.54-10,9.7-9.87S159.18,99.83,159,105.47Z"/><path class="cls-8" d="M57.06,100.56c-.33,9.56-7.7,17-16.46,16.74S25,109,25.35,99.45s7.71-17,16.47-16.74S57.4,91,57.06,100.56Z"/><path class="cls-9" d="M50.26,100.18c-.2,5.64-4.54,10.06-9.7,9.88s-9.19-4.9-9-10.53,4.55-10,9.71-9.87S50.46,94.55,50.26,100.18Z"/><path class="cls-8" d="M105.12,50.39,87,49.76c-42.39,2.87-42.9,21.37-43.72,44.7l-.24,7a42.27,42.27,0,0,0,40.76,43.73l18.12.63A42.27,42.27,0,0,0,145.64,105l.24-7C146.7,74.73,152.61,51.54,105.12,50.39Z"/><path class="cls-10" d="M85.9,112.28s11.28,4.73,15.57-3.75Z"/><path class="cls-3" d="M125.7,25.21c-42-9.12-94.28-5.52-90.69,59a34,34,0,0,1,5.34,8.59,2.41,2.41,0,0,0,4.6-.63,138.06,138.06,0,0,1,3.47-17.74c26.88-.8,36.22-21.3,36.22-21.3-1.94,7.27-23.28,25.7-23.28,25.7,22.79-1.94,47-24.25,47-24.25l-8.73,15c18.16-3.53,24.5-9.55,26.42-14.52a23.17,23.17,0,0,1,5,1.65C141.13,62,143,104.62,145.38,104.62s.72-15.83,10.28-14C155.66,90.67,165.7,33.9,125.7,25.21Z"/><path class="cls-11" d="M72.9,38.22c3.21,2.27-3.21,7-6.42,5.86S69.69,36,72.9,38.22Z"/><path class="cls-11" d="M69.78,29.43c3.31,4.07-6.13,11.41-11.14,8.63S66.36,25.23,69.78,29.43Z"/><path class="cls-7" d="M113.53,112.65h0A10.62,10.62,0,0,0,124.14,102V96.38a10.65,10.65,0,0,0-10.65-10.62h0a10.63,10.63,0,0,0-10.61,10.65V102A10.63,10.63,0,0,0,113.53,112.65Z"/><path class="cls-4" d="M102.88,96.41a10.57,10.57,0,0,1,3.6-8,7.8,7.8,0,0,1,2.64-.47c5.18,0,9.38,5.16,9.39,11.55s-4.18,11.57-9.36,11.58a7.87,7.87,0,0,1-1.38-.14,10.6,10.6,0,0,1-4.88-8.92Z"/><path class="cls-7" d="M73.91,112.65h0a10.63,10.63,0,0,1-10.78-10.48l-.08-5.63A10.64,10.64,0,0,1,73.53,85.76h0A10.64,10.64,0,0,1,84.31,96.24l.07,5.63A10.62,10.62,0,0,1,73.91,112.65Z"/><path class="cls-4" d="M84.31,96.24a10.59,10.59,0,0,0-3.73-7.91,7.82,7.82,0,0,0-2.64-.44c-5.18.07-9.31,5.31-9.22,11.7s4.36,11.5,9.54,11.43a7.88,7.88,0,0,0,1.38-.16,10.58,10.58,0,0,0,4.74-9Z"/><path class="cls-10" d="M94.29,102.29c-.43.83-.9,1.65-1.3,2.49l.78-.1c-.37-.47-.75-.94-1.16-1.37l-.63-.63a2.36,2.36,0,0,1-.58-.68.4.4,0,0,0-.72.1,8.39,8.39,0,0,0-.16,1.12q0,.51-.06,1c0,.34,0,.68,0,1a2.49,2.49,0,0,0,.14,1.15.42.42,0,0,0,.76-.1,2.84,2.84,0,0,0,0-1c0-.35,0-.69,0-1,0-.68.09-1.36.09-2l-.6.34a2.09,2.09,0,0,1,.61.61q.27.33.51.69c.34.48.69,1,1,1.44a.5.5,0,0,0,.86,0c.47-.81.87-1.66,1.3-2.48a.51.51,0,0,0-.18-.69.5.5,0,0,0-.68.18Z"/><path class="cls-12" d="M73.4,121.35c-.62,4-5.34,6.51-10.53,5.69s-8.91-4.67-8.3-8.63,5.34-6.5,10.54-5.69S74,117.4,73.4,121.35Z"/><path class="cls-12" d="M135,116.43c.82,3.92-2.7,8-7.85,9s-10-1.24-10.8-5.16,2.7-8,7.85-9S134.17,112.51,135,116.43Z"/><path class="cls-10" d="M107.3,77.82a25.65,25.65,0,0,1,5.86.56,27.91,27.91,0,0,1,2.82.75c.46.15.92.31,1.38.49a3.07,3.07,0,0,0,1.53.38c.6-.07,1.19-.72.77-1.33-.62-.88-1.83-1.16-2.82-1.49a25.6,25.6,0,0,0-3.13-.79,25,25,0,0,0-6.41-.28c-1.08.08-1.11,1.74,0,1.71Z"/><path class="cls-10" d="M78.24,77.2A25.28,25.28,0,0,0,72,78.34a28.19,28.19,0,0,0-3,1.2c-.9.43-2.24.92-2.7,1.85a.89.89,0,0,0,.76,1.33c1,0,1.89-.78,2.75-1.22a24.65,24.65,0,0,1,2.7-1.16,25.77,25.77,0,0,1,5.72-1.43.89.89,0,0,0,.86-.86.86.86,0,0,0-.86-.85Z"/></g></g></g></svg>