<svg xmlns="http://www.w3.org/2000/svg" viewBox="0 0 158.27 27.13"><defs><style>.cls-1{fill:none;stroke:#f6bec8;stroke-miterlimit:10;}.cls-2{fill:#e85d75;}</style></defs><title>logo-color</title><g id="Capa_2" data-name="Capa 2"><g id="Layer_1" data-name="Layer 1"><path class="cls-1" d="M157.31,22.37c-.53-.65-.6-.75-1.79-2.46l-2.83-4.14,2-1.9c1.16-1.14,1.4-1.36,2.21-2.06a2,2,0,0,0-1.32-3.51h-5.81a2,2,0,0,0-1.68.91,7.31,7.31,0,0,1-.63.82V8.75a20.59,20.59,0,0,1,.15-3,2,2,0,0,0-.46-1.6,2,2,0,0,0-1.52-.69h-4.44a2,2,0,0,0-2,2.27,22.42,22.42,0,0,1,.16,3v1.54a5.34,5.34,0,0,0-.46-.5A6.76,6.76,0,0,0,134,8a8.16,8.16,0,0,0-3.36.67,2.05,2.05,0,0,0-1.12-.34h-4.35a2.58,2.58,0,0,0-.39,0V5.45a2,2,0,0,0-2-2H118.3a2,2,0,0,0-2,2v2.7A9.71,9.71,0,0,0,114.76,8a8.24,8.24,0,0,0-3.26.6,2,2,0,0,0-1.12-.34H106l-.2,0a13.51,13.51,0,0,0-2.9-4.14A11.1,11.1,0,0,0,95,.5h0A10.81,10.81,0,0,0,87.61,4L84.38,7.25c-1.26,1.27-1.65,1.62-2.27,2.18A2,2,0,0,0,81.46,11a2.32,2.32,0,0,0,.06.38H80.34l-1,0h-.09a2,2,0,0,0-1.32.51,5.23,5.23,0,0,0-2.5-.63,6.13,6.13,0,0,0-.76.07,2,2,0,0,0-1.72-3H67.1a2,2,0,0,0-1.67.91,9.1,9.1,0,0,1-.64.82V8.75a20.68,20.68,0,0,1,.15-3,2,2,0,0,0-2-2.29H58.53A2,2,0,0,0,57,4.13a2,2,0,0,0-.48,1.59,22.32,22.32,0,0,1,.16,3v1.54q-.21-.25-.45-.51A6.82,6.82,0,0,0,51.31,8,8.16,8.16,0,0,0,48,8.64a2,2,0,0,0-1.12-.34H42.48a2.33,2.33,0,0,0-.38,0V5.45a2,2,0,0,0-2-2H35.66a2,2,0,0,0-2,2v2.7A9.71,9.71,0,0,0,32.12,8a8.28,8.28,0,0,0-3.26.6,2,2,0,0,0-1.11-.34H23.39A2,2,0,0,0,22,8.86a11.29,11.29,0,0,0-5.94-4l-4.35-1.4c-1.71-.54-2.19-.72-3-1a1.85,1.85,0,0,0-.7-.13,2,2,0,0,0-1,.27A2,2,0,0,0,6.08,4a16,16,0,0,1-.72,2.82L1.73,18.16a18.91,18.91,0,0,1-1,2.74,2.06,2.06,0,0,0,0,1.7A2,2,0,0,0,2,23.69c.83.23,1.38.38,3,.89L9.37,26a12.7,12.7,0,0,0,3.83.64,9.25,9.25,0,0,0,4.21-1,10.52,10.52,0,0,0,4.14-4c0,.6-.07,1.11-.14,1.73A2,2,0,0,0,21.9,25a2,2,0,0,0,1.49.67h4.53a2,2,0,0,0,1.5-.68,2,2,0,0,0,.48-1.57,22.05,22.05,0,0,1-.15-3V17c.05-.59.11-.66.21-.78a1.16,1.16,0,0,1,1-.44,5.16,5.16,0,0,1,1.65.33,2,2,0,0,0,.58.09,2,2,0,0,0,.54-.08v4.18a22.72,22.72,0,0,1-.16,3.06,2,2,0,0,0,2,2.24h4.57a2,2,0,0,0,1.16-.37,2,2,0,0,0,1.16.37H47a2,2,0,0,0,2-2.23,24.16,24.16,0,0,1-.16-3.07V16.53a2.28,2.28,0,0,1,1.05-.88v4.69a22.18,22.18,0,0,1-.16,3.05,2,2,0,0,0,2,2.25h4.55a2,2,0,0,0,1.13-.36,2,2,0,0,0,1.14.36H63a2,2,0,0,0,1.53-.71A2,2,0,0,0,65,23.29a6.31,6.31,0,0,1-.1-.76,12.71,12.71,0,0,1,.81,1.78,2,2,0,0,0,1.89,1.33h5.57a2,2,0,0,0,1.55-3.27c-.22-.26-.36-.44-.53-.66a5.45,5.45,0,0,0,1.23.14,5,5,0,0,0,2.51-.66,2,2,0,0,0,1.32.52h1.64a2.05,2.05,0,0,0,1.1-.33,2,2,0,0,0,1.1.33h1.78a2,2,0,0,0,1.67-1,2.07,2.07,0,0,0,.1-2c-.14-.29-.21-.44-.29-.64L86.25,18l-.42-1a3.59,3.59,0,0,0,.32-.84l6.73,6.73a21.43,21.43,0,0,1,2,2.18,2,2,0,0,0,1.5.79h.09a2,2,0,0,0,1.48-.65c.62-.69,1-1.11,2.16-2.25l3.26-3.27c.32-.31.6-.63.88-1v1.62a23,23,0,0,1-.16,3.06,2,2,0,0,0,.49,1.57,2,2,0,0,0,1.49.67h4.53a2,2,0,0,0,2-2.25,21.78,21.78,0,0,1-.16-3V17c.06-.59.12-.66.21-.78a1.16,1.16,0,0,1,1-.44,5.25,5.25,0,0,1,1.65.33,2,2,0,0,0,.58.09,2,2,0,0,0,.54-.08v4.18a22.72,22.72,0,0,1-.16,3.06,2,2,0,0,0,2,2.24h4.57a2,2,0,0,0,1.16-.37,2,2,0,0,0,1.16.37h4.52a2,2,0,0,0,1.5-.67,2,2,0,0,0,.49-1.56,24.16,24.16,0,0,1-.16-3.07V16.53a2.28,2.28,0,0,1,1.05-.88v4.69a22.09,22.09,0,0,1-.16,3.05,2,2,0,0,0,2,2.25h4.55a2,2,0,0,0,1.14-.36,2,2,0,0,0,1.13.36h4.46a2,2,0,0,0,1.54-.71,2,2,0,0,0,.43-1.64c0-.26-.08-.49-.1-.76a11.78,11.78,0,0,1,.82,1.78,2,2,0,0,0,1.88,1.33h5.58a2,2,0,0,0,1.81-1.15A2,2,0,0,0,157.31,22.37ZM14.87,16a4.16,4.16,0,0,1-1.61,2.42,1.73,1.73,0,0,1-.81.19,3.66,3.66,0,0,1-1.07-.2l-.89-.28,2-6.23.83.26c1.37.44,1.61.91,1.72,1.11A3.94,3.94,0,0,1,14.87,16Zm55.54-.57a6.32,6.32,0,0,0-.06.77l-.3-.43Zm27.11-1-.66.66-4.62-4.63.61-.61c1-1,1.55-1,1.77-1A3.88,3.88,0,0,1,97,10.22a4.2,4.2,0,0,1,1.41,2.53A2.26,2.26,0,0,1,97.52,14.43Z"/><path class="cls-2" d="M78.45,16.52a3,3,0,0,1-3.07,3.33,3,3,0,0,1-3.06-3.31,3.07,3.07,0,1,1,6.13,0Zm-1.58,0c0-1.23-.56-2-1.48-2s-1.5.75-1.5,2,.57,2,1.5,2S76.87,17.78,76.87,16.53Z"/><path class="cls-2" d="M83.05,19.71a8.65,8.65,0,0,0-.37-1.18c-.25-.67-.34-.84-.53-1a.85.85,0,0,0-.59-.2h-.77v1.24a7.44,7.44,0,0,0,.06,1.15H79.21a7,7,0,0,0,.06-1.14V14.48a7.35,7.35,0,0,0-.06-1.11l1.13,0h2c1.23,0,2,.64,2,1.73a1.69,1.69,0,0,1-.45,1.25,1.72,1.72,0,0,1-.72.38c.38.12.56.29.8.83.11.25.22.5.56,1.32.09.22.18.41.37.81ZM82,16a.66.66,0,0,0,.72-.71c0-.43-.24-.65-.71-.65H80.79V16Z"/><path class="cls-2" d="M85.87,13a18.46,18.46,0,0,0-2.41-2.13c.65-.59,1.05-1,2.33-2.24L89,5.44A8.83,8.83,0,0,1,95,2.5a9.19,9.19,0,0,1,6.5,3.09,9.69,9.69,0,0,1,3.2,6.79,8.45,8.45,0,0,1-2.8,5.89l-3.27,3.26c-1.19,1.19-1.6,1.64-2.22,2.32a21.52,21.52,0,0,0-2.14-2.38Zm13.06,2.8a4.22,4.22,0,0,0,1.46-3.09,5.91,5.91,0,0,0-2-3.94,5.52,5.52,0,0,0-3.77-2,4.47,4.47,0,0,0-3.19,1.61l-2,2,7.45,7.46Z"/><path class="cls-2" d="M115.87,14.24a6.94,6.94,0,0,0-2.23-.42A3.1,3.1,0,0,0,110.38,17v3.41a24,24,0,0,0,.18,3.28H106a24.53,24.53,0,0,0,.18-3.3V13.6a21.6,21.6,0,0,0-.18-3.3h4.35V12a5,5,0,0,1,4.38-2,8.77,8.77,0,0,1,2.16.26Z"/><path class="cls-2" d="M122.8,10.3a21.77,21.77,0,0,0-.18,3.3v6.74a29.56,29.56,0,0,0,.18,3.3h-4.57a24.53,24.53,0,0,0,.18-3.3V13.6a23.57,23.57,0,0,0-.18-3.3Zm-.07-4.85V8.73H118.3V5.45Z"/><path class="cls-2" d="M125.12,23.64a24.69,24.69,0,0,0,.17-3.3V13.6a22.1,22.1,0,0,0-.17-3.3h4.35v.92c0,.13,0,.46,0,.61A6,6,0,0,1,134,10a4.81,4.81,0,0,1,3.52,1.23,4.69,4.69,0,0,1,1.25,3.67v5.49a28,28,0,0,0,.17,3.28h-4.55a23.42,23.42,0,0,0,.18-3.3V15.86a2.5,2.5,0,0,0-.35-1.62,1.69,1.69,0,0,0-1.44-.61c-1.23,0-2.32.76-3.26,2.29v4.42a26.87,26.87,0,0,0,.17,3.3Z"/><path class="cls-2" d="M145.6,5.45a22.53,22.53,0,0,0-.17,3.3v6.14l2.4-2.38a13.14,13.14,0,0,0,1.91-2.21h5.81c-.85.75-1.11,1-2.3,2.15l-3.17,3.06,3.66,5.33a31.41,31.41,0,0,0,2,2.8h-5.58a16.07,16.07,0,0,0-1.44-2.93L147.09,18l-1.64,1.57v.88a16.37,16.37,0,0,0,.17,3.19h-4.46a23.29,23.29,0,0,0,.18-3.3V8.75a24.24,24.24,0,0,0-.18-3.3Z"/><path class="cls-2" d="M7.27,7.42A18.69,18.69,0,0,0,8.06,4.3c.82.31,1.33.5,3.06,1l4.36,1.39a8.85,8.85,0,0,1,5.36,4,9.15,9.15,0,0,1,.22,7.19,9.65,9.65,0,0,1-4.57,5.95,8.42,8.42,0,0,1-6.51.21l-4.4-1.4C4,22.16,3.39,22,2.5,21.76a20.75,20.75,0,0,0,1.14-3Zm3.5,12.9a4.23,4.23,0,0,0,3.41-.13,5.87,5.87,0,0,0,2.59-3.58,5.51,5.51,0,0,0,0-4.26,4.46,4.46,0,0,0-2.89-2.09l-2.72-.87L8,19.43Z"/><path class="cls-2" d="M33.23,14.24A6.94,6.94,0,0,0,31,13.82,3.08,3.08,0,0,0,27.75,17v3.41a24.18,24.18,0,0,0,.17,3.28H23.39a23,23,0,0,0,.18-3.3V13.6a20.38,20.38,0,0,0-.18-3.3h4.36V12a5,5,0,0,1,4.37-2,8.67,8.67,0,0,1,2.16.26Z"/><path class="cls-2" d="M40.16,10.3A22,22,0,0,0,40,13.6v6.74a29.72,29.72,0,0,0,.17,3.3H35.59a24.53,24.53,0,0,0,.18-3.3V13.6a23.57,23.57,0,0,0-.18-3.3ZM40.1,5.45V8.73H35.66V5.45Z"/><path class="cls-2" d="M42.48,23.64a24.69,24.69,0,0,0,.17-3.3V13.6a22.1,22.1,0,0,0-.17-3.3h4.35v.92c0,.13,0,.46,0,.61A6,6,0,0,1,51.31,10a4.81,4.81,0,0,1,3.52,1.23,4.69,4.69,0,0,1,1.25,3.67v5.49a27.73,27.73,0,0,0,.18,3.28H51.71a25.16,25.16,0,0,0,.17-3.3V15.86a2.5,2.5,0,0,0-.35-1.62,1.66,1.66,0,0,0-1.44-.61c-1.23,0-2.32.76-3.26,2.29v4.42a25,25,0,0,0,.18,3.3Z"/><path class="cls-2" d="M63,5.45a21,21,0,0,0-.18,3.3v6.14l2.41-2.38a13.46,13.46,0,0,0,1.9-2.21h5.81c-.85.75-1.11,1-2.29,2.15l-3.17,3.06,3.65,5.33a31.41,31.41,0,0,0,2,2.8H67.56a16.17,16.17,0,0,0-1.45-2.93L64.45,18l-1.64,1.57v.88A15.39,15.39,0,0,0,63,23.64H58.53a23.49,23.49,0,0,0,.17-3.3V8.75a24.57,24.57,0,0,0-.17-3.3Z"/></g></g></svg>