<svg xmlns="http://www.w3.org/2000/svg" viewBox="0 0 188.32 188.32"><defs><style>.cls-1{isolation:isolate;}.cls-2{fill:#f6bec8;}.cls-3{fill:#d2580f;}.cls-4{fill:#f9f1e4;}.cls-5{fill:#4d2a22;}.cls-6{fill:#f7fffa;}.cls-7{fill:#f58345;}.cls-8{fill:#fdc59d;}.cls-9{fill:#eea47d;}.cls-10{fill:#4f0200;}.cls-11{fill:#6c4b41;}.cls-12{fill:#7c5850;}.cls-13{fill:#fca691;opacity:0.61;mix-blend-mode:multiply;}</style></defs><title>male</title><g class="cls-1"><g id="Capa_2" data-name="Capa 2"><g id="OBJECTS"><circle class="cls-2" cx="94.16" cy="94.16" r="94.16" transform="translate(-39 94.16) rotate(-45)"/><path class="cls-3" d="M94.16,188.32a93.77,93.77,0,0,0,43.09-10.45c-.91-4-3.61-14.21-8.33-20.45-8-10.52-52.1-13.65-62.32-1.71-5.32,6.2-9.27,19.26-10.69,24.48A93.69,93.69,0,0,0,94.16,188.32Z"/><path class="cls-4" d="M75.24,150.61c3.32,9.26,10.82,27.13,21,32.62,0,0,17-12.42,21.72-32C105.66,147.48,87,146.77,75.24,150.61Z"/><path class="cls-5" d="M99.66,161.92s-5.18.27-5,.07c0,0-2.44,9-4.29,16.48a23.37,23.37,0,0,0,5.87,4.76,60.21,60.21,0,0,0,7.45-6.84C101.86,169.33,99.66,161.92,99.66,161.92Z"/><path class="cls-5" d="M101.25,155.09c.6.78.43,7.27-.43,7.62s-7.22.92-8.09.06-1-7.51-1-7.51S100.64,154.32,101.25,155.09Z"/><path class="cls-6" d="M97.53,155.07c-.36-.11-6.4,8.72-9.25,6.93s-7.36-11.52-5.34-13.42,26.67-1.72,27.1.86c.34,2-1.81,14.1-4.9,13.51S97.53,155.07,97.53,155.07Z"/><path class="cls-7" d="M65.53,157.07c-.28.39-.56.79-.83,1.2l-.12.21c-.25.38-.48.77-.72,1.17l-.16.27q-.39.68-.75,1.38l-.17.32-.66,1.31a2,2,0,0,1-.1.21c-.23.49-.46,1-.68,1.48l-.18.39c-.22.5-.43,1-.64,1.51l-.07.16c-.2.48-.39.95-.57,1.42l-.15.38-.57,1.5c0,.1-.07.2-.11.3-.16.44-.31.88-.47,1.31a2.47,2.47,0,0,1-.1.29L58,173.32c0,.11-.07.22-.11.33-.15.45-.29.89-.43,1.32l0,.08c-.15.47-.29.91-.42,1.35,0,.08,0,.17-.08.25-.13.43-.25.85-.37,1.24v0q-.18.62-.33,1.17l0,.06c-.11.38-.21.72-.29,1a93.61,93.61,0,0,0,15.64,5.35c.13-14.86-2.23-25.95-4.11-30.69a9.69,9.69,0,0,0-.84.86c-.3.34-.59.72-.88,1.1Z"/><path class="cls-7" d="M136.83,176.16v-.07l-.26-1a.83.83,0,0,0,0-.15l-.28-1.05,0,0c-.1-.36-.2-.73-.32-1.11,0-.09-.05-.17-.07-.26l-.36-1.16s0-.11-.05-.16c-.11-.35-.23-.71-.35-1.07l-.1-.3c-.13-.4-.28-.8-.42-1.21l-.1-.28c-.14-.37-.27-.74-.42-1.12L134,167c-.16-.42-.33-.83-.5-1.25,0-.11-.09-.22-.13-.32-.18-.43-.36-.85-.55-1.27a.61.61,0,0,1-.05-.12c-.18-.39-.37-.79-.56-1.18l-.13-.28c-.21-.41-.41-.82-.63-1.22l-.12-.22c-.2-.37-.4-.72-.61-1.08l-.11-.19c-.23-.38-.47-.76-.71-1.13l-.16-.23c-.25-.38-.51-.74-.77-1.09h0a9.63,9.63,0,0,0-.92-1l-.21-.19a11.65,11.65,0,0,0-1-.82l-.16-.12c-.4-.29-.82-.58-1.28-.85l-.06,0q-.75-.45-1.59-.87h0c-3,7.25-2.41,20.47-1.11,30.42a93.35,93.35,0,0,0,14.66-6C137.14,177.39,137,176.81,136.83,176.16Z"/><polygon class="cls-8" points="100.83 142.03 101.63 151.99 97.51 156.03 93.48 152.18 93 141.93 100.83 142.03"/><polygon class="cls-9" points="100.83 142.03 93 141.93 93.32 148.78 101.4 149.06 100.83 142.03"/><path class="cls-8" d="M162.23,105.8c-.33,9.55-7.7,17-16.46,16.74s-15.58-8.3-15.25-17.85S138.23,87.64,147,88,162.57,96.25,162.23,105.8Z"/><path class="cls-9" d="M159,105.47c-.19,5.63-4.54,10-9.7,9.87s-9.19-4.9-9-10.53,4.54-10,9.7-9.87S159.18,99.83,159,105.47Z"/><path class="cls-8" d="M57.06,100.56c-.33,9.56-7.7,17-16.46,16.74S25,109,25.35,99.45s7.71-17,16.47-16.74S57.4,91,57.06,100.56Z"/><path class="cls-9" d="M50.26,100.18c-.2,5.64-4.54,10.06-9.7,9.88s-9.19-4.9-9-10.53,4.55-10,9.71-9.87S50.46,94.55,50.26,100.18Z"/><path class="cls-8" d="M105.12,50.39,87,49.76c-49.72,1-42.9,21.37-43.72,44.7l-.24,7a42.27,42.27,0,0,0,40.76,43.73l18.12.63A42.27,42.27,0,0,0,145.64,105l.24-7C146.7,74.73,157.82,45.05,105.12,50.39Z"/><path class="cls-10" d="M110,74.5a27.72,27.72,0,0,1,6,0A24.2,24.2,0,0,1,119,75c1,.22,2,.76,3,.53a.89.89,0,0,0,.39-1.48c-.66-.78-2.09-.94-3-1.14a28.45,28.45,0,0,0-3.17-.45,24.82,24.82,0,0,0-6.38.38c-.93.16-.73,1.8.23,1.68Z"/><path class="cls-10" d="M79.21,72.82a24.82,24.82,0,0,0-6.38-.38,28.45,28.45,0,0,0-3.17.45c-1,.2-2.38.36-3,1.14A.89.89,0,0,0,67,75.51c1,.23,2-.31,3-.53a23.72,23.72,0,0,1,2.92-.49,27.72,27.72,0,0,1,6,0c1,.12,1.18-1.52.23-1.68Z"/><path class="cls-11" d="M155.82,37.08c-14.81-22-43.14-19-49.16-18.11-1.22-6-4.46-12.38-12.67-12.6C78.21,6,55.61,27.27,44.52,31.11,34.84,34.46,26,46.91,25.33,61c-.85,17.48,13.86,48.15,18.77,43.92,2.06-1.78,1.64-10.41,2.19-21.09,2.12-11.3,3.44-23.21,9.75-26.67a22.57,22.57,0,0,1,4-1.7c11.36,11.5,26.28,3,26.28,3L71.39,70.34c21.32,1.7,27.29-9.81,27.29-9.81C97,65.65,84.61,74.6,84.61,74.6,103.7,71,110,59.9,112.14,52.79c6.64-1.18,11.56-1.56,18.52,1.34,15.35,6.4,12.3,50.49,14.72,50.49s.72-15.83,10.28-14a97,97,0,0,0,1.12-15.6C161.67,66.06,165.77,51.88,155.82,37.08Z"/><path class="cls-12" d="M72.9,38.22c3.21,2.27-3.21,7-6.42,5.86S69.69,36,72.9,38.22Z"/><path class="cls-12" d="M69.78,29.43c3.31,4.07-6.13,11.41-11.14,8.63S66.36,25.23,69.78,29.43Z"/><path class="cls-10" d="M83.8,115.2c3.46-.18,6.93-.34,10.4-.44,1.7-.05,3.39-.09,5.09-.12s3.57.07,5.31-.12a.31.31,0,0,0,0-.61,47,47,0,0,0-5.31.07c-1.7,0-3.39.11-5.09.18-3.47.13-6.94.28-10.4.47-.36,0-.36.58,0,.57Z"/><path class="cls-10" d="M91.23,118.59h5.12a14.6,14.6,0,0,0,1.75,0,.29.29,0,0,0,0-.57,17,17,0,0,0-1.75,0H91.23a.29.29,0,0,0,0,.57Z"/><path class="cls-6" d="M113.53,112.65h0A10.62,10.62,0,0,0,124.14,102V96.38a10.65,10.65,0,0,0-10.65-10.62h0a10.63,10.63,0,0,0-10.61,10.65V102A10.63,10.63,0,0,0,113.53,112.65Z"/><path class="cls-11" d="M102.88,96.41a10.57,10.57,0,0,1,3.6-8,7.8,7.8,0,0,1,2.64-.47c5.18,0,9.38,5.16,9.39,11.55s-4.18,11.57-9.36,11.58a7.87,7.87,0,0,1-1.38-.14,10.6,10.6,0,0,1-4.88-8.92Z"/><path class="cls-6" d="M73.91,112.65h0a10.63,10.63,0,0,1-10.78-10.48l-.08-5.63A10.64,10.64,0,0,1,73.53,85.76h0A10.64,10.64,0,0,1,84.31,96.24l.07,5.63A10.62,10.62,0,0,1,73.91,112.65Z"/><path class="cls-11" d="M84.31,96.24a10.59,10.59,0,0,0-3.73-7.91,7.82,7.82,0,0,0-2.64-.44c-5.18.07-9.31,5.31-9.22,11.7s4.36,11.5,9.54,11.43a7.88,7.88,0,0,0,1.38-.16,10.58,10.58,0,0,0,4.74-9Z"/><path class="cls-10" d="M95.59,101c-.43.83-.9,1.65-1.3,2.49l.78-.1c-.37-.47-.75-.94-1.16-1.37l-.62-.63a2.39,2.39,0,0,1-.59-.68.4.4,0,0,0-.72.09,11,11,0,0,0-.16,1.13q0,.51-.06,1c0,.34,0,.68,0,1a2.49,2.49,0,0,0,.14,1.15.42.42,0,0,0,.76-.1,2.84,2.84,0,0,0,0-1c0-.35,0-.69,0-1,0-.68.09-1.36.09-2l-.6.34a2.18,2.18,0,0,1,.61.6c.18.23.35.46.51.7.34.48.69.95,1,1.44a.5.5,0,0,0,.86,0c.47-.81.87-1.66,1.3-2.49a.5.5,0,1,0-.86-.5Z"/><path class="cls-13" d="M73.67,122.44c-.62,4-5.33,6.5-10.53,5.69s-8.91-4.68-8.3-8.64,5.34-6.5,10.54-5.69S74.29,118.48,73.67,122.44Z"/><path class="cls-13" d="M135.25,117.51c.82,3.92-2.7,8-7.85,9s-10-1.24-10.8-5.16,2.7-8,7.85-9S134.44,113.59,135.25,117.51Z"/><path class="cls-11" d="M43.07,105.27a32.6,32.6,0,0,0,.7,4.62,45.1,45.1,0,0,0,4.92,12.93A39,39,0,0,0,61.07,136a48.91,48.91,0,0,0,8.09,4.13c1.43.49,2.84,1.06,4.32,1.43.74.19,1.46.43,2.21.59l2.23.48A76.58,76.58,0,0,0,96.21,144h.11a59.91,59.91,0,0,0,17.27-1.64l1-.26,1-.32,2.06-.66c1.33-.56,2.7-1,4-1.7s2.53-1.36,3.79-2.07,2.4-1.59,3.52-2.51a42,42,0,0,0,10.92-13.44,53.47,53.47,0,0,0,5.45-16.78A48.06,48.06,0,0,1,141.22,122a41.31,41.31,0,0,1-10.74,14.58,43.48,43.48,0,0,1-3.64,2.81,39.52,39.52,0,0,1-4,2.32c-1.35.75-2.78,1.29-4.19,1.91l-2.17.75-1.09.37-1.11.3A60.6,60.6,0,0,1,96.2,147h.11a77.22,77.22,0,0,1-19-1.54L75,144.9c-.78-.2-1.54-.46-2.3-.69-1.55-.42-3-1.05-4.53-1.61A46.1,46.1,0,0,1,59.73,138a39,39,0,0,1-12.36-14.45A40.83,40.83,0,0,1,43.07,105.27Z"/><path class="cls-11" d="M81.54,144.49s7.61-1.65,13.66-11.88c0,0,6.68,10.14,16.55,11.66C111.75,144.27,88.49,147,81.54,144.49Z"/></g></g></g></svg>