<svg xmlns="http://www.w3.org/2000/svg" xmlns:xlink="http://www.w3.org/1999/xlink" viewBox="0 0 188.32 188.32"><defs><style>.cls-1{isolation:isolate;}.cls-2{fill:#f6bec8;}.cls-28,.cls-3{fill:#c5e3e2;}.cls-27,.cls-4{fill:#dadada;}.cls-4,.cls-6{mix-blend-mode:overlay;}.cls-5{fill:url(#linear-gradient);}.cls-26,.cls-29,.cls-7{fill:#fff;}.cls-8{fill:#ededed;}.cls-9{fill:#eee;}.cls-10{fill:#efefef;}.cls-11{fill:#f0f0f0;}.cls-12{fill:#f1f1f1;}.cls-13{fill:#f2f2f2;}.cls-14{fill:#f3f3f3;}.cls-15{fill:#f4f4f4;}.cls-16{fill:#f5f5f5;}.cls-17{fill:#f6f6f6;}.cls-18{fill:#f7f7f7;}.cls-19{fill:#f8f8f8;}.cls-20{fill:#f9f9f9;}.cls-21{fill:#fafafa;}.cls-22{fill:#fbfbfb;}.cls-23{fill:#fcfcfc;}.cls-24{fill:#fdfdfd;}.cls-25{fill:#fefefe;}.cls-26,.cls-28{opacity:0.5;}.cls-27{opacity:0.3;}.cls-27,.cls-28{mix-blend-mode:multiply;}.cls-29{opacity:0.6;}.cls-30{fill:#1d1d1b;opacity:0.05;}</style><linearGradient id="linear-gradient" x1="66.31" y1="107.73" x2="126.23" y2="105.63" gradientUnits="userSpaceOnUse"><stop offset="0" stop-color="#f39200"/><stop offset="0.07" stop-color="#f5a804"/><stop offset="0.19" stop-color="#f9cc0b"/><stop offset="0.29" stop-color="#fbe20f"/><stop offset="0.35" stop-color="#fcea10"/><stop offset="0.52" stop-color="#fad70d"/><stop offset="0.87" stop-color="#f5a704"/><stop offset="1" stop-color="#f39200"/></linearGradient></defs><title>one</title><g class="cls-1"><g id="Capa_2" data-name="Capa 2"><g id="Layer_5" data-name="Layer 5"><circle class="cls-2" cx="94.16" cy="94.16" r="94.16" transform="translate(-39 94.16) rotate(-45)"/><path class="cls-3" d="M65.13,41.28c-7.08,65.47,10.59,76.31,8.56,128.84a1.59,1.59,0,0,0,1.58,1.65H114.7a1.59,1.59,0,0,0,1.58-1.65c-2-52.53,15.64-63.37,8.57-128.84Z"/><path class="cls-4" d="M66.8,41.28c-4,36.55-.15,56.18,3.55,75.18,2.69,13.82,8.84,24.68,9.74,39.16a2.43,2.43,0,0,0,3.13,2.17A55.41,55.41,0,0,1,95,156.27a55.57,55.57,0,0,1,11.77,1.52,2.43,2.43,0,0,0,3.12-2.17c.9-14.48,7.05-25.34,9.74-39.16,3.7-19,7.52-38.63,3.55-75.18Z"/><path class="cls-5" d="M65.55,56.15c-1.61,27.35,1.64,44.07,4.8,60.31,2.69,13.82,8.84,24.68,9.74,39.16a2.43,2.43,0,0,0,3.13,2.17A55.41,55.41,0,0,1,95,156.27a55.57,55.57,0,0,1,11.77,1.52,2.43,2.43,0,0,0,3.12-2.17c.9-14.48,7.05-25.34,9.74-39.16,3.16-16.24,6.41-33,4.81-60.31Z"/><g class="cls-6"><path class="cls-7" d="M111.14,102.67a2,2,0,1,1-2.29,3.32,2.26,2.26,0,0,0,2,1.23,2.28,2.28,0,0,0,.28-4.55Z"/></g><g class="cls-6"><path class="cls-7" d="M93.27,122.83a1,1,0,0,1,.61,1,1.06,1.06,0,0,1-1.06,1.06,1.08,1.08,0,0,1-.74-.3,1.18,1.18,0,1,0,1.19-1.72Z"/></g><g class="cls-6"><path class="cls-7" d="M91.4,108.87a2.31,2.31,0,1,1-2.59,3.75,2.58,2.58,0,1,0,2.59-3.75Z"/></g><g class="cls-6"><path class="cls-7" d="M102.52,100.7a1.62,1.62,0,1,1-1.81,2.63,1.8,1.8,0,1,0,1.81-2.63Z"/></g><g class="cls-6"><path class="cls-7" d="M85.75,75.8a1.41,1.41,0,0,1-.59,2.68,1.37,1.37,0,0,1-1-.4,1.56,1.56,0,1,0,1.57-2.28Z"/></g><g class="cls-6"><path class="cls-7" d="M88.8,93.26a1,1,0,0,1-.44,2,1,1,0,0,1-.71-.29,1.14,1.14,0,1,0,1.15-1.67Z"/></g><g class="cls-6"><path class="cls-7" d="M79.63,85a1.67,1.67,0,0,1,1,1.52,1.69,1.69,0,0,1-1.68,1.68,1.72,1.72,0,0,1-1.18-.48A1.87,1.87,0,1,0,79.63,85Z"/></g><path class="cls-8" d="M118.63,56.75a12.83,12.83,0,0,1,5.27.1,17,17,0,0,0,.17-6.81c-.32-2.83-.63-5.67-.95-8.5a1.86,1.86,0,0,0,2.26-1.65,2.64,2.64,0,0,0-1.68-2.5A3.69,3.69,0,0,0,120,32.8a3.76,3.76,0,0,0-5.55-4.29,5.12,5.12,0,0,0-8.53-.36c-.54-3.4-8-4-8.92-.52-1.75-3.89-7.84-2.92-7.68,1.54C87.84,23,78.77,25.54,78.49,30c-2.31-2.53-6.49-1.16-8.72,1.45-3.87-2-7.2,3.58-4.62,5.88-3.84,1.19-1.25,4.93-.49,4.61s1.79-1.16,2.26-.47l-1.53,13a2,2,0,0,0,.1,1.14c.31.56,1.07.66,1.72.69a50.55,50.55,0,0,0,7.28-.06,10.54,10.54,0,0,1,2.17-.12c.85.09,1.67.42,2.52.5,1.67.17,3.34-.64,5-.4s3.09,1.42,4.66,1c.69-.17,1.27-.63,2-.82,1.34-.38,2.72.32,4.1.53,2.91.43,5.86-1.36,8.72-.68.54.13,1.06.34,1.6.42,1.53.21,3.12-.68,4.59-.23.79.25,1.53.87,2.34.69s1.39-1.25,2.29-1.38,1.82,1,2.86,1.16A3.86,3.86,0,0,0,118.63,56.75Z"/><path class="cls-9" d="M70.5,31.86c-3.68-1.86-6.85,3.44-4.42,5.65-3.64,1.14-1.19,4.7-.47,4.41s1.69-1.08,2.13-.41c-.49,4.17-1,8.35-1.42,12.51a1.83,1.83,0,0,0,.1,1.09c.3.55,1,.65,1.67.69a53.12,53.12,0,0,0,5.92.08l1.19-.1a11.7,11.7,0,0,1,2.13-.11c.83.09,1.62.4,2.46.48,1.63.16,3.26-.61,4.89-.38s3,1.35,4.56,1c.66-.16,1.23-.6,1.88-.78,1.3-.36,2.63.31,4,.5a7.07,7.07,0,0,0,1.78,0c2.22-.22,4.45-1.16,6.62-.65.52.12,1,.33,1.55.4,1.47.2,3-.64,4.42-.21.76.23,1.48.82,2.26.66s1.35-1.2,2.21-1.32,1.76,1,2.76,1.1a3.92,3.92,0,0,0,1.3-.23c.17,0,.35-.08.53-.12a14.38,14.38,0,0,1,4.53.19,10.14,10.14,0,0,0,.44-2.9,28.39,28.39,0,0,0-.22-3.68c-.29-2.74-.58-5.48-.9-8.21a1.77,1.77,0,0,0,2.1-1.61,2.56,2.56,0,0,0-1.62-2.4,3.59,3.59,0,0,0-3.6-4.41A3.66,3.66,0,0,0,113.85,29a5.06,5.06,0,0,0-4-2.35,5,5,0,0,0-4.2,2c-.5-2.85-6.09-3.67-8-1.53a2.46,2.46,0,0,0-.57,1c-1.71-3.68-7.55-2.76-7.44,1.46-.7-2.8-3.12-3.7-5.42-3.41-2.53.31-5,2-5.19,4.25a3.82,3.82,0,0,0-1.38-.94,5.13,5.13,0,0,0-3.58,0A8.15,8.15,0,0,0,70.5,31.86Z"/><path class="cls-10" d="M71.23,32.28c-3.49-1.74-6.5,3.29-4.21,5.41-3.44,1.09-1.14,4.47-.46,4.22s1.6-1,2-.37c-.48,4-.93,8-1.33,12a1.83,1.83,0,0,0,.11,1c.3.54,1,.64,1.62.69a46.4,46.4,0,0,0,5.78.11l1.16-.08A10.36,10.36,0,0,1,78,55.2c.81.08,1.59.38,2.41.45,1.59.15,3.19-.57,4.78-.35s3,1.28,4.46.92c.64-.14,1.18-.56,1.81-.73,1.25-.34,2.53.29,3.81.48A7.61,7.61,0,0,0,97,56c2.14-.21,4.28-1.1,6.37-.61.5.12,1,.31,1.49.38,1.42.19,2.89-.6,4.26-.19.73.22,1.42.77,2.17.62s1.31-1.13,2.14-1.24,1.7.93,2.66,1a3.58,3.58,0,0,0,1.25-.22l.51-.11a14.52,14.52,0,0,1,4.36.14,10.1,10.1,0,0,0,.45-2.78,28.31,28.31,0,0,0-.19-3.56c-.26-2.64-.53-5.3-.86-7.93a1.67,1.67,0,0,0,2-1.57,2.51,2.51,0,0,0-1.57-2.3,3.5,3.5,0,0,0-3.49-4.23,3.55,3.55,0,0,0-5.21-3.95,4.85,4.85,0,0,0-7.91-.4c-.51-2.69-5.84-3.47-7.75-1.46a2.56,2.56,0,0,0-.56,1c-1.66-3.49-7.26-2.62-7.19,1.37-.7-2.64-3.1-3.47-5.31-3.2-2.47.31-4.84,1.93-5.09,4a3.72,3.72,0,0,0-1.35-.87,5.06,5.06,0,0,0-3.47.08A8.08,8.08,0,0,0,71.23,32.28Z"/><path class="cls-11" d="M72,32.7c-3.31-1.62-6.15,3.15-4,5.16-3.24,1-1.07,4.25-.44,4s1.5-.92,1.88-.31c-.45,3.83-.88,7.67-1.22,11.48a1.67,1.67,0,0,0,.11,1,1.88,1.88,0,0,0,1.57.69,40.75,40.75,0,0,0,5.64.15c.38,0,.76,0,1.14-.08a11.39,11.39,0,0,1,2-.09c.8.08,1.56.36,2.36.43,1.56.14,3.11-.54,4.67-.33s2.9,1.21,4.36.87c.61-.14,1.14-.53,1.75-.69,1.19-.32,2.43.27,3.66.45a7,7,0,0,0,1.65,0c2.05-.19,4.11-1,6.12-.56.48.11,1,.29,1.44.36,1.36.18,2.77-.56,4.09-.17.7.2,1.37.72,2.09.58s1.26-1.06,2.06-1.17,1.64.87,2.57,1a3.78,3.78,0,0,0,1.19-.21l.49-.11a14.28,14.28,0,0,1,4.18.09,9.65,9.65,0,0,0,.46-2.67,26.32,26.32,0,0,0-.15-3.43c-.22-2.55-.49-5.11-.81-7.64a1.59,1.59,0,0,0,1.8-1.54,2.48,2.48,0,0,0-1.53-2.2,3.4,3.4,0,0,0-3.38-4,3.52,3.52,0,0,0-1.27-3.52,3.57,3.57,0,0,0-3.77-.27A4.83,4.83,0,0,0,109,27.79a4.78,4.78,0,0,0-3.88,1.73c-.53-2.54-5.59-3.29-7.45-1.39a2.27,2.27,0,0,0-.55.89c-1.61-3.28-7-2.47-7,1.3-.69-2.48-3.07-3.25-5.19-3-2.4.3-4.69,1.82-5,3.83a3.58,3.58,0,0,0-1.32-.81,5.06,5.06,0,0,0-3.36.12A7.85,7.85,0,0,0,72,32.7Z"/><path class="cls-12" d="M72.69,33.11c-3.12-1.49-5.8,3-3.8,4.93-3,1-1,4-.43,3.83s1.4-.83,1.76-.25c-.44,3.66-.84,7.33-1.12,11a1.62,1.62,0,0,0,.11,1,1.86,1.86,0,0,0,1.52.69,36,36,0,0,0,5.5.19l1.11-.07a10.94,10.94,0,0,1,2-.08c.77.07,1.52.33,2.3.4,1.52.14,3-.5,4.56-.31s2.83,1.14,4.26.82c.59-.13,1.09-.49,1.68-.65,1.15-.3,2.33.26,3.51.42a7,7,0,0,0,1.59,0c2-.18,3.94-1,5.88-.52.46.1.9.28,1.37.34,1.31.18,2.66-.52,3.93-.16.68.2,1.31.69,2,.55s1.21-1,2-1.1,1.57.82,2.47.89a3.26,3.26,0,0,0,1.14-.2l.47-.1a14.88,14.88,0,0,1,4,0,8.52,8.52,0,0,0,.47-2.56,24.12,24.12,0,0,0-.11-3.29c-.19-2.46-.44-4.94-.77-7.36a1.51,1.51,0,0,0,1.65-1.5,2.4,2.4,0,0,0-1.47-2.1A3.33,3.33,0,0,0,117,34a3.36,3.36,0,0,0-4.88-3.61,4.68,4.68,0,0,0-3.56-2A4.62,4.62,0,0,0,104.8,30c-.54-2.39-5.35-3.11-7.16-1.33a2.13,2.13,0,0,0-.52.84c-1.58-3.09-6.69-2.32-6.71,1.21-.7-2.32-3-3-5.08-2.77-2.34.28-4.54,1.71-4.9,3.61a3.52,3.52,0,0,0-1.28-.74A5.07,5.07,0,0,0,75.9,31,7.76,7.76,0,0,0,72.69,33.11Z"/><path class="cls-13" d="M73.43,33.53c-3-1.37-5.46,2.86-3.6,4.68-2.85,1-1,3.8-.42,3.64s1.3-.75,1.63-.19c-.42,3.49-.79,7-1,10.43a1.63,1.63,0,0,0,.12.9,1.87,1.87,0,0,0,1.48.69,32.75,32.75,0,0,0,5.35.23l1.08-.07A11.33,11.33,0,0,1,80,53.77c.76.07,1.49.32,2.25.38,1.48.13,3-.47,4.44-.28s2.77,1.06,4.17.76c.56-.12,1-.46,1.61-.61,1.1-.28,2.24.24,3.37.4a6.93,6.93,0,0,0,1.51,0c1.89-.16,3.79-.88,5.64-.47.44.1.86.26,1.31.32,1.26.17,2.55-.48,3.77-.14.65.18,1.26.64,1.92.51s1.18-.93,1.91-1,1.51.75,2.37.82a3.42,3.42,0,0,0,1.09-.19,3.41,3.41,0,0,1,.46-.1,14.3,14.3,0,0,1,3.81,0,8.21,8.21,0,0,0,.49-2.46,23.87,23.87,0,0,0-.08-3.16c-.16-2.37-.39-4.75-.72-7.08.71.16,1.49-.6,1.49-1.46a2.34,2.34,0,0,0-1.42-2,3.24,3.24,0,0,0-3.16-3.69A3.3,3.3,0,0,0,115,31.17a3.34,3.34,0,0,0-3.44-.29A4.59,4.59,0,0,0,108.09,29a4.45,4.45,0,0,0-3.56,1.48c-.56-2.24-5.11-2.92-6.87-1.27a2.07,2.07,0,0,0-.51.78c-1.53-2.88-6.4-2.17-6.47,1.14-.69-2.17-3-2.81-5-2.57-2.27.28-4.39,1.62-4.8,3.41a3.47,3.47,0,0,0-1.25-.68,5,5,0,0,0-3.13.2A7.47,7.47,0,0,0,73.43,33.53Z"/><path class="cls-14" d="M74.16,34c-2.76-1.25-5.11,2.71-3.4,4.44-2.65.91-.9,3.57-.4,3.44s1.2-.67,1.51-.13c-.4,3.32-.75,6.65-.92,9.91a1.47,1.47,0,0,0,.12.85,1.83,1.83,0,0,0,1.43.69,30,30,0,0,0,5.21.27l1.05-.06a12,12,0,0,1,1.89-.07c.74.07,1.45.3,2.19.36,1.44.12,2.89-.43,4.33-.26s2.71,1,4.07.71c.54-.11,1-.43,1.54-.56,1.06-.27,2.14.22,3.22.36a6.39,6.39,0,0,0,1.45,0c1.8-.15,3.62-.81,5.39-.42.42.09.83.24,1.26.3,1.2.16,2.43-.44,3.6-.12.62.17,1.2.59,1.84.48s1.13-.87,1.83-1,1.45.7,2.27.76a3.41,3.41,0,0,0,1-.19l.44-.1a15.29,15.29,0,0,1,3.64,0,8.14,8.14,0,0,0,.49-2.34,23.76,23.76,0,0,0,0-3c-.14-2.27-.35-4.57-.69-6.79.65.12,1.36-.61,1.34-1.43a2.28,2.28,0,0,0-1.37-1.9,3.15,3.15,0,0,0-3-3.5,3.23,3.23,0,0,0-1.25-3,3.31,3.31,0,0,0-3.29-.31,4.44,4.44,0,0,0-3.26-1.8,4.3,4.3,0,0,0-3.41,1.35c-.57-2.09-4.86-2.74-6.57-1.21a1.91,1.91,0,0,0-.5.72c-1.48-2.68-6.11-2-6.22,1.06-.7-2-3-2.58-4.86-2.35-2.2.27-4.23,1.51-4.69,3.19a3.42,3.42,0,0,0-1.22-.61,5,5,0,0,0-3,.24A7.4,7.4,0,0,0,74.16,34Z"/><path class="cls-15" d="M74.89,34.37c-2.58-1.13-4.76,2.56-3.19,4.2a1.75,1.75,0,0,0-.39,3.24c.47-.1,1.1-.58,1.38-.07-.38,3.14-.7,6.31-.81,9.39a1.37,1.37,0,0,0,.12.8,1.81,1.81,0,0,0,1.38.69,25.79,25.79,0,0,0,5.07.3c.34,0,.68,0,1-.05a11.19,11.19,0,0,1,1.83,0c.72.06,1.41.27,2.13.33,1.42.11,2.83-.39,4.23-.24s2.64.92,4,.66c.51-.1,1-.4,1.47-.52a8.59,8.59,0,0,1,3.08.34,7.07,7.07,0,0,0,1.38,0c1.72-.14,3.45-.74,5.14-.38a12.28,12.28,0,0,0,1.2.28c1.15.15,2.32-.4,3.43-.1.6.15,1.16.55,1.76.44s1.09-.8,1.76-.89,1.39.64,2.17.69a3.2,3.2,0,0,0,1-.18l.41-.09a16.74,16.74,0,0,1,3.46-.09,7.62,7.62,0,0,0,.51-2.23,25.68,25.68,0,0,0,0-2.91,61.31,61.31,0,0,0-.64-6.51c.59.09,1.22-.61,1.19-1.38a2.24,2.24,0,0,0-1.32-1.8,3.09,3.09,0,0,0-2.94-3.33,3.12,3.12,0,0,0-1.24-2.79,3.19,3.19,0,0,0-3.12-.31,4.35,4.35,0,0,0-3.12-1.7A4.16,4.16,0,0,0,104,31.36c-.58-1.94-4.62-2.56-6.27-1.14a1.81,1.81,0,0,0-.49.66c-1.43-2.48-5.82-1.87-6,1-.69-1.85-3-2.36-4.74-2.15-2.13.27-4.08,1.41-4.6,3a3.19,3.19,0,0,0-1.18-.55,5.09,5.09,0,0,0-2.91.28A7.14,7.14,0,0,0,74.89,34.37Z"/><path class="cls-16" d="M75.62,34.78c-2.39-1-4.41,2.42-3,4a1.67,1.67,0,0,0-.37,3c.43-.07,1-.5,1.26,0a87.12,87.12,0,0,0-.72,8.86,1.41,1.41,0,0,0,.13.76,1.84,1.84,0,0,0,1.33.69,23,23,0,0,0,4.93.34l1,0a11.77,11.77,0,0,1,1.78,0c.71.06,1.38.25,2.08.31,1.38.1,2.75-.36,4.12-.21s2.57.84,3.87.6c.49-.1.92-.37,1.41-.48a8.62,8.62,0,0,1,2.92.31,6.47,6.47,0,0,0,1.32,0c1.63-.12,3.28-.67,4.89-.33.38.08.76.21,1.15.26,1.09.14,2.21-.36,3.26-.09.57.15,1.11.51,1.68.41s1-.73,1.68-.81,1.33.58,2.07.62a3.52,3.52,0,0,0,1-.17l.39-.09a16.5,16.5,0,0,1,3.28-.13,7,7,0,0,0,.52-2.13,21.42,21.42,0,0,0,0-2.78,49.24,49.24,0,0,0-.59-6.22c.52,0,1.08-.62,1-1.35a2.21,2.21,0,0,0-1.27-1.7,3,3,0,0,0-2.83-3.14,3,3,0,0,0-1.23-2.61,3.1,3.1,0,0,0-3-.33,4.28,4.28,0,0,0-3-1.59,4,4,0,0,0-3.09,1.11c-.61-1.79-4.38-2.37-6-1.08a1.87,1.87,0,0,0-.48.6c-1.39-2.28-5.53-1.71-5.73.9-.69-1.68-3-2.14-4.63-1.93-2.07.26-3.93,1.3-4.5,2.77a3.39,3.39,0,0,0-1.16-.48,5.06,5.06,0,0,0-2.79.32A7,7,0,0,0,75.62,34.78Z"/><path class="cls-17" d="M76.35,35.2c-2.21-.88-4.06,2.27-2.78,3.72a1.58,1.58,0,0,0-.36,2.85c.39,0,.9-.41,1.13,0a70.15,70.15,0,0,0-.61,8.34,1.35,1.35,0,0,0,.13.71,1.87,1.87,0,0,0,1.28.7,21.68,21.68,0,0,0,4.79.37l1,0a14.44,14.44,0,0,1,1.74,0c.68,0,1.34.24,2,.29,1.34.09,2.68-.32,4-.19s2.51.77,3.77.54c.46-.08.88-.33,1.34-.43a8.57,8.57,0,0,1,2.78.28,6.51,6.51,0,0,0,1.25,0c1.55-.1,3.11-.6,4.64-.28.37.07.72.2,1.09.24,1,.13,2.1-.32,3.1-.07a4.19,4.19,0,0,0,1.6.37c.6-.1,1-.67,1.6-.74s1.27.52,2,.55a2.85,2.85,0,0,0,.9-.16l.37-.08a18.27,18.27,0,0,1,3.11-.18,6.61,6.61,0,0,0,.52-2,19.26,19.26,0,0,0,.08-2.64,38.93,38.93,0,0,0-.55-5.94c.47,0,1-.63.88-1.32a2.15,2.15,0,0,0-1.22-1.6,3,3,0,0,0-2.71-3A3,3,0,0,0,112,33.11a3,3,0,0,0-2.8-.33,4.11,4.11,0,0,0-2.81-1.48,3.92,3.92,0,0,0-2.93,1c-.62-1.64-4.13-2.19-5.68-1a1.57,1.57,0,0,0-.47.55c-1.34-2.09-5.24-1.57-5.49.81-.69-1.52-2.94-1.91-4.51-1.71-2,.25-3.78,1.2-4.4,2.56a3.14,3.14,0,0,0-1.13-.42,5.08,5.08,0,0,0-2.68.36A6.84,6.84,0,0,0,76.35,35.2Z"/><path class="cls-17" d="M77.08,35.62c-2-.75-3.71,2.13-2.58,3.47a1.51,1.51,0,0,0-.34,2.67c.33-.07.8-.34,1,.09a55.26,55.26,0,0,0-.52,7.83,1.38,1.38,0,0,0,.14.66A1.88,1.88,0,0,0,76,51a19.32,19.32,0,0,0,4.65.41l.94,0a12,12,0,0,1,1.69,0c.67,0,1.31.21,2,.26,1.3.09,2.6-.29,3.9-.17s2.44.7,3.67.49c.44-.07.83-.3,1.27-.39a8.15,8.15,0,0,1,2.63.26,7.77,7.77,0,0,0,1.18,0c1.47-.09,3-.53,4.4-.24.35.07.68.18,1,.22,1,.13,2-.28,2.94-.05a3.92,3.92,0,0,0,1.51.33c.57-.09,1-.6,1.53-.67s1.2.47,1.87.49a3.19,3.19,0,0,0,.85-.16l.35-.08a22.88,22.88,0,0,1,2.93-.22,6.19,6.19,0,0,0,.54-1.9,19.09,19.09,0,0,0,.11-2.52,33.09,33.09,0,0,0-.5-5.66c.4,0,.81-.62.72-1.28A2.1,2.1,0,0,0,115,38.63a2.93,2.93,0,0,0-2.61-2.79,2.93,2.93,0,0,0-1.21-2.25,3,3,0,0,0-2.64-.34,4.14,4.14,0,0,0-2.67-1.37,3.81,3.81,0,0,0-2.77.86c-.63-1.49-3.88-2-5.38-1a1.5,1.5,0,0,0-.45.49c-1.3-1.88-5-1.41-5.26.74-.68-1.37-2.91-1.69-4.39-1.51a5.63,5.63,0,0,0-4.31,2.35,3.24,3.24,0,0,0-1.09-.35,5.12,5.12,0,0,0-2.57.4A6.73,6.73,0,0,0,77.08,35.62Z"/><path class="cls-18" d="M77.81,36c-1.83-.62-3.37,2-2.37,3.24a1.42,1.42,0,0,0-.33,2.47c.29-.05.71-.26.88.15a43.31,43.31,0,0,0-.41,7.31,1.21,1.21,0,0,0,.14.61,1.87,1.87,0,0,0,1.19.7,17.12,17.12,0,0,0,4.5.45l.92,0a14.93,14.93,0,0,1,1.64,0c.64,0,1.27.19,1.91.24,1.27.08,2.53-.25,3.79-.15s2.37.63,3.57.44c.41-.06.79-.26,1.2-.35a8.48,8.48,0,0,1,2.49.23,6.86,6.86,0,0,0,1.11,0,16.56,16.56,0,0,1,4.15-.19c.33.06.65.16,1,.2.92.12,1.87-.24,2.77,0a4,4,0,0,0,1.43.3c.53-.08.91-.54,1.45-.61s1.14.41,1.77.42a3.12,3.12,0,0,0,.8-.14l.33-.08a27.09,27.09,0,0,1,2.75-.26,5.88,5.88,0,0,0,.55-1.8,17,17,0,0,0,.15-2.39,26.56,26.56,0,0,0-.46-5.37c.34-.06.68-.63.57-1.24a2.11,2.11,0,0,0-1.11-1.4,2.88,2.88,0,0,0-2.5-2.6,2.87,2.87,0,0,0-1.2-2.07,2.92,2.92,0,0,0-2.48-.35,4,4,0,0,0-2.51-1.26,3.74,3.74,0,0,0-2.62.73c-.64-1.34-3.63-1.82-5.09-.9a2,2,0,0,0-.43.43c-1.26-1.68-4.67-1.26-5,.66-.68-1.2-2.89-1.46-4.28-1.29a5.77,5.77,0,0,0-4.21,2.14A3.08,3.08,0,0,0,82.78,34a5.32,5.32,0,0,0-2.46.44A6.67,6.67,0,0,0,77.81,36Z"/><path class="cls-19" d="M78.54,36.45c-1.65-.5-3,1.84-2.16,3a1.33,1.33,0,0,0-.32,2.27c.25,0,.61-.17.76.21a33.9,33.9,0,0,0-.31,6.78,1.15,1.15,0,0,0,.14.57,1.9,1.9,0,0,0,1.14.7,15.65,15.65,0,0,0,4.36.49l.89,0c.53,0,1.06-.05,1.59,0s1.24.18,1.86.21c1.23.08,2.45-.21,3.67-.11a16,16,0,0,0,3.48.38c.39-.06.74-.23,1.13-.3a7.76,7.76,0,0,1,2.34.2,9.2,9.2,0,0,0,1,0,16.49,16.49,0,0,1,3.9-.15c.31.06.61.15.92.18.87.11,1.76-.2,2.61,0a4,4,0,0,0,1.35.27c.5-.07.86-.47,1.37-.53s1.08.34,1.67.35a3.3,3.3,0,0,0,.75-.14l.32-.07c.87-.18,1.76-.2,2.56-.31a5.26,5.26,0,0,0,.56-1.69,15.2,15.2,0,0,0,.19-2.26,21.94,21.94,0,0,0-.41-5.08,1.1,1.1,0,0,0,.42-1.21,2.13,2.13,0,0,0-1.07-1.3,2.87,2.87,0,0,0-2.38-2.42,2.86,2.86,0,0,0-1.2-1.89,2.94,2.94,0,0,0-2.32-.36A4,4,0,0,0,105,33.05a3.68,3.68,0,0,0-2.45.61c-.66-1.19-3.38-1.64-4.8-.83a1.47,1.47,0,0,0-.42.37c-1.21-1.48-4.38-1.12-4.77.58-.68-1.05-2.86-1.25-4.17-1.08a6,6,0,0,0-4.1,1.92,3.77,3.77,0,0,0-1-.22,5.59,5.59,0,0,0-2.35.48A6.46,6.46,0,0,0,78.54,36.45Z"/><path class="cls-20" d="M79.27,36.87c-1.46-.38-2.67,1.69-2,2.75A1.27,1.27,0,0,0,77,41.7c.2.07.51-.09.63.27a27,27,0,0,0-.21,6.26,1.08,1.08,0,0,0,.15.52,1.91,1.91,0,0,0,1.09.7,13.66,13.66,0,0,0,4.22.52h.86c.51,0,1,0,1.54,0s1.21.15,1.81.18c1.19.07,2.38-.17,3.56-.09a17.68,17.68,0,0,0,3.38.33c.36-.05.7-.2,1.07-.26a8.16,8.16,0,0,1,2.19.17,8,8,0,0,0,1,0,16.55,16.55,0,0,1,3.65-.1c.29,0,.57.13.87.16.81.1,1.64-.15,2.44,0a3.69,3.69,0,0,0,1.26.23c.47-.06.83-.41,1.3-.46s1,.29,1.57.29a3.57,3.57,0,0,0,.71-.14l.29-.06c.81-.17,1.64-.21,2.39-.36a5.06,5.06,0,0,0,.57-1.58,14.64,14.64,0,0,0,.22-2.12,17.86,17.86,0,0,0-.37-4.81,1.14,1.14,0,0,0,.27-1.17,2.13,2.13,0,0,0-1-1.19,2.91,2.91,0,0,0-2.28-2.25,2.77,2.77,0,0,0-3.34-2.07,3.9,3.9,0,0,0-2.21-1,3.68,3.68,0,0,0-2.3.48c-.67-1-3.13-1.45-4.5-.77a1.58,1.58,0,0,0-.41.31c-1.16-1.28-4.09-1-4.52.5-.68-.88-2.85-1-4.06-.87a6.44,6.44,0,0,0-4,1.72,3.42,3.42,0,0,0-1-.16,5.83,5.83,0,0,0-2.24.52A6.45,6.45,0,0,0,79.27,36.87Z"/><path class="cls-21" d="M80,37.28c-1.28-.25-2.32,1.55-1.75,2.52-1.08.53-.45,1.74-.3,1.88s.42,0,.52.33a20.54,20.54,0,0,0-.11,5.74,1,1,0,0,0,.15.47,2,2,0,0,0,1,.7,12.21,12.21,0,0,0,4.08.56h.83c.5,0,1,0,1.5,0s1.16.13,1.75.16c1.15.06,2.3-.14,3.45-.07a19.12,19.12,0,0,0,3.28.28c.34,0,.66-.17,1-.22a8.8,8.8,0,0,1,2,.14,7.07,7.07,0,0,0,.92,0,17.67,17.67,0,0,1,3.41,0c.26,0,.53.11.8.14.76.09,1.53-.11,2.27,0a4.11,4.11,0,0,0,1.19.19c.44-.05.78-.34,1.22-.39s1,.23,1.47.22a3.06,3.06,0,0,0,.66-.12l.27-.07c.76-.16,1.53-.22,2.21-.39a4.8,4.8,0,0,0,.58-1.47,13,13,0,0,0,.26-2,14.75,14.75,0,0,0-.32-4.52,1.26,1.26,0,0,0,.11-1.13,2.17,2.17,0,0,0-1-1.1,3,3,0,0,0-2.16-2.06,3,3,0,0,0-1.18-1.53,3,3,0,0,0-2-.38,4,4,0,0,0-2.06-.93,3.69,3.69,0,0,0-2.14.36c-.69-.89-2.87-1.26-4.2-.71a1.53,1.53,0,0,0-.4.26c-1.12-1.08-3.79-.82-4.28.41-.68-.72-2.82-.79-3.94-.65A6.89,6.89,0,0,0,85.3,35.4a3,3,0,0,0-1-.09,6,6,0,0,0-2.12.55A6.3,6.3,0,0,0,80,37.28Z"/><path class="cls-22" d="M80.73,37.7A1.73,1.73,0,0,0,79.18,40c-.88.49-.39,1.52-.28,1.69s.32.08.39.39a16,16,0,0,0,0,5.22,1.3,1.3,0,0,0,.14.42,2.13,2.13,0,0,0,1,.7,10.92,10.92,0,0,0,3.94.6h.81c.48,0,1,0,1.44,0s1.13.12,1.7.14c1.11.06,2.23-.1,3.34,0a22.73,22.73,0,0,0,3.17.22c.33,0,.62-.14.94-.18a9.38,9.38,0,0,1,1.9.12c.28,0,.56,0,.84,0a17.67,17.67,0,0,1,3.17,0c.25,0,.49.1.74.13.71.07,1.42-.08,2.11,0a4.16,4.16,0,0,0,1.1.15c.41,0,.74-.27,1.15-.31s.89.17,1.37.15a3.29,3.29,0,0,0,.61-.12l.25-.06c.7-.15,1.42-.24,2-.44a3.94,3.94,0,0,0,.59-1.36,11.23,11.23,0,0,0,.3-1.87,11.91,11.91,0,0,0-.28-4.23,1.45,1.45,0,0,0,0-1.1,2.24,2.24,0,0,0-.91-1,3.13,3.13,0,0,0-2-1.89,2.91,2.91,0,0,0-3-1.74,4.32,4.32,0,0,0-1.92-.82,4,4,0,0,0-2,.23,4.47,4.47,0,0,0-3.91-.64,1.79,1.79,0,0,0-.39.2c-1.07-.88-3.5-.66-4,.34-.68-.57-2.8-.57-3.83-.44a7.6,7.6,0,0,0-3.81,1.29,3.58,3.58,0,0,0-.93,0,6.39,6.39,0,0,0-2,.59A6.19,6.19,0,0,0,80.73,37.7Z"/><path class="cls-23" d="M81.46,38.12a1.65,1.65,0,0,0-1.34,2,1.16,1.16,0,0,0-.27,1.49c.07.14.22.16.27.45a12.07,12.07,0,0,0,.09,4.69,1.37,1.37,0,0,0,.15.38,2.19,2.19,0,0,0,1,.7,10.14,10.14,0,0,0,3.79.64h.79c.46,0,.93,0,1.4,0s1.09.09,1.64.11c1.08,0,2.15-.07,3.23,0a24.39,24.39,0,0,0,3.07.16c.3,0,.58-.1.87-.13a10.27,10.27,0,0,1,1.75.09c.26,0,.52,0,.78,0a19,19,0,0,1,2.92,0l.69.11c.65.07,1.3,0,1.94,0a5.09,5.09,0,0,0,1,.13c.38,0,.69-.21,1.07-.25s.83.11,1.27.08a2.77,2.77,0,0,0,.56-.11l.23,0a10,10,0,0,0,1.85-.49,3.55,3.55,0,0,0,.61-1.25,13.39,13.39,0,0,0,.34-1.74,10,10,0,0,0-.24-4,2,2,0,0,0-.19-1.06,2.57,2.57,0,0,0-.86-.89,3.44,3.44,0,0,0-2-1.7,3.07,3.07,0,0,0-2.83-1.57,4.39,4.39,0,0,0-1.76-.71,4.21,4.21,0,0,0-1.82.1,4.88,4.88,0,0,0-3.61-.57,2.32,2.32,0,0,0-.37.13c-1-.67-3.22-.51-3.8.26A8.68,8.68,0,0,0,90,35.08a9.08,9.08,0,0,0-3.72,1.09,3.89,3.89,0,0,0-.89,0,7.31,7.31,0,0,0-1.9.63A6.2,6.2,0,0,0,81.46,38.12Z"/><path class="cls-24" d="M82.19,38.53a1.66,1.66,0,0,0-1.13,1.8c-.49.39-.3,1.06-.26,1.29a2.54,2.54,0,0,1,.14.51,9,9,0,0,0,.2,4.17,1.61,1.61,0,0,0,.15.33,2.42,2.42,0,0,0,.91.71,9.14,9.14,0,0,0,3.64.67h.76l1.35,0,1.59.09c1,0,2.08,0,3.12,0s2,.17,3,.11c.28,0,.54-.07.81-.09a10.77,10.77,0,0,1,1.6.07l.71,0a19.85,19.85,0,0,1,2.67.08l.63.09c.6.06,1.19,0,1.78.06a4.91,4.91,0,0,0,.94.09c.34,0,.65-.14,1-.18s.77.06,1.17,0a4.59,4.59,0,0,0,.51-.1l.21-.05a7.18,7.18,0,0,0,1.68-.53,3.44,3.44,0,0,0,.61-1.15,10,10,0,0,0,.38-1.61,8.31,8.31,0,0,0-.19-3.66,2.34,2.34,0,0,0-.35-1,3.07,3.07,0,0,0-.81-.8A4.2,4.2,0,0,0,107.14,38,4.15,4.15,0,0,0,106,37a4.06,4.06,0,0,0-1.52-.42,5.25,5.25,0,0,0-1.61-.6,5.45,5.45,0,0,0-1.66,0,6,6,0,0,0-3.32-.51,1.59,1.59,0,0,0-.35.08A4.24,4.24,0,0,0,94,35.7a12.09,12.09,0,0,0-3.61,0,11.25,11.25,0,0,0-3.61.87,5.48,5.48,0,0,0-.86.11,7.79,7.79,0,0,0-1.79.67A6.35,6.35,0,0,0,82.19,38.53Z"/><path class="cls-25" d="M82.92,39A1.87,1.87,0,0,0,82,40.5a1.7,1.7,0,0,0-.24,1.11c0,.17,0,.32,0,.55a6.53,6.53,0,0,0,.3,3.66,1.91,1.91,0,0,0,.15.28,2.56,2.56,0,0,0,.86.71,8,8,0,0,0,3.5.7l.73,0,1.3,0,1.54.07c1,0,2,0,3,0s1.91.1,2.87.06l.74,0c.48,0,1,0,1.45,0l.65,0c.8,0,1.61,0,2.42.13l.58.07c.53,0,1.08,0,1.61.08a8.24,8.24,0,0,0,.85.05c.32,0,.61-.08.92-.1s.71,0,1.07-.06a3.73,3.73,0,0,0,.46-.09l.2-.05a4.4,4.4,0,0,0,1.49-.57,2.93,2.93,0,0,0,.62-1,8.47,8.47,0,0,0,.42-1.48,6.62,6.62,0,0,0-.15-3.38,2.65,2.65,0,0,0-.5-1,4.07,4.07,0,0,0-.76-.69,6,6,0,0,0-1.72-1.35,5.3,5.3,0,0,0-1.14-.8,5.9,5.9,0,0,0-1.35-.42,6.43,6.43,0,0,0-1.46-.49,7.22,7.22,0,0,0-1.51-.15,9.62,9.62,0,0,0-3-.45l-.34,0a6.31,6.31,0,0,0-3.31.1,24.72,24.72,0,0,0-3.49.19,15.64,15.64,0,0,0-3.51.67,5.33,5.33,0,0,0-.83.17,9.39,9.39,0,0,0-1.68.71A6.32,6.32,0,0,0,82.92,39Z"/><path class="cls-7" d="M85.37,38.31a6.19,6.19,0,0,0-1.72,1.06,4.36,4.36,0,0,0-1,2.22c-.27,1.35-.39,2.89.45,4S85.8,47,87.32,47c3,.14,6.08.19,9.11.17.85,0,1.71,0,2.56,0,2.44.12,4.93.67,7.31.06a3,3,0,0,0,1.31-.62,2.82,2.82,0,0,0,.64-.92c.74-1.67,1-4.15-.31-5.4A15.91,15.91,0,0,0,104.49,38a23,23,0,0,0-6.57-1.48,20.32,20.32,0,0,0-3.4,0l-3.37.41a17.64,17.64,0,0,0-4.22.69A13.93,13.93,0,0,0,85.37,38.31Z"/><g class="cls-6"><path class="cls-7" d="M79.31,64.9a1.16,1.16,0,0,1-.49,2.22,1.15,1.15,0,0,1-.82-.33,1.29,1.29,0,0,0,1.15.7,1.3,1.3,0,0,0,.16-2.59Z"/></g><g class="cls-6"><path class="cls-7" d="M92.46,60.6a1.52,1.52,0,1,1-1.7,2.46A1.69,1.69,0,0,0,94,62.27,1.69,1.69,0,0,0,92.46,60.6Z"/></g><g class="cls-6"><path class="cls-7" d="M95.53,76a1.46,1.46,0,1,1-1.64,2.37A1.63,1.63,0,0,0,97,77.64,1.62,1.62,0,0,0,95.53,76Z"/></g><g class="cls-6"><path class="cls-7" d="M96.61,85a.94.94,0,0,1-.4,1.79.91.91,0,0,1-.65-.27,1,1,0,0,0,.92.56A1,1,0,0,0,96.61,85Z"/></g><g class="cls-6"><path class="cls-7" d="M96.92,99a1.42,1.42,0,0,1,.84,1.3,1.44,1.44,0,0,1-2.45,1,1.6,1.6,0,0,0,3-.74A1.59,1.59,0,0,0,96.92,99Z"/></g><g class="cls-6"><path class="cls-7" d="M107.59,61.55a2.17,2.17,0,0,1-.92,4.14,2.2,2.2,0,0,1-1.52-.62,2.42,2.42,0,1,0,2.44-3.52Z"/></g><g class="cls-6"><path class="cls-7" d="M107.53,79.84a1.3,1.3,0,0,1-.55,2.47,1.27,1.27,0,0,1-.9-.37,1.44,1.44,0,1,0,1.45-2.1Z"/></g><g class="cls-6"><path class="cls-7" d="M107.8,90.22a1.25,1.25,0,1,1-1.4,2,1.41,1.41,0,0,0,1.23.75,1.39,1.39,0,0,0,.17-2.78Z"/></g><g class="cls-6"><path class="cls-7" d="M110.06,73.37a1.58,1.58,0,0,1-.67,3,1.55,1.55,0,0,1-1.1-.45,1.76,1.76,0,1,0,1.77-2.57Z"/></g><g class="cls-6"><path class="cls-7" d="M89.36,132.06a1.06,1.06,0,0,1,.6.95,1,1,0,0,1-1,1,1,1,0,0,1-.73-.3,1.16,1.16,0,1,0,1.17-1.69Z"/></g><g class="cls-6"><path class="cls-7" d="M94.17,145.18a2.05,2.05,0,1,1-2.3,3.33,2.29,2.29,0,1,0,2.3-3.33Z"/></g><g class="cls-6"><path class="cls-7" d="M102,125.49a1.68,1.68,0,0,1-.71,3.2,1.64,1.64,0,0,1-1.17-.48,1.85,1.85,0,0,0,1.65,1,1.87,1.87,0,0,0,.23-3.73Z"/></g><g class="cls-6"><path class="cls-7" d="M108.92,117.83a1.28,1.28,0,0,1-.54,2.45,1.27,1.27,0,0,1-.9-.37,1.43,1.43,0,1,0,1.44-2.08Z"/></g><g class="cls-6"><path class="cls-7" d="M85,98.49a2.1,2.1,0,1,1-2.36,3.41A2.35,2.35,0,1,0,85,98.49Z"/></g><g class="cls-6"><path class="cls-7" d="M74.61,58.5a1.9,1.9,0,1,1-2.13,3.08,2.12,2.12,0,1,0,2.13-3.08Z"/></g><g class="cls-6"><path class="cls-7" d="M118.18,61.89a1.87,1.87,0,1,1-2.09,3,2.08,2.08,0,1,0,2.09-3Z"/></g><g class="cls-6"><path class="cls-7" d="M102,67.61a2,2,0,1,1-2.24,3.24,2.23,2.23,0,0,0,4.2-1A2.22,2.22,0,0,0,102,67.61Z"/></g><g class="cls-6"><path class="cls-7" d="M75.12,72.41a1.19,1.19,0,0,1-.5,2.27,1.22,1.22,0,0,1-.83-.33,1.32,1.32,0,0,0,1.17.71,1.33,1.33,0,0,0,.16-2.65Z"/></g><g class="cls-6"><path class="cls-7" d="M79.35,95.07a1.66,1.66,0,0,1-.71,3.16,1.64,1.64,0,0,1-1.15-.47,1.85,1.85,0,1,0,1.86-2.69Z"/></g><g class="cls-6"><path class="cls-7" d="M91.93,81.15a1.87,1.87,0,1,1-2.1,3,2.09,2.09,0,1,0,2.1-3Z"/></g><g class="cls-6"><path class="cls-7" d="M114.54,93.64a1.69,1.69,0,1,1-1.9,2.74,1.89,1.89,0,1,0,1.9-2.74Z"/></g><g class="cls-6"><path class="cls-7" d="M86.05,115.44a1.68,1.68,0,1,1-1.88,2.72,1.85,1.85,0,0,0,1.65,1,1.87,1.87,0,0,0,.23-3.73Z"/></g><path class="cls-26" d="M84.17,154.13c-7-40.88-19.59-37.14-14.84-110.87H78C72.48,111.61,82.6,122.83,84.17,154.13Z"/><path class="cls-27" d="M66.8,41.28c-4,36.55-.15,56.18,3.55,75.18,2.69,13.82,8.84,24.68,9.74,39.16a2.43,2.43,0,0,0,3.13,2.17A55.41,55.41,0,0,1,95,156.27a55.57,55.57,0,0,1,11.77,1.52,2.43,2.43,0,0,0,3.12-2.17c.9-14.48,7.05-25.34,9.74-39.16,3.7-19,7.52-38.63,3.55-75.18Z"/><path class="cls-28" d="M124.85,41.28h-1.68c4,36.55.15,56.18-3.55,75.18-2.69,13.82-8.84,24.68-9.74,39.16a2.43,2.43,0,0,1-3.12,2.17A55.57,55.57,0,0,0,95,156.27a55.41,55.41,0,0,0-11.77,1.52,2.43,2.43,0,0,1-3.13-2.17c-.9-14.48-7-25.34-9.74-39.16-3.7-19-7.52-38.63-3.55-75.18H65.13c-7.08,65.47,10.59,76.31,8.56,128.84a1.59,1.59,0,0,0,1.58,1.65H114.7a1.59,1.59,0,0,0,1.58-1.65C114.25,117.59,131.92,106.75,124.85,41.28Z"/><path class="cls-29" d="M106.4,162.91c-.32.77-1.89.8-4.18.78s-5.4-.1-8.8.14a55.89,55.89,0,0,0-8.52,1.11c-2.09.43-3.34,1-4,.53-.3-.26-.31-.8,0-1.65a7.79,7.79,0,0,1,2.29-2.65,18.55,18.55,0,0,1,9.87-3.23,21.06,21.06,0,0,1,10,1.69C105.55,160.79,106.71,162.21,106.4,162.91Z"/><path class="cls-30" d="M126.43,63.38c-.2-6.66-.7-14-1.58-22.17h-.31a2,2,0,0,0,.84-1.39,2.64,2.64,0,0,0-1.68-2.5A3.68,3.68,0,0,0,120,32.73a3.76,3.76,0,0,0-5.55-4.3,5.13,5.13,0,0,0-8.53-.36c-.54-3.4-8-4-8.92-.52a4,4,0,0,0-2.18-2.1V171.7H114.7a1.6,1.6,0,0,0,1.58-1.66,188.14,188.14,0,0,1,2.44-39.51c0-.34.11-.69.17-1,1.25-7.43,2.73-14.38,4.06-21.71a209.47,209.47,0,0,0,3.26-26.22c.15-2.76.26-5.64.3-8.66,0-1.52,0-3.06,0-4.65S126.48,65.05,126.43,63.38Z"/></g></g></g></svg>