<svg xmlns="http://www.w3.org/2000/svg" viewBox="0 0 91.03 45.6"><defs><style>.cls-1{fill:none;stroke:#f6bec8;stroke-miterlimit:10;}.cls-2{fill:#fff;}</style></defs><title>responsive-logo</title><g id="Capa_2" data-name="Capa 2"><g id="Layer_1" data-name="Layer 1"><path class="cls-1" d="M29.1,45.1a2,2,0,0,1-1.5-.79,19.3,19.3,0,0,0-2-2.18l-8.51-8.51a2.67,2.67,0,0,0,.12.24,2.07,2.07,0,0,1-.11,2,2,2,0,0,1-1.67,1H13.69a2,2,0,0,1-1.1-.34,2,2,0,0,1-1.11.34H9.85a2,2,0,0,1-1.32-.5A5.06,5.06,0,0,1,6,36.92,5,5,0,0,1,1,31.61,5,5,0,0,1,6,26.32a5.3,5.3,0,0,1,2.52.6,2,2,0,0,1,.87-.44L5,25.06c-1.54-.49-2.09-.65-3-.89a2,2,0,0,1-1.3-1.09,2.06,2.06,0,0,1,0-1.7,18.46,18.46,0,0,0,1-2.74L5.36,7.29a15.81,15.81,0,0,0,.72-2.83,2,2,0,0,1,1-1.41,2,2,0,0,1,1-.27,1.85,1.85,0,0,1,.7.13c.79.29,1.28.47,3,1l4.35,1.39A11.78,11.78,0,0,1,21.52,8.7c0-.37-.06-.71-.11-1.07A2,2,0,0,1,21.89,6a2,2,0,0,1,1.5-.69h4.36a2,2,0,0,1,1.11.35,8.1,8.1,0,0,1,3.26-.61,9.8,9.8,0,0,1,1.54.11V2.5a2,2,0,0,1,2-2H40.1a2,2,0,0,1,2,2V5.39a2.33,2.33,0,0,1,.38,0h4.35A2,2,0,0,1,48,5.7,8,8,0,0,1,51.31,5a6.77,6.77,0,0,1,4.94,1.81c.16.16.31.33.45.5V5.8a22.42,22.42,0,0,0-.16-3A2.05,2.05,0,0,1,57,1.18,2,2,0,0,1,58.53.5H63a2,2,0,0,1,2,2.29,20.68,20.68,0,0,0-.15,3V7.09a9,9,0,0,0,.64-.83,2,2,0,0,1,1.67-.91h5.81a2,2,0,0,1,1.32,3.51c-.82.71-1,.93-2.21,2.06l-2,1.9L72.88,17a26.93,26.93,0,0,0,1.8,2.47,2,2,0,0,1,.26,2.13,2,2,0,0,1-1.81,1.14H67.56a2,2,0,0,1-1.89-1.32,12.28,12.28,0,0,0-.81-1.79,6.76,6.76,0,0,0,.1.77,2,2,0,0,1-2,2.34H58.53a2,2,0,0,1-1.14-.35,2,2,0,0,1-1.13.35H51.71a2,2,0,0,1-1.5-.67,2,2,0,0,1-.49-1.58,22.09,22.09,0,0,0,.16-3.05V12.71a2.19,2.19,0,0,0-1.05.87v3.81A24.16,24.16,0,0,0,49,20.46a2,2,0,0,1-2,2.23H42.48a2,2,0,0,1-1.16-.37,2,2,0,0,1-1.16.37H35.59a2,2,0,0,1-1-.25c.36.3.72.63,1.07,1a13.73,13.73,0,0,1,2.91,4.14h4.54a2,2,0,0,1,1.12.34,8.1,8.1,0,0,1,3.26-.6,8.73,8.73,0,0,1,1.54.11V24.69a2,2,0,0,1,2-2H55.5a2,2,0,0,1,2,2v2.9a1.58,1.58,0,0,1,.38,0h4.35a2,2,0,0,1,1.12.34,8,8,0,0,1,3.36-.67A6.82,6.82,0,0,1,71.65,29a5.47,5.47,0,0,1,.45.51V28a22.58,22.58,0,0,0-.16-3,2,2,0,0,1,.48-1.58,2,2,0,0,1,1.5-.69h4.44a2,2,0,0,1,1.52.7,2,2,0,0,1,.46,1.6,20.5,20.5,0,0,0-.15,3v1.28a7.86,7.86,0,0,0,.64-.83,2,2,0,0,1,1.67-.9h5.81a2,2,0,0,1,1.32,3.51c-.81.7-1,.92-2.21,2.06l-2,1.9,2.85,4.16a27.09,27.09,0,0,0,1.77,2.43,2,2,0,0,1-1.54,3.28H83a2,2,0,0,1-1.89-1.33,11,11,0,0,0-.82-1.78c0,.27.06.49.11.76a2,2,0,0,1-.44,1.63,2,2,0,0,1-1.53.72H73.92a2,2,0,0,1-1.13-.36,2,2,0,0,1-1.14.36H67.11a2,2,0,0,1-2-2.25,22.25,22.25,0,0,0,.16-3.06V34.9a2.19,2.19,0,0,0-1,.87v3.81a24.42,24.42,0,0,0,.16,3.08,2,2,0,0,1-.49,1.56,2,2,0,0,1-1.5.67H57.88a2,2,0,0,1-1.16-.37,2,2,0,0,1-1.16.37H51a2,2,0,0,1-1.5-.68A2,2,0,0,1,49,42.64a22.62,22.62,0,0,0,.16-3.06V35.41a2,2,0,0,1-.54.07,1.93,1.93,0,0,1-.58-.08,5.21,5.21,0,0,0-1.65-.33,1.13,1.13,0,0,0-1,.44c-.1.11-.16.19-.22.78v3.32a21.87,21.87,0,0,0,.16,3,2,2,0,0,1-.48,1.57,2,2,0,0,1-1.5.68H38.79a2,2,0,0,1-1.49-.68,2,2,0,0,1-.49-1.56A23.26,23.26,0,0,0,37,39.58V38a12.86,12.86,0,0,1-.88,1l-3.26,3.26c-1.14,1.15-1.54,1.57-2.16,2.25a2,2,0,0,1-1.48.66Zm.52-10.77.66-.66A2.24,2.24,0,0,0,31.15,32a4.1,4.1,0,0,0-1.41-2.53,3.88,3.88,0,0,0-2.36-1.39c-.22,0-.75,0-1.77,1l-.61.61ZM15,26.94a3.36,3.36,0,0,1,.94.72l1.18-1.16.49-.49-.22.12A9,9,0,0,1,15,26.94Zm6.48-4.69.35-.28-.1-.14ZM29.85,20A10.89,10.89,0,0,1,34.11,22h0a2,2,0,0,1-.49-1.57,22.62,22.62,0,0,0,.16-3.06V13.22a2,2,0,0,1-.54.07,2,2,0,0,1-.58-.09A5.16,5.16,0,0,0,31,12.87a1.16,1.16,0,0,0-1,.44c-.1.12-.16.2-.21.79v3.31A23.35,23.35,0,0,0,29.85,20ZM11.38,18.89a3.66,3.66,0,0,0,1.08.2,1.68,1.68,0,0,0,.81-.2,4.13,4.13,0,0,0,1.6-2.41A3.94,3.94,0,0,0,15,13.75c-.11-.2-.35-.67-1.72-1.11l-.83-.26-2,6.23Z"/><path class="cls-2" d="M9.09,31.58A3,3,0,0,1,6,34.92,3,3,0,0,1,3,31.61,3,3,0,0,1,6,28.32,3,3,0,0,1,9.09,31.58Zm-1.58,0c0-1.23-.57-2-1.49-2s-1.49.76-1.49,2,.57,2,1.49,2S7.51,32.85,7.51,31.6Zm6.18,3.18a8.23,8.23,0,0,0-.37-1.19c-.25-.66-.34-.84-.53-1a.81.81,0,0,0-.59-.21h-.78v1.25a9.07,9.07,0,0,0,.06,1.15H9.85a7,7,0,0,0,.06-1.14V29.55a7.56,7.56,0,0,0-.06-1.12c.33,0,.62,0,1.13,0h2c1.23,0,1.94.64,1.94,1.74a1.62,1.62,0,0,1-.45,1.24,1.56,1.56,0,0,1-.72.38c.39.12.56.3.81.84.11.24.22.5.56,1.32.08.21.18.4.37.81Zm-1.08-3.7a.66.66,0,0,0,.72-.7c0-.43-.24-.65-.71-.65h-1.2v1.35Zm6,1.21a18.46,18.46,0,0,0-2.41-2.13c.65-.59,1.05-1,2.33-2.25l3.23-3.23a8.83,8.83,0,0,1,6-2.93,9.15,9.15,0,0,1,6.5,3.09,9.65,9.65,0,0,1,3.2,6.79,8.47,8.47,0,0,1-2.8,5.89l-3.26,3.26c-1.19,1.19-1.61,1.64-2.23,2.32a20.52,20.52,0,0,0-2.13-2.38Zm13.07,2.8A4.26,4.26,0,0,0,33.15,32a5.93,5.93,0,0,0-2-3.95,5.56,5.56,0,0,0-3.77-2,4.47,4.47,0,0,0-3.18,1.61l-2,2,7.45,7.45Zm16.93-1.61a7.16,7.16,0,0,0-2.23-.41,3.1,3.1,0,0,0-3.26,3.13v3.41a24,24,0,0,0,.18,3.28H38.79A24.69,24.69,0,0,0,39,39.58V32.85a21.52,21.52,0,0,0-.18-3.3h4.35v1.73a5,5,0,0,1,4.38-2,8.72,8.72,0,0,1,2.16.26Zm6.93-3.93a22,22,0,0,0-.17,3.3v6.73a29.78,29.78,0,0,0,.17,3.31H51a24.69,24.69,0,0,0,.18-3.31V32.85a23.48,23.48,0,0,0-.18-3.3Zm-.06-4.86V28H51.06V24.69Zm2.38,18.2a24.85,24.85,0,0,0,.17-3.31V32.85a21.93,21.93,0,0,0-.17-3.3h4.35v.92c0,.13,0,.46,0,.61a6,6,0,0,1,4.5-1.86,4.81,4.81,0,0,1,3.52,1.23,4.68,4.68,0,0,1,1.25,3.67v5.49a28,28,0,0,0,.17,3.28H67.11a25.23,25.23,0,0,0,.17-3.31V35.1a2.54,2.54,0,0,0-.35-1.62,1.7,1.7,0,0,0-1.44-.61c-1.23,0-2.32.77-3.26,2.3v4.41a27,27,0,0,0,.17,3.31Zm20.48-18.2A22.68,22.68,0,0,0,78.19,28v6.14l2.4-2.38a14,14,0,0,0,1.91-2.21h5.81c-.85.74-1.11,1-2.29,2.14l-3.17,3.06,3.65,5.34c1.33,1.92,1.42,2,2,2.8H83A16.17,16.17,0,0,0,81.51,40l-1.66-2.71-1.64,1.57v.87a15.51,15.51,0,0,0,.18,3.2H73.92a22,22,0,0,0,.18-3.31V28a24.41,24.41,0,0,0-.18-3.31ZM7.27,7.9a18.94,18.94,0,0,0,.79-3.12c.82.31,1.33.49,3.06,1l4.36,1.39a8.8,8.8,0,0,1,5.35,4,9.1,9.1,0,0,1,.23,7.19,9.65,9.65,0,0,1-4.57,6,8.42,8.42,0,0,1-6.51.21l-4.4-1.4c-1.6-.52-2.19-.68-3.08-.92a20.75,20.75,0,0,0,1.14-3Zm3.5,12.9a4.23,4.23,0,0,0,3.41-.13,5.87,5.87,0,0,0,2.59-3.58,5.51,5.51,0,0,0,0-4.26,4.46,4.46,0,0,0-2.89-2.09l-2.72-.87L8,19.9Zm22.46-9.51A6.94,6.94,0,0,0,31,10.87,3.09,3.09,0,0,0,27.75,14v3.41a24.18,24.18,0,0,0,.17,3.28H23.39a23,23,0,0,0,.18-3.3V10.66a20.44,20.44,0,0,0-.18-3.31h4.36V9.08a5,5,0,0,1,4.37-2,9.17,9.17,0,0,1,2.16.26Zm6.93-3.94A22.17,22.17,0,0,0,40,10.66v6.73a29.72,29.72,0,0,0,.17,3.3H35.59a24.53,24.53,0,0,0,.18-3.3V10.66a23.63,23.63,0,0,0-.18-3.31ZM40.1,2.5V5.78H35.66V2.5Zm2.38,18.19a24.69,24.69,0,0,0,.17-3.3V10.66a22.17,22.17,0,0,0-.17-3.31h4.35v.92c0,.13,0,.46,0,.61A6,6,0,0,1,51.31,7a4.81,4.81,0,0,1,3.52,1.22,4.71,4.71,0,0,1,1.25,3.67v5.49a27.73,27.73,0,0,0,.18,3.28H51.71a25.16,25.16,0,0,0,.17-3.3V12.91a2.5,2.5,0,0,0-.35-1.62,1.7,1.7,0,0,0-1.44-.61c-1.23,0-2.32.76-3.26,2.29v4.42a24.89,24.89,0,0,0,.18,3.3ZM63,2.5a21.08,21.08,0,0,0-.18,3.3V12L65.2,9.56a13.46,13.46,0,0,0,1.9-2.21h5.81c-.85.75-1.11,1-2.29,2.15l-3.17,3.06,3.65,5.33a31.41,31.41,0,0,0,2,2.8H67.56a16.17,16.17,0,0,0-1.45-2.93l-1.66-2.71-1.64,1.58v.87A15.39,15.39,0,0,0,63,20.69H58.53a23.49,23.49,0,0,0,.17-3.3V5.8a24.57,24.57,0,0,0-.17-3.3Z"/></g></g></svg>