<svg xmlns="http://www.w3.org/2000/svg" xmlns:xlink="http://www.w3.org/1999/xlink" viewBox="0 0 188.32 188.32"><defs><style>.cls-1{isolation:isolate;}.cls-2{fill:#f6bec8;}.cls-3,.cls-5{fill:#c5e3e2;}.cls-11,.cls-4{fill:#dcfaf9;}.cls-11,.cls-12,.cls-18,.cls-5{mix-blend-mode:multiply;}.cls-6{fill:#f39200;}.cls-7{fill:#ffe4b5;}.cls-8{fill:#ffab14;}.cls-12,.cls-9{fill:url(#linear-gradient);}.cls-10{fill:#e6332a;}.cls-11,.cls-13,.cls-14{opacity:0.5;}.cls-12,.cls-18{opacity:0.28;}.cls-13,.cls-15{fill:#fff;}.cls-16{fill:#1d1d1b;opacity:0.05;}.cls-17,.cls-18{fill:url(#linear-gradient-3);}</style><linearGradient id="linear-gradient" x1="65.2" y1="100.86" x2="65.2" y2="72.14" gradientUnits="userSpaceOnUse"><stop offset="0" stop-color="#00b036"/><stop offset="1" stop-color="#4bff00"/></linearGradient><linearGradient id="linear-gradient-3" x1="183.21" y1="100.86" x2="183.21" y2="72.14" gradientTransform="matrix(-1, 0, 0, 1, 312.12, 0)" xlink:href="#linear-gradient"/></defs><title>softTwo</title><g class="cls-1"><g id="Capa_2" data-name="Capa 2"><g id="Layer_5" data-name="Layer 5"><circle class="cls-2" cx="94.16" cy="94.16" r="94.16" transform="translate(-39 94.16) rotate(-45)"/><path class="cls-3" d="M37.57,72.14l21.9,26.45a18.29,18.29,0,0,1,4.19,11.65V146a3.6,3.6,0,0,1-3.46,3.29l-9.17,1a.63.63,0,0,0-.6.61.66.66,0,0,0,.7.54H79.26a.66.66,0,0,0,.7-.54.62.62,0,0,0-.6-.61l-9.17-1A3.6,3.6,0,0,1,66.73,146V110.24a18.3,18.3,0,0,1,4.2-11.65l21.9-26.45Z"/><path class="cls-4" d="M39.13,72.14C41.47,75,59.71,97,60.11,97.67c1.72,2.1,3.41,3.16,5.09,3.19s3.36-1.09,5.08-3.19c.4-.63,18.64-22.69,21-25.53Z"/><path class="cls-5" d="M79.36,150.32l-9.17-1A3.6,3.6,0,0,1,66.73,146V110.24a18.3,18.3,0,0,1,4.2-11.65l21.9-26.45H91.26C88.92,75,70.68,97,70.28,97.67q-2.58,3.15-5.08,3.19c-1.68,0-3.37-1.09-5.09-3.19-.4-.63-18.64-22.69-21-25.53H37.57l21.9,26.45a18.29,18.29,0,0,1,4.19,11.65V146a3.6,3.6,0,0,1-3.46,3.29l-9.17,1a.63.63,0,0,0-.6.61.66.66,0,0,0,.7.54H79.26a.66.66,0,0,0,.7-.54A.62.62,0,0,0,79.36,150.32Z"/><path class="cls-6" d="M42.48,55a15.88,15.88,0,1,0,2.84,26.51l-1-1.14a14.4,14.4,0,1,1,3.8-4.7,14.17,14.17,0,0,1-2.9,3.9l.95,1.15A15.86,15.86,0,0,0,42.48,55Z"/><path class="cls-7" d="M41.82,56.33a14.4,14.4,0,1,0,2.55,24l-5-6h0l-1.83-2.22h.35c-.74-.85-1.17-1.55-.94-2,.56-1.12,5,0,8.68.36,3.52.42,3,2.79,1.86,5-.89,1.77-2,3.19-3.81,2.21l1.56,1.89a14.17,14.17,0,0,0,2.9-3.9A14.41,14.41,0,0,0,41.82,56.33ZM22.92,62.8c1.1-2.18,2.51-3.81,5.15-1.18,2.46,2.64,6,5.4,5.4,6.51s-5,0-8.68-.37C21.27,67.35,21.82,65,22.92,62.8ZM22,73.35c-.76-2.32-.92-4.46,2.81-4.47s8-.4,8.42.79-3.55,3.52-6.4,5.88C24.09,77.74,22.81,75.67,22,73.35Zm11.81,6.22c-.42,3.52-2.79,3-5,1.87s-3.81-2.51-1.18-5.15c2.64-2.46,5.39-6,6.51-5.4S34.19,75.9,33.85,79.57Zm.85-12.38c-1.19.38-3.53-3.56-5.88-6.4C26.62,58,28.69,56.72,31,56s4.46-.92,4.47,2.81S35.88,66.8,34.7,67.19Zm6.93,10.3c2.19,2.78.13,4.07-2.19,4.83S35,83.24,35,79.51s-.4-8,.78-8.42S39.27,74.64,41.63,77.49Zm-5.4-10.11c-1.11-.56,0-5,.37-8.68.42-3.52,2.78-3,5-1.86s3.81,2.5,1.18,5.15C40.1,64.45,37.34,68,36.23,67.38Zm9.36,2c-3.6-.12-8,.4-8.41-.78s3.55-3.52,6.4-5.88c2.78-2.19,4.06-.13,4.82,2.19S49.32,69.39,45.59,69.39Z"/><path class="cls-8" d="M48.4,64.92c-.76-2.32-2-4.38-4.82-2.19-2.85,2.36-6.79,4.7-6.4,5.88s4.81.66,8.41.78S49.17,67.24,48.4,64.92Z"/><path class="cls-8" d="M43.71,77.69c1.81,1,2.92-.44,3.81-2.21,1.11-2.18,1.66-4.55-1.86-5C42,70.17,37.54,69,37,70.15c-.23.44.2,1.14.94,2h1.21Z"/><path class="cls-8" d="M34.22,70.89c-1.12-.56-3.87,2.94-6.51,5.4-2.63,2.64-1,4,1.18,5.15s4.54,1.65,5-1.87S35.33,71.45,34.22,70.89Z"/><path class="cls-8" d="M33.27,69.67c-.39-1.19-4.81-.66-8.42-.79S21.28,71,22,73.35s2.05,4.39,4.83,2.2C29.72,73.19,33.66,70.85,33.27,69.67Z"/><path class="cls-8" d="M24.79,67.76c3.68.35,8.12,1.48,8.68.37s-2.94-3.87-5.4-6.51c-2.64-2.63-4.05-1-5.15,1.18S21.27,67.35,24.79,67.76Z"/><path class="cls-8" d="M35.48,58.77C35.47,55,33.33,55.2,31,56s-4.39,2-2.19,4.83c2.35,2.84,4.69,6.78,5.88,6.4S35.36,62.37,35.48,58.77Z"/><path class="cls-8" d="M42.74,62c2.63-2.65,1-4.05-1.18-5.15s-4.54-1.66-5,1.86c-.35,3.68-1.48,8.12-.37,8.68S40.1,64.45,42.74,62Z"/><path class="cls-8" d="M35.75,71.09c-1.18.39-.66,4.81-.78,8.42s2.15,3.57,4.47,2.81,4.38-2,2.19-4.83C39.27,74.64,36.93,70.7,35.75,71.09Z"/><path class="cls-9" d="M44.61,78.78c6.19,7.49,15.22,18.45,15.5,18.89,1.72,2.1,3.41,3.16,5.09,3.19s3.36-1.09,5.08-3.19c.28-.44,9.31-11.4,15.5-18.89Z"/><polygon class="cls-10" points="66.38 100.06 64.14 99.16 80.5 58.55 107.53 47.94 108.41 50.18 82.35 60.41 66.38 100.06"/><path class="cls-11" d="M65.2,100.86q2.51,0,5.08-3.19c.4-.63,18.64-22.69,21-25.53H39.13C41.47,75,59.71,97,60.11,97.67,61.83,99.77,63.52,100.83,65.2,100.86Z"/><path class="cls-12" d="M44.61,78.78c6.19,7.49,15.22,18.45,15.5,18.89,1.72,2.1,3.41,3.16,5.09,3.19s3.36-1.09,5.08-3.19c.28-.44,9.31-11.4,15.5-18.89Z"/><polygon class="cls-13" points="61.94 96.06 43.35 73.45 51.09 73.45 61.94 96.06"/><g class="cls-14"><path class="cls-15" d="M62.36,150.13c0-.12.75-.22,1.39-1.25a4.2,4.2,0,0,0,.6-2.07c.06-.86,0-1.9,0-3.05-.11-4.61,0-11,.06-18s.1-13.34-.19-17.9a29.5,29.5,0,0,0-.69-5.3,4.5,4.5,0,0,0-.52-1.31c-.17-.25-.31-.37-.28-.42s.21,0,.5.23a3.75,3.75,0,0,1,.82,1.32,22.12,22.12,0,0,1,1.17,5.39,153.26,153.26,0,0,1,.6,18c-.08,7-.33,13.36-.47,17.95a29.75,29.75,0,0,1-.18,3.14,4.54,4.54,0,0,1-.94,2.3,2.59,2.59,0,0,1-1.29.9C62.56,150.2,62.37,150.17,62.36,150.13Z"/></g><path class="cls-16" d="M109.9,50.18,109,47.94,82,58.55,76.51,72.14H66.46v79.33H80.75a.65.65,0,0,0,.69-.54.61.61,0,0,0-.6-.61l-9.16-1A3.61,3.61,0,0,1,68.21,146V110.24a18.3,18.3,0,0,1,4.2-11.65l21.9-26.45H79.11l4.72-11.72Z"/><path class="cls-3" d="M156.54,72.14l-21.9,26.45a18.29,18.29,0,0,0-4.19,11.65V146a3.6,3.6,0,0,0,3.46,3.29l9.16,1a.61.61,0,0,1,.6.61.65.65,0,0,1-.69.54H114.84a.65.65,0,0,1-.69-.54.62.62,0,0,1,.6-.61l9.16-1a3.61,3.61,0,0,0,3.47-3.29V110.24a18.3,18.3,0,0,0-4.2-11.65l-21.9-26.45Z"/><path class="cls-4" d="M155,72.14C152.64,75,134.4,97,134,97.67q-2.58,3.15-5.09,3.19c-1.67,0-3.37-1.09-5.08-3.19-.41-.63-18.64-22.69-21-25.53Z"/><path class="cls-5" d="M114.75,150.32l9.16-1a3.61,3.61,0,0,0,3.47-3.29V110.24a18.3,18.3,0,0,0-4.2-11.65l-21.9-26.45h1.57c2.34,2.84,20.57,24.9,21,25.53,1.71,2.1,3.41,3.16,5.08,3.19s3.37-1.09,5.09-3.19c.4-.63,18.64-22.69,21-25.53h1.56l-21.9,26.45a18.29,18.29,0,0,0-4.19,11.65V146a3.6,3.6,0,0,0,3.46,3.29l9.16,1a.61.61,0,0,1,.6.61.65.65,0,0,1-.69.54H114.84a.65.65,0,0,1-.69-.54A.62.62,0,0,1,114.75,150.32Z"/><path class="cls-6" d="M151.62,55a15.88,15.88,0,1,1-2.83,26.51l.94-1.14a15.4,15.4,0,1,0-.89-.8l-1,1.15A15.86,15.86,0,0,1,151.62,55Z"/><path class="cls-7" d="M145.93,75.68a14.4,14.4,0,0,0,2.91,3.9l1.56-1.89c-1.82,1-2.92-.44-3.82-2.21-1.1-2.18-1.65-4.55,1.87-5,3.68-.34,8.12-1.48,8.68-.36.22.44-.2,1.14-.94,2h.35l-1.83,2.22h0l-5,6a14.39,14.39,0,1,0-3.8-4.7Zm23.39-7.92c-3.68.35-8.12,1.48-8.68.37s2.94-3.87,5.4-6.51c2.64-2.63,4-1,5.15,1.18S172.84,67.35,169.32,67.76Zm-2.08,7.79c-2.85-2.36-6.79-4.7-6.4-5.88s4.81-.66,8.41-.79,3.58,2.15,2.81,4.47S170,77.74,167.24,75.55Zm-7.35-4.66c1.11-.56,3.87,2.94,6.51,5.4,2.63,2.64,1,4-1.18,5.15s-4.54,1.65-5-1.87S158.78,71.45,159.89,70.89Zm-1.26-12.12c0-3.73,2.15-3.57,4.47-2.81s4.39,2,2.19,4.83c-2.36,2.84-4.69,6.78-5.88,6.4S158.75,62.37,158.63,58.77Zm-.27,12.32c1.18.39.66,4.81.78,8.42s-2.15,3.57-4.47,2.81-4.39-2-2.19-4.83C154.84,74.64,157.17,70.7,158.36,71.09Zm-7-9.1c-2.63-2.65-1-4.05,1.18-5.15s4.54-1.66,5,1.86c.34,3.68,1.48,8.12.37,8.68S154,64.45,151.37,62Zm-5.66,2.93c.76-2.32,2-4.38,4.82-2.19,2.85,2.36,6.79,4.7,6.4,5.88s-4.81.66-8.41.78S144.94,67.24,145.71,64.92Z"/><path class="cls-8" d="M145.71,64.92c.76-2.32,2-4.38,4.82-2.19,2.85,2.36,6.79,4.7,6.4,5.88s-4.81.66-8.41.78S144.94,67.24,145.71,64.92Z"/><path class="cls-8" d="M150.4,77.69c-1.82,1-2.92-.44-3.82-2.21-1.1-2.18-1.65-4.55,1.87-5,3.68-.34,8.12-1.48,8.68-.36.22.44-.2,1.14-.94,2H155Z"/><path class="cls-8" d="M159.89,70.89c1.11-.56,3.87,2.94,6.51,5.4,2.63,2.64,1,4-1.18,5.15s-4.54,1.65-5-1.87S158.78,71.45,159.89,70.89Z"/><path class="cls-8" d="M160.84,69.67c.39-1.19,4.81-.66,8.41-.79s3.58,2.15,2.81,4.47-2,4.39-4.82,2.2C164.39,73.19,160.45,70.85,160.84,69.67Z"/><path class="cls-8" d="M169.32,67.76c-3.68.35-8.12,1.48-8.68.37s2.94-3.87,5.4-6.51c2.64-2.63,4-1,5.15,1.18S172.84,67.35,169.32,67.76Z"/><path class="cls-8" d="M158.63,58.77c0-3.73,2.15-3.57,4.47-2.81s4.39,2,2.19,4.83c-2.36,2.84-4.69,6.78-5.88,6.4S158.75,62.37,158.63,58.77Z"/><path class="cls-8" d="M151.37,62c-2.63-2.65-1-4.05,1.18-5.15s4.54-1.66,5,1.86c.34,3.68,1.48,8.12.37,8.68S154,64.45,151.37,62Z"/><path class="cls-8" d="M158.36,71.09c1.18.39.66,4.81.78,8.42s-2.15,3.57-4.47,2.81-4.39-2-2.19-4.83C154.84,74.64,157.17,70.7,158.36,71.09Z"/><path class="cls-17" d="M149.5,78.78c-6.19,7.49-15.22,18.45-15.5,18.89q-2.58,3.15-5.09,3.19c-1.67,0-3.37-1.09-5.08-3.19-.29-.44-9.31-11.4-15.51-18.89Z"/><polygon class="cls-10" points="127.73 100.06 129.97 99.16 113.61 58.55 86.58 47.94 85.69 50.18 111.76 60.41 127.73 100.06"/><path class="cls-11" d="M128.91,100.86c-1.67,0-3.37-1.09-5.08-3.19-.41-.63-18.64-22.69-21-25.53H155C152.64,75,134.4,97,134,97.67Q131.42,100.82,128.91,100.86Z"/><path class="cls-18" d="M149.5,78.78c-6.19,7.49-15.22,18.45-15.5,18.89q-2.58,3.15-5.09,3.19c-1.67,0-3.37-1.09-5.08-3.19-.29-.44-9.31-11.4-15.51-18.89Z"/><polygon class="cls-13" points="132.17 96.06 150.76 73.45 143.02 73.45 132.17 96.06"/><g class="cls-14"><path class="cls-15" d="M131.74,150.13c0-.12-.74-.22-1.39-1.25a4.3,4.3,0,0,1-.59-2.07c-.06-.86,0-1.9,0-3.05.11-4.61,0-11-.06-18s-.1-13.34.19-17.9a29.5,29.5,0,0,1,.69-5.3,4.5,4.5,0,0,1,.52-1.31c.17-.25.31-.37.28-.42s-.21,0-.5.23a3.61,3.61,0,0,0-.82,1.32,21.66,21.66,0,0,0-1.17,5.39,151.1,151.1,0,0,0-.6,18c.08,7,.32,13.36.47,17.95a29.75,29.75,0,0,0,.18,3.14,4.45,4.45,0,0,0,.94,2.3,2.59,2.59,0,0,0,1.29.9C131.55,150.2,131.74,150.17,131.74,150.13Z"/></g><path class="cls-16" d="M84.21,50.18l.88-2.24,27,10.61,5.48,13.59h10v79.33H113.36a.66.66,0,0,1-.7-.54.63.63,0,0,1,.6-.61l9.17-1a3.6,3.6,0,0,0,3.46-3.29V110.24a18.29,18.29,0,0,0-4.19-11.65L99.8,72.14H115l-4.73-11.72Z"/></g></g></g></svg>