<svg xmlns="http://www.w3.org/2000/svg" xmlns:xlink="http://www.w3.org/1999/xlink" viewBox="0 0 188.32 188.32"><defs><style>.cls-1{isolation:isolate;}.cls-2{fill:#f6bec8;}.cls-3,.cls-5{fill:#c5e3e2;}.cls-11,.cls-4{fill:#dcfaf9;}.cls-11,.cls-12,.cls-5{mix-blend-mode:multiply;}.cls-6{fill:#f39200;}.cls-7{fill:#ffe4b5;}.cls-8{fill:#ffab14;}.cls-12,.cls-9{fill:url(#linear-gradient);}.cls-10{fill:#e6332a;}.cls-11,.cls-13,.cls-14{opacity:0.5;}.cls-12{opacity:0.28;}.cls-13,.cls-15{fill:#fff;}.cls-16{fill:#1d1d1b;opacity:0.05;}</style><linearGradient id="linear-gradient" x1="94.84" y1="104.16" x2="94.84" y2="67.63" gradientUnits="userSpaceOnUse"><stop offset="0" stop-color="#00b036"/><stop offset="1" stop-color="#4bff00"/></linearGradient></defs><title>softOne</title><g class="cls-1"><g id="Capa_2" data-name="Capa 2"><g id="Layer_5" data-name="Layer 5"><circle class="cls-2" cx="94.16" cy="94.16" r="94.16" transform="translate(-39 94.16) rotate(-45)"/><path class="cls-3" d="M59.68,67.63l27.86,33.64a23.25,23.25,0,0,1,5.34,14.82v45.48c0,2.1-1.88,3.89-4.4,4.18l-11.66,1.34a.79.79,0,0,0-.77.78.85.85,0,0,0,.89.68h35.79a.85.85,0,0,0,.89-.68.78.78,0,0,0-.77-.78l-11.66-1.34c-2.52-.29-4.4-2.08-4.4-4.18V116.09a23.25,23.25,0,0,1,5.34-14.82L130,67.63Z"/><path class="cls-4" d="M61.68,67.63c3,3.6,26.17,31.67,26.69,32.48q3.27,4,6.47,4c2.12,0,4.28-1.38,6.46-4,.52-.81,23.72-28.88,26.7-32.48Z"/><path class="cls-5" d="M112.85,167.09l-11.66-1.34c-2.52-.29-4.4-2.08-4.4-4.18V116.09a23.25,23.25,0,0,1,5.34-14.82L130,67.63h-2c-3,3.6-26.18,31.67-26.7,32.48-2.18,2.67-4.34,4-6.46,4s-4.29-1.38-6.47-4c-.52-.81-23.72-28.88-26.69-32.48h-2l27.86,33.64a23.25,23.25,0,0,1,5.34,14.82v45.48c0,2.1-1.88,3.89-4.4,4.18l-11.66,1.34a.79.79,0,0,0-.77.78.85.85,0,0,0,.89.68h35.79a.85.85,0,0,0,.89-.68A.78.78,0,0,0,112.85,167.09Z"/><path class="cls-6" d="M65.94,45.83a20.21,20.21,0,1,0,3.61,33.72L68.34,78.1a18.39,18.39,0,1,1,1.15-1l1.2,1.46a20.18,20.18,0,0,0-4.75-32.72Z"/><path class="cls-7" d="M65.09,47.52A18.32,18.32,0,1,0,68.34,78.1L62,70.45h0l-2.34-2.82h.46c-.94-1.08-1.49-2-1.21-2.54.72-1.42,6.37,0,11.05.46,4.48.54,3.77,3.55,2.37,6.32-1.14,2.26-2.54,4.06-4.85,2.82l2,2.4a18.28,18.28,0,0,0-4.4-29.57Zm-24,8.22c1.41-2.77,3.19-4.84,6.56-1.49,3.13,3.35,7.58,6.86,6.86,8.27s-6.36,0-11-.46C39,61.53,39.65,58.52,41.05,55.74ZM39.94,69.17c-1-3-1.18-5.68,3.57-5.69,4.59.16,10.21-.51,10.71,1S49.7,69,46.08,72C42.54,74.75,40.91,72.12,39.94,69.17Zm15,7.91c-.53,4.48-3.54,3.78-6.31,2.38s-4.85-3.19-1.5-6.56C50.5,69.77,54,65.32,55.42,66S55.39,72.4,55,77.08ZM56,61.32c-1.5.5-4.48-4.52-7.48-8.14C45.76,49.64,48.39,48,51.34,47S57,45.87,57,50.61C56.87,55.2,57.54,60.83,56,61.32Zm8.83,13.11c2.79,3.54.16,5.17-2.79,6.14S56.39,81.75,56.38,77c.16-4.59-.51-10.22,1-10.71S61.86,70.81,64.86,74.43ZM58,61.57c-1.42-.71,0-6.36.46-11,.53-4.48,3.54-3.78,6.32-2.37s4.84,3.18,1.49,6.55C62.91,57.84,59.4,62.29,58,61.57ZM69.9,64.13c-4.59-.16-10.22.51-10.71-1s4.52-4.48,8.14-7.48c3.54-2.79,5.17-.16,6.14,2.79S74.64,64.12,69.9,64.13Z"/><path class="cls-8" d="M73.47,58.44c-1-2.95-2.6-5.58-6.14-2.79-3.62,3-8.64,6-8.14,7.48s6.12.84,10.71,1C74.64,64.12,74.44,61.39,73.47,58.44Z"/><path class="cls-8" d="M67.5,74.69c2.31,1.24,3.71-.56,4.85-2.82,1.4-2.77,2.11-5.78-2.37-6.32-4.68-.43-10.33-1.88-11.05-.46-.28.56.27,1.46,1.21,2.54h1.54Z"/><path class="cls-8" d="M55.42,66c-1.41-.72-4.92,3.73-8.28,6.86-3.35,3.37-1.27,5.15,1.5,6.56s5.78,2.1,6.31-2.38C55.39,72.4,56.84,66.75,55.42,66Z"/><path class="cls-8" d="M54.22,64.48c-.5-1.51-6.12-.84-10.71-1-4.75,0-4.54,2.74-3.57,5.69s2.6,5.58,6.14,2.79C49.7,69,54.71,66,54.22,64.48Z"/><path class="cls-8" d="M43.43,62.06c4.68.43,10.33,1.88,11,.46s-3.73-4.92-6.86-8.27c-3.37-3.35-5.15-1.28-6.56,1.49S39,61.53,43.43,62.06Z"/><path class="cls-8" d="M57,50.61c0-4.74-2.74-4.54-5.69-3.57s-5.58,2.6-2.79,6.14c3,3.62,6,8.64,7.48,8.14S56.87,55.2,57,50.61Z"/><path class="cls-8" d="M66.26,54.71c3.35-3.37,1.28-5.15-1.49-6.55S59,46.05,58.45,50.53c-.44,4.68-1.88,10.33-.46,11S62.91,57.84,66.26,54.71Z"/><path class="cls-8" d="M57.37,66.29c-1.5.49-.83,6.12-1,10.71,0,4.75,2.74,4.54,5.69,3.57s5.58-2.6,2.79-6.14C61.86,70.81,58.88,65.79,57.37,66.29Z"/><path class="cls-9" d="M68.65,76.07c7.87,9.54,19.36,23.47,19.72,24q3.27,4,6.47,4c2.12,0,4.28-1.38,6.46-4,.36-.57,11.85-14.5,19.73-24Z"/><polygon class="cls-10" points="96.34 103.14 93.49 101.99 114.31 50.34 148.69 36.84 149.81 39.69 116.66 52.71 96.34 103.14"/><path class="cls-11" d="M94.84,104.16c2.12,0,4.28-1.38,6.46-4,.52-.81,23.72-28.88,26.7-32.48H61.68c3,3.6,26.17,31.67,26.69,32.48Q91.64,104.12,94.84,104.16Z"/><path class="cls-12" d="M68.65,76.07c7.87,9.54,19.36,23.47,19.72,24q3.27,4,6.47,4c2.12,0,4.28-1.38,6.46-4,.36-.57,11.85-14.5,19.73-24Z"/><polygon class="cls-13" points="90.7 98.06 67.05 69.29 76.89 69.29 90.7 98.06"/><g class="cls-14"><path class="cls-15" d="M91.23,166.85c-.06-.17,1-.29,1.77-1.6a5.36,5.36,0,0,0,.76-2.63c.08-1.09,0-2.42,0-3.89-.14-5.86,0-13.94.07-22.85s.13-17-.23-22.77a38.32,38.32,0,0,0-.88-6.75A6.18,6.18,0,0,0,92,104.7c-.22-.33-.4-.47-.37-.54s.28,0,.64.3a4.44,4.44,0,0,1,1,1.67A28,28,0,0,1,94.82,113a192.29,192.29,0,0,1,.77,22.91c-.1,8.93-.41,17-.6,22.84a37.38,37.38,0,0,1-.23,4,5.79,5.79,0,0,1-1.19,2.92,3.4,3.4,0,0,1-1.64,1.15C91.48,166.94,91.24,166.9,91.23,166.85Z"/></g><path class="cls-16" d="M151.7,39.69l-1.12-2.85-34.39,13.5-7,17.29H96.45V168.55h18.17a.83.83,0,0,0,.88-.68.77.77,0,0,0-.76-.78l-11.66-1.34c-2.53-.29-4.41-2.08-4.41-4.18V116.09A23.25,23.25,0,0,1,104,101.27l27.86-33.64H112.53l6-14.92Z"/></g></g></g></svg>