<svg xmlns="http://www.w3.org/2000/svg" xmlns:xlink="http://www.w3.org/1999/xlink" viewBox="0 0 188.32 188.32"><defs><style>.cls-1{fill:#f6bec8;}.cls-2{fill:#c5e3e2;}.cls-3{fill:#dcfaf9;}.cls-4{fill:url(#linear-gradient);}.cls-5,.cls-6{fill:#fff;}.cls-5{opacity:0.5;}.cls-6{opacity:0.7;}.cls-7{fill:#1d1d1b;opacity:0.05;}.cls-8{fill:#f0483c;}.cls-9{fill:#f7a249;}.cls-10{fill:url(#linear-gradient-2);}</style><linearGradient id="linear-gradient" x1="42.55" y1="111.65" x2="90.81" y2="111.65" gradientUnits="userSpaceOnUse"><stop offset="0" stop-color="#f11a00"/><stop offset="0.13" stop-color="#f64100"/><stop offset="0.3" stop-color="#fb6c01"/><stop offset="0.42" stop-color="#fe8701"/><stop offset="0.5" stop-color="#ff9101"/><stop offset="0.57" stop-color="#fe8901"/><stop offset="0.69" stop-color="#fb7301"/><stop offset="0.83" stop-color="#f74f00"/><stop offset="0.99" stop-color="#f11d00"/><stop offset="1" stop-color="#f11a00"/></linearGradient><linearGradient id="linear-gradient-2" x1="102.3" y1="111.65" x2="150.57" y2="111.65" xlink:href="#linear-gradient"/></defs><title>strongTwo</title><g id="Capa_2" data-name="Capa 2"><g id="Layer_5" data-name="Layer 5"><circle class="cls-1" cx="94.16" cy="94.16" r="94.16" transform="translate(-39 94.16) rotate(-45)"/><path class="cls-2" d="M75.6,127.48a24.73,24.73,0,0,0,16.52-27L89.15,80H44.21l-3,20.46a24.73,24.73,0,0,0,16.52,27,9.58,9.58,0,0,1,6.5,9.07v17.83c0,2.61-2.33,4.82-5.45,5.18l-14.45,1.66a1,1,0,0,0-1,1,1,1,0,0,0,1.1.84H88.85a1,1,0,0,0,1.1-.84,1,1,0,0,0-1-1l-14.44-1.66c-3.13-.36-5.46-2.57-5.46-5.18V136.55A9.58,9.58,0,0,1,75.6,127.48Z"/><path class="cls-3" d="M51.79,122.58q14.67,9.38,29.78,0a22.59,22.59,0,0,0,3.58-3.33,23.21,23.21,0,0,0,5.42-18.53L87.57,80H45.79l-3,20.69a23.11,23.11,0,0,0,9,21.86Z"/><path class="cls-4" d="M89.89,96H43.47l-.68,4.68a23.11,23.11,0,0,0,9,21.86q14.67,9.38,29.78,0a22.59,22.59,0,0,0,3.58-3.33,23.21,23.21,0,0,0,5.42-18.53Z"/><path class="cls-5" d="M61.68,123.87a24,24,0,0,1-3.58-3.68,27.53,27.53,0,0,1-5.42-20.47l2.4-18.32H48.45l-2.8,18.72a22,22,0,0,0,5.43,17.95,22.74,22.74,0,0,0,3.57,3.22,30.57,30.57,0,0,0,8.92,3.82C62.94,124.73,62.31,124.31,61.68,123.87Z"/><path class="cls-6" d="M62.05,161.44c0-.16.48-.23,1.17-.63a5.14,5.14,0,0,0,2.06-2.57,14.2,14.2,0,0,0,.5-5.15c0-2.07-.06-4.35-.06-6.74,0-4.8.27-9.13-.1-12.13s-1.2-4.76-.92-4.91,1.56,1.49,2.2,4.7.62,7.57.65,12.34c0,2.39,0,4.67-.08,6.74a13.37,13.37,0,0,1-1,5.68,5.19,5.19,0,0,1-2.95,2.69C62.57,161.72,62,161.53,62.05,161.44Z"/><path class="cls-7" d="M75.6,127.48a24.73,24.73,0,0,0,16.52-27L89.15,80H66.68v83H88.85a1,1,0,0,0,1.1-.84,1,1,0,0,0-1-1l-14.44-1.66c-3.13-.36-5.46-2.57-5.46-5.18V136.55A9.58,9.58,0,0,1,75.6,127.48Z"/><g id="a2j17W"><path class="cls-8" d="M56.81,86.81a14.66,14.66,0,0,1-7.64-21.68c1.21-2.09,2.66-4,4-6,2.63-4,3.13-8.37,2.47-13,0-.29-.27-.73-.06-.87s.57.2.84.37a9.91,9.91,0,0,1,4.66,5.77A13.63,13.63,0,0,1,61.49,54c0,.22-.08.52.11.64s.45-.14.64-.27a9.48,9.48,0,0,0,3.89-5.55,15.66,15.66,0,0,0-1.28-12.38,16.68,16.68,0,0,0-2.39-2.91c-.13-.15-.35-.24-.35-.54a9,9,0,0,1,3.22.92,15.94,15.94,0,0,1,7.61,7.57A27.85,27.85,0,0,1,76,52a12.15,12.15,0,0,1-.77,5l-.25.7c2.88-.36,4.85-4.14,4.87-9.26.22-.11.33.1.46.19a16.08,16.08,0,0,1,6,8A27.35,27.35,0,0,1,86,77.29a18,18,0,0,1-10.28,9.88.57.57,0,0,1-.13,0l-.11.06-.33.13c-.22-.44.22-.44.41-.55A9.75,9.75,0,0,0,78.81,84a8.32,8.32,0,0,0,1.43-5.49A9.53,9.53,0,0,0,79.3,75C78.38,73.08,77,71.45,76,69.59a10.09,10.09,0,0,1-1.1-7.15c0-.15.11-.31,0-.47a1.09,1.09,0,0,0-.17.05,5.8,5.8,0,0,0-3.35,5.15c0,.18.08.4-.12.51s-.35-.05-.51-.15a4.84,4.84,0,0,1-1.23-1.2,7.63,7.63,0,0,1-1.29-3.42,10.18,10.18,0,0,1,1.41-7.26c.32-.52.83-.86,1.28-1.43a9.81,9.81,0,0,0-5.87,4,13.42,13.42,0,0,0-2.27,5.22,13.68,13.68,0,0,0-.12,5c.05.35.4.84.07,1s-.7-.29-1-.51c0,0-.06-.06-.09-.09-1.39-1.2-1.6-2.86-1.68-4.53,0-.47-.12-.42-.39-.22A9.7,9.7,0,0,0,57,66.72a15,15,0,0,0-2.08,6A16.64,16.64,0,0,0,55.69,81a11.71,11.71,0,0,0,4.09,5.52,16.18,16.18,0,0,0,3,1.61c.28.12.11.16,0,.25l-.88-.13c-.11-.25-.29-.22-.48-.1L61,88.05c-.11-.19-.27-.16-.43-.09L60,87.84c-.06-.2-.18-.22-.35-.11l-.52-.12-.14,0-.12,0c0-.07,0-.09-.1,0l-.25-.06a.19.19,0,0,0-.29-.12l-.23,0a.11.11,0,0,0-.16-.07l-.44-.14C57.29,86.84,57,86.85,56.81,86.81Z"/><path class="cls-9" d="M62.78,88.35c.09-.09.26-.13,0-.25a16.18,16.18,0,0,1-3-1.61A11.71,11.71,0,0,1,55.69,81a16.64,16.64,0,0,1-.76-8.25,15,15,0,0,1,2.08-6,9.7,9.7,0,0,1,2.45-2.58c.27-.2.36-.25.39.22.08,1.67.29,3.33,1.68,4.53,0,0,0,.07.09.09.33.22.67.71,1,.51s0-.67-.07-1a13.68,13.68,0,0,1,.12-5A13.42,13.42,0,0,1,65,58.23a9.81,9.81,0,0,1,5.87-4c-.45.57-1,.91-1.28,1.43a10.18,10.18,0,0,0-1.41,7.26,7.63,7.63,0,0,0,1.29,3.42,4.84,4.84,0,0,0,1.23,1.2c.16.1.31.25.51.15s.11-.33.12-.51A5.8,5.8,0,0,1,74.65,62a1.09,1.09,0,0,1,.17-.05c.15.16.08.32,0,.47A10.09,10.09,0,0,0,76,69.59c1,1.86,2.42,3.49,3.34,5.41a9.53,9.53,0,0,1,.94,3.48A8.32,8.32,0,0,1,78.81,84a9.75,9.75,0,0,1-3.21,2.84c-.19.11-.63.11-.41.55a15.51,15.51,0,0,1-3.36,1.15,18.43,18.43,0,0,1-5.29.33A17.78,17.78,0,0,1,62.78,88.35Z"/><path class="cls-9" d="M56.81,86.81c.23,0,.48,0,.63.26A.72.72,0,0,1,56.81,86.81Z"/><path class="cls-9" d="M61.42,88.12c.19-.12.37-.15.48.1A.41.41,0,0,1,61.42,88.12Z"/><path class="cls-9" d="M59.69,87.73c.17-.11.29-.09.35.11A.28.28,0,0,1,59.69,87.73Z"/><path class="cls-9" d="M60.61,88c.16-.07.32-.1.43.09A.34.34,0,0,1,60.61,88Z"/><path class="cls-9" d="M58.27,87.33a.19.19,0,0,1,.29.12A.23.23,0,0,1,58.27,87.33Z"/><path class="cls-9" d="M57.88,87.21a.11.11,0,0,1,.16.07Z"/><path class="cls-9" d="M75.52,87.23l.11-.06Z"/><path class="cls-9" d="M58.81,87.51c0-.07.08-.05.1,0h-.06Z"/><path class="cls-9" d="M59,87.56l.14,0Z"/></g><path class="cls-2" d="M135.35,127.48a24.73,24.73,0,0,0,16.52-27L148.9,80H104l-3,20.46a24.71,24.71,0,0,0,16.51,27,9.58,9.58,0,0,1,6.5,9.07v17.83c0,2.61-2.32,4.82-5.45,5.18l-14.45,1.66a1,1,0,0,0-1,1,1,1,0,0,0,1.1.84H148.6a1,1,0,0,0,1.1-.84,1,1,0,0,0-.94-1l-14.45-1.66c-3.13-.36-5.46-2.57-5.46-5.18V136.55A9.59,9.59,0,0,1,135.35,127.48Z"/><path class="cls-3" d="M111.54,122.58q14.67,9.38,29.79,0a23,23,0,0,0,3.57-3.33,23.22,23.22,0,0,0,5.43-18.53l-3-20.69H105.54l-3,20.69A23.21,23.21,0,0,0,108,119.25,23.49,23.49,0,0,0,111.54,122.58Z"/><path class="cls-10" d="M149.65,96H103.22l-.68,4.68A23.21,23.21,0,0,0,108,119.25a23.49,23.49,0,0,0,3.58,3.33q14.67,9.38,29.79,0a23,23,0,0,0,3.57-3.33,23.22,23.22,0,0,0,5.43-18.53Z"/><path class="cls-5" d="M121.43,123.87a24,24,0,0,1-3.58-3.68,27.53,27.53,0,0,1-5.42-20.47l2.4-18.32H108.2l-2.8,18.72a22,22,0,0,0,5.43,17.95,22.74,22.74,0,0,0,3.57,3.22,30.57,30.57,0,0,0,8.92,3.82C122.69,124.73,122.06,124.31,121.43,123.87Z"/><path class="cls-6" d="M121.8,161.44c0-.16.48-.23,1.17-.63a5.14,5.14,0,0,0,2.06-2.57,14.17,14.17,0,0,0,.51-5.15c-.05-2.07-.07-4.35-.07-6.74,0-4.8.27-9.13-.1-12.13s-1.2-4.76-.91-4.91,1.55,1.49,2.19,4.7.62,7.57.65,12.34c0,2.39,0,4.67-.08,6.74a13.37,13.37,0,0,1-1,5.68,5.19,5.19,0,0,1-2.95,2.69C122.32,161.72,121.79,161.53,121.8,161.44Z"/><path class="cls-7" d="M135.35,127.48a24.73,24.73,0,0,0,16.52-27L148.9,80H126.43v83H148.6a1,1,0,0,0,1.1-.84,1,1,0,0,0-.94-1l-14.45-1.66c-3.13-.36-5.46-2.57-5.46-5.18V136.55A9.59,9.59,0,0,1,135.35,127.48Z"/><g id="a2j17W-2" data-name="a2j17W"><path class="cls-8" d="M116.56,86.81a14.68,14.68,0,0,1-7.64-21.68c1.22-2.09,2.66-4,4-6,2.63-4,3.13-8.37,2.47-13,0-.29-.27-.73-.06-.87s.58.2.84.37a9.91,9.91,0,0,1,4.66,5.77,12.9,12.9,0,0,1,.42,2.62c0,.22-.08.52.12.64s.44-.14.63-.27a9.44,9.44,0,0,0,3.89-5.55,15.66,15.66,0,0,0-1.28-12.38,16.68,16.68,0,0,0-2.39-2.91c-.13-.15-.35-.24-.35-.54a8.92,8.92,0,0,1,3.22.92,15.94,15.94,0,0,1,7.61,7.57A27.85,27.85,0,0,1,135.79,52a12.15,12.15,0,0,1-.77,5l-.25.7c2.88-.36,4.85-4.14,4.87-9.26.22-.11.33.1.46.19a16.08,16.08,0,0,1,6,8,27.4,27.4,0,0,1-.27,20.62,18,18,0,0,1-10.29,9.88.48.48,0,0,1-.12,0l-.12.06-.33.13c-.22-.44.22-.44.41-.55A9.75,9.75,0,0,0,138.56,84,8.26,8.26,0,0,0,140,78.48a9.53,9.53,0,0,0-.94-3.48c-.92-1.92-2.32-3.55-3.34-5.41a10,10,0,0,1-1.09-7.15c0-.15.1-.31,0-.47a1,1,0,0,0-.18.05,5.8,5.8,0,0,0-3.35,5.15c0,.18.08.4-.12.51s-.35-.05-.5-.15a4.88,4.88,0,0,1-1.24-1.2,7.75,7.75,0,0,1-1.29-3.42,10.13,10.13,0,0,1,1.42-7.26,17,17,0,0,1,1.27-1.43,9.81,9.81,0,0,0-5.87,4,14,14,0,0,0-2.39,10.24c0,.35.4.84.07,1s-.7-.29-1-.51c0,0-.06-.06-.09-.09-1.39-1.2-1.6-2.86-1.68-4.53,0-.47-.12-.42-.39-.22a9.86,9.86,0,0,0-2.45,2.58,15,15,0,0,0-2.08,6,16.64,16.64,0,0,0,.76,8.25,11.77,11.77,0,0,0,4.09,5.52,16.18,16.18,0,0,0,3,1.61c.28.12.11.16,0,.25l-.88-.13c-.11-.25-.29-.22-.48-.1l-.38-.07c-.11-.19-.27-.16-.43-.09l-.56-.12c-.07-.2-.19-.22-.36-.11l-.52-.12-.14,0-.12,0c0-.07,0-.09-.1,0l-.25-.06c0-.15-.16-.17-.29-.12l-.23,0a.11.11,0,0,0-.16-.07l-.43-.14C117,86.84,116.79,86.85,116.56,86.81Z"/><path class="cls-9" d="M122.53,88.35c.09-.09.26-.13,0-.25a16.18,16.18,0,0,1-3-1.61A11.77,11.77,0,0,1,115.44,81a16.64,16.64,0,0,1-.76-8.25,15,15,0,0,1,2.08-6,9.86,9.86,0,0,1,2.45-2.58c.27-.2.37-.25.39.22.08,1.67.29,3.33,1.68,4.53,0,0,0,.07.09.09.33.22.67.71,1,.51s0-.67-.07-1a14,14,0,0,1,2.39-10.24,9.81,9.81,0,0,1,5.87-4,17,17,0,0,0-1.27,1.43,10.13,10.13,0,0,0-1.42,7.26,7.75,7.75,0,0,0,1.29,3.42,4.88,4.88,0,0,0,1.24,1.2c.15.1.3.25.5.15s.11-.33.12-.51A5.8,5.8,0,0,1,134.4,62a1,1,0,0,1,.18-.05c.14.16.07.32,0,.47a10,10,0,0,0,1.09,7.15c1,1.86,2.42,3.49,3.34,5.41a9.53,9.53,0,0,1,.94,3.48A8.26,8.26,0,0,1,138.56,84a9.75,9.75,0,0,1-3.21,2.84c-.19.11-.63.11-.41.55a15.51,15.51,0,0,1-3.36,1.15,18.43,18.43,0,0,1-5.29.33A17.86,17.86,0,0,1,122.53,88.35Z"/><path class="cls-9" d="M116.56,86.81c.23,0,.48,0,.64.26A.74.74,0,0,1,116.56,86.81Z"/><path class="cls-9" d="M121.17,88.12c.19-.12.37-.15.48.1A.41.41,0,0,1,121.17,88.12Z"/><path class="cls-9" d="M119.44,87.73c.17-.11.29-.09.36.11A.28.28,0,0,1,119.44,87.73Z"/><path class="cls-9" d="M120.36,88c.16-.07.32-.1.43.09A.34.34,0,0,1,120.36,88Z"/><path class="cls-9" d="M118,87.33c.13,0,.24,0,.29.12A.23.23,0,0,1,118,87.33Z"/><path class="cls-9" d="M117.63,87.21a.11.11,0,0,1,.16.07Z"/><path class="cls-9" d="M135.27,87.23l.12-.06Z"/><path class="cls-9" d="M118.56,87.51c0-.07.08-.05.1,0h0Z"/><path class="cls-9" d="M118.78,87.56l.14,0Z"/></g></g></g></svg>