<svg xmlns="http://www.w3.org/2000/svg" xmlns:xlink="http://www.w3.org/1999/xlink" viewBox="0 0 188.32 188.32"><defs><style>.cls-1{fill:#f6bec8;}.cls-2{fill:#c5e3e2;}.cls-3{fill:#dcfaf9;}.cls-4{fill:url(#linear-gradient);}.cls-5,.cls-6{fill:#fff;}.cls-5{opacity:0.5;}.cls-6{opacity:0.7;}.cls-7{fill:#1d1d1b;opacity:0.05;}.cls-8{fill:#f0483c;}.cls-9{fill:#f7a249;}</style><linearGradient id="linear-gradient" x1="65.61" y1="109.47" x2="124.63" y2="109.47" gradientUnits="userSpaceOnUse"><stop offset="0" stop-color="#f11a00"/><stop offset="0.13" stop-color="#f64100"/><stop offset="0.3" stop-color="#fb6c01"/><stop offset="0.42" stop-color="#fe8701"/><stop offset="0.5" stop-color="#ff9101"/><stop offset="0.57" stop-color="#fe8901"/><stop offset="0.69" stop-color="#fb7301"/><stop offset="0.83" stop-color="#f74f00"/><stop offset="0.99" stop-color="#f11d00"/><stop offset="1" stop-color="#f11a00"/></linearGradient></defs><title>strongOne</title><g id="Capa_2" data-name="Capa 2"><g id="Layer_5" data-name="Layer 5"><circle class="cls-1" cx="94.16" cy="94.16" r="94.16" transform="translate(-39 94.16) rotate(-45)"/><path class="cls-2" d="M106,128.83a30.2,30.2,0,0,0,20.19-33l-3.62-25H67.65L64,95.83a30.22,30.22,0,0,0,20.2,33,11.7,11.7,0,0,1,7.94,11.09v21.8c0,3.19-2.84,5.89-6.67,6.33l-17.66,2a1.18,1.18,0,0,0-1.16,1.17,1.28,1.28,0,0,0,1.34,1h54.22a1.27,1.27,0,0,0,1.34-1,1.17,1.17,0,0,0-1.15-1.17l-17.67-2c-3.82-.44-6.67-3.14-6.67-6.33v-21.8A11.72,11.72,0,0,1,106,128.83Z"/><path class="cls-3" d="M76.91,122.83q18,11.47,36.42,0a28,28,0,0,0,4.37-4.06,28.4,28.4,0,0,0,6.64-22.66l-3.67-25.3H69.58l-3.67,25.3a28.39,28.39,0,0,0,6.63,22.66A28,28,0,0,0,76.91,122.83Z"/><path class="cls-4" d="M123.51,90.38H66.74l-.83,5.73a28.39,28.39,0,0,0,6.63,22.66,28,28,0,0,0,4.37,4.06q18,11.47,36.42,0a28,28,0,0,0,4.37-4.06,28.4,28.4,0,0,0,6.64-22.66Z"/><path class="cls-5" d="M89,124.41a29.5,29.5,0,0,1-4.37-4.49,33.68,33.68,0,0,1-6.63-25l2.94-22.4H72.83L69.41,95.37A26.91,26.91,0,0,0,76,117.32a27.7,27.7,0,0,0,4.37,3.94,37.34,37.34,0,0,0,10.9,4.67C90.54,125.46,89.77,125,89,124.41Z"/><path class="cls-6" d="M89.45,170.35c0-.19.6-.28,1.44-.78a6.26,6.26,0,0,0,2.52-3.13,17.27,17.27,0,0,0,.61-6.3c0-2.53-.08-5.32-.07-8.25,0-5.86.33-11.15-.13-14.82s-1.46-5.83-1.12-6c.18-.15,1.9,1.82,2.68,5.75s.76,9.26.81,15.09c0,2.92,0,5.71-.1,8.24a16.45,16.45,0,0,1-1.23,6.94,6.36,6.36,0,0,1-3.62,3.29C90.09,170.7,89.44,170.46,89.45,170.35Z"/><path class="cls-7" d="M106,128.83a30.2,30.2,0,0,0,20.19-33l-3.62-25H95.12V172.3h27.11a1.27,1.27,0,0,0,1.34-1,1.17,1.17,0,0,0-1.15-1.17l-17.67-2c-3.82-.44-6.67-3.14-6.67-6.33v-21.8A11.72,11.72,0,0,1,106,128.83Z"/><g id="a2j17W"><path class="cls-8" d="M83.05,79.1c-5.23-2-9.09-5.48-11-10.82a17.91,17.91,0,0,1,1.67-15.69C75.19,50,77,47.67,78.59,45.21c3.22-4.89,3.82-10.24,3-15.88-.06-.37-.33-.9-.08-1.07s.71.25,1,.44a12.16,12.16,0,0,1,5.7,7.07,15.7,15.7,0,0,1,.51,3.2c0,.27-.09.63.14.78s.55-.17.78-.33a11.57,11.57,0,0,0,4.76-6.79c1.43-5.23,1.18-10.32-1.57-15.13A20.8,20.8,0,0,0,90,13.93c-.16-.17-.42-.28-.43-.65a10.77,10.77,0,0,1,3.94,1.13,19.43,19.43,0,0,1,9.3,9.25,34.12,34.12,0,0,1,3.8,12.89,14.84,14.84,0,0,1-.95,6.15c-.09.28-.19.55-.3.85,3.52-.44,5.93-5.06,6-11.32.27-.14.41.12.57.24a19.77,19.77,0,0,1,7.3,9.78c3,8.43,3.19,16.88-.34,25.21a22.08,22.08,0,0,1-12.58,12.08.38.38,0,0,1-.15,0l-.14.07-.41.17c-.26-.54.27-.55.51-.69A11.86,11.86,0,0,0,110,75.63a10.17,10.17,0,0,0,1.75-6.72,11.63,11.63,0,0,0-1.15-4.25c-1.12-2.35-2.83-4.34-4.08-6.62a12.28,12.28,0,0,1-1.34-8.74c0-.18.13-.38,0-.57a.73.73,0,0,0-.21.06,7.08,7.08,0,0,0-4.1,6.3c0,.21.1.48-.15.61s-.43-.05-.62-.18a6,6,0,0,1-1.51-1.46,9.52,9.52,0,0,1-1.58-4.18A12.42,12.42,0,0,1,98.65,41a18.1,18.1,0,0,1,1.56-1.75A11.93,11.93,0,0,0,93,44.16a16.45,16.45,0,0,0-2.78,6.38,17.08,17.08,0,0,0-.15,6.13c.07.43.5,1,.09,1.25s-.86-.35-1.26-.62a1.14,1.14,0,0,1-.11-.11c-1.7-1.47-1.95-3.5-2-5.54,0-.58-.14-.52-.47-.27a11.87,11.87,0,0,0-3,3.15,18.53,18.53,0,0,0-2.54,7.34A20.35,20.35,0,0,0,81.68,72a14.43,14.43,0,0,0,5,6.75,19.74,19.74,0,0,0,3.65,2c.33.16.13.2,0,.31l-1.07-.16c-.14-.31-.36-.27-.59-.12l-.47-.08c-.13-.23-.32-.2-.53-.12L87,80.36c-.09-.24-.23-.28-.44-.13l-.64-.16L85.77,80l-.15,0c0-.08-.06-.11-.12,0l-.31-.07c-.07-.18-.19-.21-.36-.14l-.27-.07a.14.14,0,0,0-.2-.08l-.53-.17C83.64,79.14,83.33,79.15,83.05,79.1Z"/><path class="cls-9" d="M90.35,81c.11-.11.31-.15,0-.31a19.74,19.74,0,0,1-3.65-2,14.43,14.43,0,0,1-5-6.75,20.35,20.35,0,0,1-.93-10.09,18.53,18.53,0,0,1,2.54-7.34,11.87,11.87,0,0,1,3-3.15c.33-.25.44-.31.47.27.1,2,.35,4.07,2,5.54a1.14,1.14,0,0,0,.11.11c.4.27.82.87,1.26.62s0-.82-.09-1.25a17.08,17.08,0,0,1,.15-6.13A16.45,16.45,0,0,1,93,44.16a11.93,11.93,0,0,1,7.18-4.91A18.1,18.1,0,0,0,98.65,41a12.42,12.42,0,0,0-1.74,8.88,9.52,9.52,0,0,0,1.58,4.18A6,6,0,0,0,100,55.52c.19.13.38.31.62.18s.14-.4.15-.61a7.08,7.08,0,0,1,4.1-6.3.73.73,0,0,1,.21-.06c.18.19.09.39,0,.57A12.28,12.28,0,0,0,106.47,58c1.25,2.28,3,4.27,4.08,6.62a11.63,11.63,0,0,1,1.15,4.25A10.17,10.17,0,0,1,110,75.63,11.86,11.86,0,0,1,106,79.09c-.24.14-.77.15-.51.69a19.85,19.85,0,0,1-4.1,1.4,23.06,23.06,0,0,1-6.47.41A22.41,22.41,0,0,1,90.35,81Z"/><path class="cls-9" d="M83.05,79.1c.28.05.59,0,.78.32A.92.92,0,0,1,83.05,79.1Z"/><path class="cls-9" d="M88.69,80.7c.23-.15.45-.19.59.12A.52.52,0,0,1,88.69,80.7Z"/><path class="cls-9" d="M86.57,80.23c.21-.15.35-.11.44.13A.36.36,0,0,1,86.57,80.23Z"/><path class="cls-9" d="M87.69,80.5c.21-.08.4-.11.53.12A.41.41,0,0,1,87.69,80.5Z"/><path class="cls-9" d="M84.83,79.74c.17-.07.29,0,.36.14C85,80,84.92,79.86,84.83,79.74Z"/><path class="cls-9" d="M84.36,79.59a.14.14,0,0,1,.2.08Z"/><path class="cls-9" d="M105.93,79.61l.14-.07Z"/><path class="cls-9" d="M85.5,80c.06-.08.09,0,.12,0h-.07Z"/><path class="cls-9" d="M85.77,80l.16.06Z"/></g></g></g></svg>