<svg xmlns="http://www.w3.org/2000/svg" viewBox="0 0 188.32 188.32"><defs><style>.cls-1{fill:#f6bec8;}.cls-2{fill:#3c8713;}</style></defs><title>truth</title><g id="Capa_2" data-name="Capa 2"><g id="Layer_5" data-name="Layer 5"><circle class="cls-1" cx="94.16" cy="94.16" r="94.16" transform="translate(-39 94.16) rotate(-45)"/><g id="v5j5h6.tif"><path class="cls-2" d="M161,62.16a11.43,11.43,0,0,1-3.15,4.44Q128.64,95.73,99.5,124.89c-1.66,1.65-3.5,2.84-5.87,2.24a7.62,7.62,0,0,1-3.4-1.83Q74.39,109.64,58.7,93.84c-2.69-2.71-2.64-6.12,0-8.85q3.8-3.87,7.66-7.66c2.83-2.79,6.18-2.77,9,.06q9.09,9,18.13,18.12a12.3,12.3,0,0,1,.9,1.14l1.17-1.11Q118.82,72.35,142,49.16c1.66-1.67,3.53-2.79,5.89-2.15a8,8,0,0,1,3.29,1.82c2.67,2.48,5.25,5.08,7.75,7.73a19,19,0,0,1,2,3.2Z"/><path class="cls-2" d="M122,42c2.29.56,4.61,1,6.84,1.71s2.61,2.67.93,4.38c-1,1-2,2-3.07,3.06a2.8,2.8,0,0,1-2.84.81,18,18,0,0,0-3.81-.38c-20.07,0-40.13,0-60.19,0-5.25,0-9.08,2.2-11.51,6.83a12.15,12.15,0,0,0-1.14,5.72q0,30.15,0,60.29c0,5.17,2.21,9.09,6.88,11.33a13,13,0,0,0,5.34,1.12q30.51.11,61,0c7.17,0,12.12-5.1,12.16-12.27q0-8.73,0-17.45a4,4,0,0,1,1.32-3.2c1.32-1.24,2.57-2.54,3.85-3.82a2.49,2.49,0,0,1,2.92-.75,2.38,2.38,0,0,1,1.43,2.54c0,8.22.08,16.44-.12,24.66-.25,9.76-8.69,18.6-18.43,19.63a31.55,31.55,0,0,1-3.36.2H59.59c-8.42,0-14.76-3.72-19.14-10.83a18.69,18.69,0,0,1-2.72-9.48c-.09-3.85,0-7.71,0-11.56,0-16.92,0-33.85,0-50.78,0-9.33,4.51-15.94,12.82-19.9,2.18-1,4.76-1.27,7.15-1.87Z"/></g></g></g></svg>