<svg xmlns="http://www.w3.org/2000/svg" xmlns:xlink="http://www.w3.org/1999/xlink" viewBox="0 0 188.32 188.32"><defs><style>.cls-1{isolation:isolate;}.cls-2{fill:#f6bec8;}.cls-28,.cls-3{fill:#c5e3e2;}.cls-27,.cls-4{fill:#dadada;}.cls-4,.cls-6{mix-blend-mode:overlay;}.cls-5{fill:url(#linear-gradient);}.cls-26,.cls-29,.cls-7{fill:#fff;}.cls-8{fill:#ededed;}.cls-9{fill:#eee;}.cls-10{fill:#efefef;}.cls-11{fill:#f0f0f0;}.cls-12{fill:#f1f1f1;}.cls-13{fill:#f2f2f2;}.cls-14{fill:#f3f3f3;}.cls-15{fill:#f4f4f4;}.cls-16{fill:#f5f5f5;}.cls-17{fill:#f6f6f6;}.cls-18{fill:#f7f7f7;}.cls-19{fill:#f8f8f8;}.cls-20{fill:#f9f9f9;}.cls-21{fill:#fafafa;}.cls-22{fill:#fbfbfb;}.cls-23{fill:#fcfcfc;}.cls-24{fill:#fdfdfd;}.cls-25{fill:#fefefe;}.cls-26,.cls-28{opacity:0.5;}.cls-27{opacity:0.3;}.cls-27,.cls-28{mix-blend-mode:multiply;}.cls-29{opacity:0.6;}.cls-30{fill:#1d1d1b;opacity:0.05;}.cls-31{fill:url(#linear-gradient-2);}</style><linearGradient id="linear-gradient" x1="45.08" y1="100.5" x2="91.67" y2="98.88" gradientUnits="userSpaceOnUse"><stop offset="0" stop-color="#f39200"/><stop offset="0.07" stop-color="#f5a804"/><stop offset="0.19" stop-color="#f9cc0b"/><stop offset="0.29" stop-color="#fbe20f"/><stop offset="0.35" stop-color="#fcea10"/><stop offset="0.52" stop-color="#fad70d"/><stop offset="0.87" stop-color="#f5a704"/><stop offset="1" stop-color="#f39200"/></linearGradient><linearGradient id="linear-gradient-2" x1="101.81" y1="100.5" x2="148.4" y2="98.88" xlink:href="#linear-gradient"/></defs><title>two</title><g class="cls-1"><g id="Capa_2" data-name="Capa 2"><g id="Layer_5" data-name="Layer 5"><circle class="cls-2" cx="94.16" cy="94.16" r="94.16" transform="translate(-39 94.16) rotate(-45)"/><path class="cls-3" d="M44.16,48.84c-5.5,50.9,8.24,59.33,6.67,100.18a1.23,1.23,0,0,0,1.22,1.28H82.71A1.24,1.24,0,0,0,83.94,149C82.36,108.17,96.1,99.74,90.6,48.84Z"/><path class="cls-4" d="M45.47,48.84c-3.09,28.41-.12,43.68,2.76,58.46,2.09,10.74,6.87,19.18,7.57,30.45a1.89,1.89,0,0,0,2.43,1.68,43.75,43.75,0,0,1,9.15-1.18,43.75,43.75,0,0,1,9.15,1.18A1.89,1.89,0,0,0,79,137.75c.7-11.27,5.49-19.71,7.58-30.45,2.87-14.78,5.85-30,2.76-58.46Z"/><path class="cls-5" d="M44.49,60.4c-1.25,21.27,1.28,34.27,3.74,46.9,2.09,10.74,6.87,19.18,7.57,30.45a1.89,1.89,0,0,0,2.43,1.68,43.75,43.75,0,0,1,9.15-1.18,43.75,43.75,0,0,1,9.15,1.18A1.89,1.89,0,0,0,79,137.75c.7-11.27,5.49-19.71,7.58-30.45,2.46-12.63,5-25.63,3.73-46.9Z"/><g class="cls-6"><path class="cls-7" d="M79.94,96.57a1.59,1.59,0,1,1-1.78,2.58,1.77,1.77,0,0,0,1.57,1,1.78,1.78,0,0,0,.21-3.54Z"/></g><g class="cls-6"><path class="cls-7" d="M66.05,112.24a.84.84,0,0,1,.47.75.83.83,0,0,1-.82.83.81.81,0,0,1-.58-.24.92.92,0,0,0,1.74-.42A.93.93,0,0,0,66.05,112.24Z"/></g><g class="cls-6"><path class="cls-7" d="M64.59,101.39a1.8,1.8,0,1,1-2,2.92,2,2,0,1,0,2-2.92Z"/></g><g class="cls-6"><path class="cls-7" d="M73.24,95a1.26,1.26,0,1,1-1.41,2,1.4,1.4,0,1,0,1.41-2Z"/></g><g class="cls-6"><path class="cls-7" d="M60.2,75.68a1.1,1.1,0,0,1-.46,2.09,1.07,1.07,0,0,1-.76-.31,1.22,1.22,0,1,0,1.22-1.78Z"/></g><g class="cls-6"><path class="cls-7" d="M62.57,89.26A.79.79,0,0,1,63,90a.8.8,0,0,1-.8.8.79.79,0,0,1-.55-.23.88.88,0,0,0,1.67-.41A.88.88,0,0,0,62.57,89.26Z"/></g><g class="cls-6"><path class="cls-7" d="M55.44,82.83a1.31,1.31,0,0,1-.55,2.49A1.28,1.28,0,0,1,54,85a1.45,1.45,0,1,0,1.46-2.12Z"/></g><path class="cls-8" d="M85.77,60.86a10,10,0,0,1,4.1.09,13.31,13.31,0,0,0,.13-5.3c-.25-2.21-.49-4.41-.74-6.61A1.45,1.45,0,0,0,91,47.76a2.06,2.06,0,0,0-1.3-1.95,2.86,2.86,0,0,0-2.88-3.56,3,3,0,0,0-1-3.16,3,3,0,0,0-3.31-.18,4,4,0,0,0-6.63-.29c-.43-2.64-6.2-3.13-6.94-.4-1.36-3-6.1-2.27-6,1.2-1.14-4.82-8.2-2.83-8.42.65-1.79-2-5-.91-6.77,1.12-3-1.54-5.6,2.79-3.6,4.58-3,.92-1,3.83-.38,3.58s1.4-.9,1.76-.37q-.6,5.07-1.19,10.14a1.39,1.39,0,0,0,.08.88c.24.44.83.52,1.33.54a39.59,39.59,0,0,0,5.66,0,8,8,0,0,1,1.69-.09c.67.07,1.3.33,2,.39,1.3.13,2.6-.5,3.89-.31s2.41,1.1,3.62.8c.54-.13,1-.48,1.52-.63,1-.3,2.12.25,3.19.41,2.26.34,4.56-1.06,6.78-.53.42.1.82.27,1.24.33,1.19.16,2.43-.53,3.57-.18.62.19,1.19.67,1.82.54s1.09-1,1.78-1.08,1.42.82,2.23.91A3.13,3.13,0,0,0,85.77,60.86Z"/><path class="cls-9" d="M48.34,41.52c-2.86-1.45-5.33,2.67-3.43,4.39-2.83.88-.93,3.65-.37,3.43s1.32-.84,1.66-.33c-.38,3.25-.76,6.5-1.11,9.73a1.44,1.44,0,0,0,.08.85c.24.43.81.51,1.3.53a39.2,39.2,0,0,0,4.6.07l.93-.08A9.13,9.13,0,0,1,53.65,60c.65.06,1.27.31,1.91.37,1.28.12,2.54-.47,3.81-.29s2.35,1,3.54.76c.52-.12,1-.46,1.47-.6,1-.28,2,.23,3.07.39a5.39,5.39,0,0,0,1.39,0c1.73-.17,3.46-.9,5.15-.5.4.09.79.25,1.2.31,1.15.15,2.33-.5,3.44-.17.59.18,1.15.64,1.75.51s1.05-.92,1.72-1,1.37.77,2.15.85a2.72,2.72,0,0,0,1-.17,3,3,0,0,1,.41-.09,11,11,0,0,1,3.53.14,8.18,8.18,0,0,0,.34-2.25,22.75,22.75,0,0,0-.17-2.86Q89,52.21,88.66,49a1.38,1.38,0,0,0,1.64-1.25A2,2,0,0,0,89,45.91a2.8,2.8,0,0,0-2.8-3.43,2.85,2.85,0,0,0-4.19-3.21A3.88,3.88,0,0,0,75.66,39c-.38-2.21-4.73-2.85-6.25-1.18a1.91,1.91,0,0,0-.45.78c-1.32-2.86-5.87-2.15-5.78,1.14A3.57,3.57,0,0,0,59,37.06c-2,.25-3.88,1.58-4,3.31a2.93,2.93,0,0,0-1.14-.76,4.07,4.07,0,0,0-2.75.07A6.34,6.34,0,0,0,48.34,41.52Z"/><path class="cls-10" d="M48.91,41.84c-2.72-1.35-5.06,2.56-3.28,4.2-2.67.85-.88,3.48-.35,3.28s1.24-.77,1.56-.28c-.37,3.11-.72,6.23-1,9.33a1.4,1.4,0,0,0,.08.81c.23.42.79.5,1.26.53a33.77,33.77,0,0,0,4.5.09l.9-.06a8,8,0,0,1,1.62-.08c.63.06,1.23.29,1.87.35,1.24.12,2.48-.44,3.72-.27s2.3,1,3.46.72c.5-.12.92-.44,1.42-.57,1-.27,2,.22,3,.37a5.38,5.38,0,0,0,1.33,0c1.66-.16,3.33-.85,5-.47.39.09.76.24,1.16.3,1.1.15,2.24-.47,3.31-.15.57.17,1.1.6,1.69.48s1-.88,1.66-1,1.32.73,2.07.8a2.72,2.72,0,0,0,1-.17l.4-.09a11.28,11.28,0,0,1,3.38.11A7.56,7.56,0,0,0,88.88,58a21.42,21.42,0,0,0-.14-2.77c-.2-2-.42-4.12-.67-6.17a1.3,1.3,0,0,0,1.52-1.22A2,2,0,0,0,88.36,46a2.72,2.72,0,0,0-2.71-3.29,2.81,2.81,0,0,0-1-2.87,2.84,2.84,0,0,0-3.05-.21,3.85,3.85,0,0,0-3-1.74,3.79,3.79,0,0,0-3.14,1.44c-.4-2.1-4.54-2.71-6-1.14a1.9,1.9,0,0,0-.43.74c-1.29-2.7-5.65-2-5.6,1.07a3.5,3.5,0,0,0-4.12-2.48c-1.92.23-3.76,1.49-4,3.14A2.89,2.89,0,0,0,54.2,40a4,4,0,0,0-2.67.1A6.26,6.26,0,0,0,48.91,41.84Z"/><path class="cls-11" d="M49.48,42.16c-2.58-1.25-4.79,2.45-3.12,4-2.52.81-.83,3.3-.34,3.13s1.16-.71,1.46-.24c-.35,3-.69,6-.95,8.92a1.43,1.43,0,0,0,.08.77,1.47,1.47,0,0,0,1.23.54,30.45,30.45,0,0,0,4.38.12c.3,0,.59,0,.89-.06a8.26,8.26,0,0,1,1.57-.07c.62.06,1.21.28,1.83.33,1.22.11,2.43-.42,3.63-.25s2.26.93,3.4.67c.47-.1.88-.41,1.35-.53.94-.25,1.89.21,2.85.35a5.48,5.48,0,0,0,1.28,0c1.6-.15,3.2-.79,4.77-.43.37.08.73.22,1.11.27,1.06.15,2.16-.43,3.18-.13.55.16,1.07.57,1.63.45s1-.82,1.6-.91,1.27.68,2,.75a2.66,2.66,0,0,0,.92-.16l.39-.09a11.42,11.42,0,0,1,3.25.07,7.32,7.32,0,0,0,.36-2.07A21.78,21.78,0,0,0,88.11,55c-.18-2-.38-4-.64-6a1.23,1.23,0,0,0,1.4-1.19,1.9,1.9,0,0,0-1.18-1.71A2.65,2.65,0,0,0,85.06,43a2.68,2.68,0,0,0-3.92-3,3.76,3.76,0,0,0-2.89-1.66,3.68,3.68,0,0,0-3,1.35c-.41-2-4.35-2.57-5.8-1.09a1.77,1.77,0,0,0-.42.7c-1.25-2.56-5.42-1.92-5.4,1-.54-1.93-2.39-2.52-4-2.32-1.86.23-3.64,1.42-3.87,3a3,3,0,0,0-1.09-.66,4.07,4.07,0,0,0-2.59.13A6.21,6.21,0,0,0,49.48,42.16Z"/><path class="cls-12" d="M50.05,42.49c-2.43-1.16-4.52,2.33-3,3.83-2.37.77-.79,3.12-.33,3s1.08-.64,1.36-.19c-.34,2.85-.65,5.7-.87,8.52a1.21,1.21,0,0,0,.09.73,1.45,1.45,0,0,0,1.18.54A27.72,27.72,0,0,0,52.8,59l.86-.06a8.82,8.82,0,0,1,1.54-.06c.6,0,1.18.26,1.79.31,1.18.11,2.36-.39,3.54-.24s2.2.89,3.32.64c.45-.1.85-.38,1.3-.5a7.13,7.13,0,0,1,2.73.32,5.15,5.15,0,0,0,1.24,0c1.53-.14,3.07-.74,4.57-.4a9.81,9.81,0,0,0,1.07.26c1,.14,2.07-.4,3-.12.53.15,1,.53,1.56.43s.95-.78,1.55-.86,1.22.64,1.91.7a2.74,2.74,0,0,0,.89-.16l.37-.08a11.17,11.17,0,0,1,3.11,0,7.14,7.14,0,0,0,.37-2,20,20,0,0,0-.09-2.56c-.15-1.91-.34-3.84-.6-5.73a1.16,1.16,0,0,0,1.28-1.16A1.85,1.85,0,0,0,87,46.2a2.59,2.59,0,0,0-2.54-3,2.62,2.62,0,0,0-3.8-2.81,3.64,3.64,0,0,0-2.77-1.58A3.57,3.57,0,0,0,75,40.05c-.43-1.86-4.17-2.41-5.57-1a1.8,1.8,0,0,0-.41.66c-1.22-2.4-5.2-1.81-5.22.94-.54-1.8-2.37-2.35-4-2.16-1.81.23-3.52,1.34-3.79,2.81a2.92,2.92,0,0,0-1.07-.6,4.08,4.08,0,0,0-2.5.16A5.9,5.9,0,0,0,50.05,42.49Z"/><path class="cls-13" d="M50.62,42.81c-2.29-1.06-4.25,2.22-2.8,3.64a1.51,1.51,0,0,0-.33,2.83c.44-.13,1-.58,1.27-.15-.32,2.72-.61,5.44-.79,8.11a1.28,1.28,0,0,0,.09.7,1.43,1.43,0,0,0,1.15.54,25,25,0,0,0,4.16.18c.28,0,.56,0,.84-.06a8.48,8.48,0,0,1,1.51-.05c.58.05,1.15.24,1.74.29,1.16.1,2.31-.36,3.46-.22s2.15.83,3.24.6c.44-.1.82-.36,1.25-.47a7,7,0,0,1,2.62.3,5.17,5.17,0,0,0,1.18,0c1.46-.13,2.94-.69,4.38-.37a8.92,8.92,0,0,0,1,.25c1,.13,2-.37,2.93-.1.5.14,1,.49,1.5.39s.91-.72,1.48-.8,1.17.59,1.84.64a2.28,2.28,0,0,0,.85-.15l.35-.07a11.36,11.36,0,0,1,3,0A6.55,6.55,0,0,0,86.91,57a18.42,18.42,0,0,0-.06-2.46c-.13-1.84-.3-3.7-.57-5.51.55.12,1.16-.47,1.17-1.13a1.83,1.83,0,0,0-1.11-1.56,2.51,2.51,0,0,0-2.45-2.86,2.57,2.57,0,0,0-1-2.45,2.62,2.62,0,0,0-2.68-.23,3.55,3.55,0,0,0-2.66-1.49,3.48,3.48,0,0,0-2.77,1.15c-.43-1.75-4-2.27-5.34-1a1.7,1.7,0,0,0-.4.61c-1.18-2.24-5-1.69-5,.88-.53-1.68-2.35-2.18-3.86-2-1.76.21-3.4,1.25-3.71,2.64a2.66,2.66,0,0,0-1-.54A4,4,0,0,0,53,41.2,5.83,5.83,0,0,0,50.62,42.81Z"/><path class="cls-14" d="M51.18,43.14c-2.14-1-4,2.1-2.63,3.45a1.44,1.44,0,0,0-.32,2.68c.4-.11.94-.52,1.18-.11-.32,2.58-.59,5.18-.72,7.71a1.24,1.24,0,0,0,.09.66,1.48,1.48,0,0,0,1.12.54,22.63,22.63,0,0,0,4.05.2l.82,0a8.87,8.87,0,0,1,1.46,0c.58,0,1.13.23,1.7.28,1.13.09,2.25-.34,3.38-.21s2.1.77,3.16.55c.42-.08.78-.33,1.2-.43a6.74,6.74,0,0,1,2.5.28,5.34,5.34,0,0,0,1.13,0c1.4-.12,2.81-.63,4.19-.33.33.07.64.19,1,.23.93.13,1.89-.34,2.79-.09.49.13.94.46,1.44.37s.88-.67,1.42-.74,1.13.54,1.76.58a2.57,2.57,0,0,0,.82-.14l.34-.08a12.18,12.18,0,0,1,2.83,0,6.63,6.63,0,0,0,.38-1.82,16.92,16.92,0,0,0,0-2.36c-.1-1.77-.27-3.57-.53-5.3.5.1,1-.46,1-1.09a1.77,1.77,0,0,0-1.06-1.48,2.46,2.46,0,0,0-2.37-2.73,2.53,2.53,0,0,0-1-2.31,2.57,2.57,0,0,0-2.56-.23,3.47,3.47,0,0,0-2.54-1.41,3.32,3.32,0,0,0-2.64,1.06c-.45-1.63-3.79-2.13-5.11-.94a1.49,1.49,0,0,0-.39.56c-1.15-2.09-4.75-1.57-4.84.82-.54-1.56-2.34-2-3.77-1.83-1.71.21-3.29,1.18-3.64,2.48a2.64,2.64,0,0,0-1-.49,3.94,3.94,0,0,0-2.33.21A5.78,5.78,0,0,0,51.18,43.14Z"/><path class="cls-15" d="M51.75,43.46c-2-.87-3.7,2-2.48,3.27a1.36,1.36,0,0,0-.3,2.52c.37-.08.86-.45,1.08-.06-.3,2.45-.55,4.91-.64,7.3a1.14,1.14,0,0,0,.1.63,1.45,1.45,0,0,0,1.07.54,20.61,20.61,0,0,0,3.94.23l.8,0a9.76,9.76,0,0,1,1.43,0c.56,0,1.1.21,1.66.26,1.1.08,2.19-.31,3.28-.19s2.06.71,3.09.51c.4-.08.75-.31,1.15-.4a6.81,6.81,0,0,1,2.39.26,4.78,4.78,0,0,0,1.07,0c1.34-.11,2.68-.58,4-.3.31.07.61.18.93.22.89.12,1.81-.31,2.67-.08.46.12.9.43,1.37.34s.85-.62,1.37-.68,1.07.49,1.68.53a2.38,2.38,0,0,0,.78-.14l.32-.07A12.14,12.14,0,0,1,85.2,58a5.72,5.72,0,0,0,.39-1.73,17,17,0,0,0,0-2.26,44.81,44.81,0,0,0-.5-5.08c.46.07,1-.47.93-1.07a1.72,1.72,0,0,0-1-1.39,2.39,2.39,0,0,0-2.28-2.59,2.44,2.44,0,0,0-1-2.17,2.48,2.48,0,0,0-2.43-.24,3.38,3.38,0,0,0-2.42-1.32,3.25,3.25,0,0,0-2.53.95c-.46-1.51-3.59-2-4.88-.89a1.52,1.52,0,0,0-.38.52c-1.11-1.93-4.52-1.45-4.65.76-.53-1.44-2.32-1.84-3.68-1.67-1.66.21-3.17,1.1-3.56,2.32a2.6,2.6,0,0,0-1-.44A4,4,0,0,0,54,42,5.75,5.75,0,0,0,51.75,43.46Z"/><path class="cls-16" d="M52.32,43.78C50.46,43,48.89,45.67,50,46.86a1.3,1.3,0,0,0-.29,2.38c.33-.06.78-.39,1,0-.28,2.32-.51,4.65-.56,6.9a1.13,1.13,0,0,0,.1.58,1.45,1.45,0,0,0,1,.55,18.64,18.64,0,0,0,3.83.26l.78,0a9.09,9.09,0,0,1,1.38,0c.55,0,1.08.19,1.62.24,1.07.08,2.14-.28,3.2-.17s2,.66,3,.47c.38-.07.72-.29,1.09-.37a6.37,6.37,0,0,1,2.28.24,5.79,5.79,0,0,0,1,0c1.28-.1,2.55-.53,3.81-.26.29.06.58.16.89.2.84.11,1.72-.28,2.54-.07.44.12.86.4,1.3.32s.81-.57,1.31-.63,1,.45,1.61.48a2.67,2.67,0,0,0,.73-.13l.31-.07a12.9,12.9,0,0,1,2.55-.1,5.31,5.31,0,0,0,.4-1.66,15.51,15.51,0,0,0,0-2.16,37,37,0,0,0-.46-4.85c.41,0,.84-.47.81-1a1.72,1.72,0,0,0-1-1.32,2.34,2.34,0,0,0-2.2-2.44,2.35,2.35,0,0,0-1-2,2.41,2.41,0,0,0-2.31-.25,3.31,3.31,0,0,0-2.3-1.24,3.14,3.14,0,0,0-2.41.86c-.46-1.39-3.4-1.84-4.64-.84a1.4,1.4,0,0,0-.37.47c-1.08-1.77-4.3-1.33-4.46.7-.54-1.31-2.31-1.66-3.6-1.5-1.6.2-3,1-3.48,2.15a2.53,2.53,0,0,0-1-.39,4.06,4.06,0,0,0-2.15.27A5.58,5.58,0,0,0,52.32,43.78Z"/><path class="cls-17" d="M52.89,44.11c-1.71-.68-3.16,1.77-2.16,2.89a1.23,1.23,0,0,0-.28,2.22c.3,0,.7-.32.88,0a53.5,53.5,0,0,0-.48,6.49,1,1,0,0,0,.1.55,1.46,1.46,0,0,0,1,.55,17,17,0,0,0,3.72.29l.76,0a8.7,8.7,0,0,1,1.35,0c.53,0,1,.18,1.58.22,1,.07,2.07-.25,3.11-.15s2,.6,2.93.42c.36-.06.68-.25,1-.33a6.39,6.39,0,0,1,2.16.22,4.59,4.59,0,0,0,1,0,13.74,13.74,0,0,1,3.61-.22c.28.06.56.15.84.19.81.1,1.63-.25,2.41,0a3.28,3.28,0,0,0,1.25.28c.46-.07.77-.52,1.24-.57s1,.4,1.53.43a2.4,2.4,0,0,0,.7-.13l.29-.06a14.21,14.21,0,0,1,2.42-.14,5.59,5.59,0,0,0,.41-1.57,17.53,17.53,0,0,0,.06-2.06,29.76,29.76,0,0,0-.44-4.64c.36,0,.74-.47.69-1a1.65,1.65,0,0,0-.94-1.24,2.31,2.31,0,0,0-2.12-2.31,2.31,2.31,0,0,0-1-1.89,2.35,2.35,0,0,0-2.17-.25,3.21,3.21,0,0,0-2.19-1.15,3,3,0,0,0-2.28.76c-.48-1.28-3.21-1.7-4.42-.79a1.32,1.32,0,0,0-.36.42c-1-1.62-4.07-1.22-4.27.64-.54-1.19-2.28-1.49-3.51-1.34a4.2,4.2,0,0,0-3.4,2,2.48,2.48,0,0,0-.93-.34,4.11,4.11,0,0,0-2.07.3A5.48,5.48,0,0,0,52.89,44.11Z"/><path class="cls-17" d="M53.46,44.43c-1.57-.58-2.89,1.66-2,2.71a1.16,1.16,0,0,0-.27,2.07c.26-.06.62-.26.78.07a43.74,43.74,0,0,0-.4,6.09,1,1,0,0,0,.11.51,1.4,1.4,0,0,0,1,.54,14.33,14.33,0,0,0,3.61.32l.73,0a9.69,9.69,0,0,1,1.32,0c.51,0,1,.16,1.53.2,1,.07,2-.22,3-.13a11.22,11.22,0,0,0,2.85.38c.34-.06.65-.23,1-.3a6.56,6.56,0,0,1,2,.2,5.64,5.64,0,0,0,.92,0,13.13,13.13,0,0,1,3.42-.18c.26,0,.53.14.8.17a21.78,21.78,0,0,1,2.28,0,3.35,3.35,0,0,0,1.18.26c.44-.07.74-.47,1.19-.52s.93.36,1.45.37a2.19,2.19,0,0,0,.66-.12l.27-.06a16.46,16.46,0,0,1,2.28-.17,5,5,0,0,0,.42-1.48,15.89,15.89,0,0,0,.09-2,24.88,24.88,0,0,0-.4-4.42c.31,0,.63-.47.57-1A1.67,1.67,0,0,0,83,46.77a2.25,2.25,0,0,0-2-2.16,2.27,2.27,0,0,0-1-1.75,2.36,2.36,0,0,0-2-.27,3.21,3.21,0,0,0-2.07-1.06,3,3,0,0,0-2.16.67c-.49-1.16-3-1.56-4.18-.75a1.16,1.16,0,0,0-.35.38c-1-1.46-3.85-1.1-4.09.57-.53-1.06-2.26-1.31-3.42-1.17a4.33,4.33,0,0,0-3.32,1.83,2.49,2.49,0,0,0-.9-.28,4,4,0,0,0-2,.33A5.22,5.22,0,0,0,53.46,44.43Z"/><path class="cls-18" d="M54,44.76c-1.43-.49-2.62,1.54-1.85,2.51a1.11,1.11,0,0,0-.26,1.92c.23,0,.56-.19.69.12A34.36,34.36,0,0,0,52.29,55a1,1,0,0,0,.11.48,1.43,1.43,0,0,0,.92.54,13.05,13.05,0,0,0,3.5.35l.72,0a10.77,10.77,0,0,1,1.27,0c.5,0,1,.16,1.49.19,1,.06,2-.2,2.94-.11a12.08,12.08,0,0,0,2.78.34c.33-.05.62-.21.94-.27a6.08,6.08,0,0,1,1.93.18,5.06,5.06,0,0,0,.87,0A13,13,0,0,1,73,56.51c.25.05.5.13.75.16.72.09,1.46-.19,2.16,0a2.9,2.9,0,0,0,1.11.23c.42-.06.71-.41,1.13-.46s.89.31,1.37.32a2.32,2.32,0,0,0,.63-.11l.26-.06c.72-.14,1.46-.14,2.13-.21A4.24,4.24,0,0,0,83,55a14.18,14.18,0,0,0,.12-1.86,20.14,20.14,0,0,0-.37-4.2c.27,0,.53-.48.46-.94a1.66,1.66,0,0,0-.87-1.09,2.24,2.24,0,0,0-1.94-2,2.24,2.24,0,0,0-.94-1.61A2.27,2.27,0,0,0,77.49,43a3.13,3.13,0,0,0-1.95-1,2.94,2.94,0,0,0-2,.57c-.5-1-2.82-1.41-4-.69a1.07,1.07,0,0,0-.34.33c-1-1.3-3.63-1-3.89.51-.54-.93-2.25-1.14-3.33-1a4.42,4.42,0,0,0-3.25,1.66,2.54,2.54,0,0,0-.88-.23,4.09,4.09,0,0,0-1.9.36A5,5,0,0,0,54,44.76Z"/><path class="cls-19" d="M54.59,45.08c-1.28-.39-2.34,1.43-1.68,2.33a1.05,1.05,0,0,0-.25,1.77c.2,0,.48-.13.59.16A27,27,0,0,0,53,54.62a1,1,0,0,0,.11.43,1.49,1.49,0,0,0,.89.55A11.84,11.84,0,0,0,57.4,56l.69,0c.41,0,.83,0,1.24,0s1,.14,1.45.17c.95.06,1.9-.17,2.85-.09a13.14,13.14,0,0,0,2.7.3c.31,0,.58-.19.89-.24a6.52,6.52,0,0,1,1.81.15,5.65,5.65,0,0,0,.82,0,12.84,12.84,0,0,1,3-.11c.24,0,.48.11.72.14.68.08,1.37-.16,2,0a3,3,0,0,0,1,.21c.4-.06.68-.37,1.07-.41s.84.27,1.3.27a2.45,2.45,0,0,0,.59-.11l.24,0c.68-.14,1.37-.16,2-.24a4.35,4.35,0,0,0,.43-1.32,12.51,12.51,0,0,0,.15-1.75,16.91,16.91,0,0,0-.33-4,.84.84,0,0,0,.33-.92,1.62,1.62,0,0,0-.82-1,2.25,2.25,0,0,0-1.86-1.89,2.24,2.24,0,0,0-.93-1.47,2.29,2.29,0,0,0-1.8-.28,3.11,3.11,0,0,0-1.84-.89,2.87,2.87,0,0,0-1.91.47c-.51-.92-2.63-1.27-3.73-.65a1.47,1.47,0,0,0-.32.29c-.94-1.15-3.41-.86-3.71.45-.53-.81-2.23-1-3.24-.84a4.59,4.59,0,0,0-3.17,1.5,2.34,2.34,0,0,0-.85-.18,4.29,4.29,0,0,0-1.81.39A5.16,5.16,0,0,0,54.59,45.08Z"/><path class="cls-20" d="M55.16,45.4c-1.14-.29-2.07,1.32-1.52,2.15a1,1,0,0,0-.24,1.61c.16.06.4-.07.5.21a20.57,20.57,0,0,0-.17,4.87,1.08,1.08,0,0,0,.11.4,1.51,1.51,0,0,0,.85.55A10.82,10.82,0,0,0,58,55.6h.68c.4,0,.8,0,1.2,0s.93.12,1.4.15c.93.05,1.85-.14,2.77-.07a13,13,0,0,0,2.62.25c.29,0,.55-.15.84-.2a6.54,6.54,0,0,1,1.7.13,4.83,4.83,0,0,0,.76,0,12.89,12.89,0,0,1,2.84-.08c.23,0,.45.1.67.13.64.07,1.28-.13,1.9,0a3.08,3.08,0,0,0,1,.17c.36,0,.64-.31,1-.35s.79.22,1.21.22a2.75,2.75,0,0,0,.56-.1l.22-.06c.63-.13,1.28-.16,1.86-.27a3.77,3.77,0,0,0,.44-1.23,11.11,11.11,0,0,0,.18-1.65,13.87,13.87,0,0,0-.3-3.77.84.84,0,0,0,.22-.88,1.67,1.67,0,0,0-.79-.93,2.25,2.25,0,0,0-1.77-1.74,2.15,2.15,0,0,0-2.6-1.62,3,3,0,0,0-1.72-.81,2.85,2.85,0,0,0-1.78.38c-.53-.81-2.43-1.13-3.5-.6a1.28,1.28,0,0,0-.32.24c-.9-1-3.18-.75-3.52.39-.53-.69-2.21-.79-3.15-.67A4.9,4.9,0,0,0,59.5,44a2.71,2.71,0,0,0-.82-.12,4.43,4.43,0,0,0-1.73.42A5,5,0,0,0,55.16,45.4Z"/><path class="cls-21" d="M55.73,45.73c-1-.2-1.8,1.2-1.36,2-.84.42-.35,1.36-.23,1.47s.32,0,.4.25a16.41,16.41,0,0,0-.09,4.47.81.81,0,0,0,.12.36,1.52,1.52,0,0,0,.81.55,9.5,9.5,0,0,0,3.17.43h.65c.39,0,.78,0,1.16,0s.91.11,1.37.13c.89,0,1.78-.11,2.68-.05A14.59,14.59,0,0,0,67,55.5c.27,0,.52-.13.78-.17a6.55,6.55,0,0,1,1.59.11c.24,0,.48,0,.71,0a13.84,13.84,0,0,1,2.65-.05c.21,0,.42.09.63.12.59.07,1.19-.09,1.77,0a3.28,3.28,0,0,0,.92.15c.34,0,.61-.27,1-.3s.74.18,1.14.17a3.06,3.06,0,0,0,.51-.1l.21-.05c.59-.12,1.19-.17,1.72-.31A3.53,3.53,0,0,0,81,54a12.24,12.24,0,0,0-.06-5.1A.9.9,0,0,0,81,48a1.68,1.68,0,0,0-.75-.85,2.34,2.34,0,0,0-1.69-1.61,2.27,2.27,0,0,0-.91-1.18,2.32,2.32,0,0,0-1.55-.3,3.07,3.07,0,0,0-1.61-.72,2.94,2.94,0,0,0-1.66.27,3.31,3.31,0,0,0-3.27-.54,1.44,1.44,0,0,0-.31.19c-.86-.83-3-.63-3.32.33-.53-.56-2.2-.62-3.07-.51a5.38,5.38,0,0,0-3,1.16,2.91,2.91,0,0,0-.8-.07,4.86,4.86,0,0,0-1.64.45A5,5,0,0,0,55.73,45.73Z"/><path class="cls-22" d="M56.3,46.05c-.85-.1-1.53,1.1-1.21,1.77-.68.38-.3,1.18-.21,1.31s.24.06.3.3a12.57,12.57,0,0,0,0,4.06,1,1,0,0,0,.12.33,1.67,1.67,0,0,0,.78.55,8.55,8.55,0,0,0,3,.46h.63c.38,0,.75,0,1.13,0s.88.09,1.32.11c.87,0,1.73-.08,2.6,0a15.75,15.75,0,0,0,2.46.18c.25,0,.48-.11.73-.14a6.73,6.73,0,0,1,1.48.09c.22,0,.44,0,.66,0a13.37,13.37,0,0,1,2.45,0c.2,0,.39.08.59.1.54.06,1.1-.06,1.64,0a3.06,3.06,0,0,0,.85.12c.32,0,.58-.21.89-.24s.7.13,1.07.11a2,2,0,0,0,.47-.09l.2,0c.54-.12,1.1-.19,1.58-.35a3.29,3.29,0,0,0,.46-1,9.67,9.67,0,0,0,.23-1.46,9.17,9.17,0,0,0-.23-3.32,1.1,1.1,0,0,0,0-.82,1.79,1.79,0,0,0-.71-.78A2.43,2.43,0,0,0,78,45.79a2.52,2.52,0,0,0-.91-1,2.44,2.44,0,0,0-1.43-.3,3.31,3.31,0,0,0-1.49-.64,3,3,0,0,0-1.53.18,3.46,3.46,0,0,0-3-.5,1.08,1.08,0,0,0-.3.16c-.83-.69-2.73-.52-3.14.26a5.38,5.38,0,0,0-3-.35,6,6,0,0,0-2.93,1,2.81,2.81,0,0,0-.77,0,4.89,4.89,0,0,0-1.56.47A4.83,4.83,0,0,0,56.3,46.05Z"/><path class="cls-23" d="M56.87,46.38a1.29,1.29,0,0,0-1,1.58c-.53.34-.28,1-.2,1.16s.16.12.2.34a9.54,9.54,0,0,0,.07,3.66,1.19,1.19,0,0,0,.12.29,1.82,1.82,0,0,0,.74.55,8,8,0,0,0,3,.49h.61c.36,0,.72,0,1.09,0l1.27.09c.84,0,1.68-.05,2.51,0a17.64,17.64,0,0,0,2.4.13c.23,0,.44-.08.67-.1a7.75,7.75,0,0,1,1.36.07c.2,0,.4,0,.61,0a15.5,15.5,0,0,1,2.26,0l.54.09c.51,0,1,0,1.51,0a3.65,3.65,0,0,0,.8.1c.29,0,.53-.16.83-.19s.64.09,1,.06a3.39,3.39,0,0,0,.44-.08l.18,0a9.75,9.75,0,0,0,1.44-.38,3,3,0,0,0,.47-1,8.07,8.07,0,0,0,.26-1.35,7.45,7.45,0,0,0-.2-3.1,1.36,1.36,0,0,0-.13-.79,1.92,1.92,0,0,0-.67-.7A2.69,2.69,0,0,0,77.42,46a2.8,2.8,0,0,0-.9-.91,2.59,2.59,0,0,0-1.31-.31,3.33,3.33,0,0,0-1.37-.55,3.14,3.14,0,0,0-1.41.08,3.82,3.82,0,0,0-2.81-.45,1.15,1.15,0,0,0-.29.11,2.74,2.74,0,0,0-3,.2A6.67,6.67,0,0,0,63.49,44a7,7,0,0,0-2.85.83,3.15,3.15,0,0,0-.74,0,5.56,5.56,0,0,0-1.47.5A4.71,4.71,0,0,0,56.87,46.38Z"/><path class="cls-24" d="M57.43,46.7a1.29,1.29,0,0,0-.88,1.39c-.38.31-.23.83-.2,1a1.16,1.16,0,0,1,.11.38,7.06,7.06,0,0,0,.16,3.25.72.72,0,0,0,.12.25,1.81,1.81,0,0,0,.7.56,7.16,7.16,0,0,0,2.83.52h.59l1,0c.41,0,.82.06,1.24.07.81,0,1.61,0,2.42,0s1.54.13,2.32.09c.21,0,.41,0,.62-.07a8.57,8.57,0,0,1,1.24.05h.56a17.9,17.9,0,0,1,2.07.07l.5.07c.46,0,.92,0,1.38,0a4.4,4.4,0,0,0,.73.06c.27,0,.5-.11.77-.13s.6,0,.91,0a3.14,3.14,0,0,0,.4-.08l.16,0a4.82,4.82,0,0,0,1.3-.41A2.74,2.74,0,0,0,79,53a6.92,6.92,0,0,0,.29-1.25,6.21,6.21,0,0,0-.16-2.89,1.64,1.64,0,0,0-.26-.75,2.27,2.27,0,0,0-.62-.62,3.32,3.32,0,0,0-1.43-1.19,2.9,2.9,0,0,0-.9-.76,3,3,0,0,0-1.17-.32,4.06,4.06,0,0,0-1.25-.47,4.32,4.32,0,0,0-1.29,0,4.61,4.61,0,0,0-2.58-.39,1.4,1.4,0,0,0-.28.06,3.31,3.31,0,0,0-2.76.14,9.35,9.35,0,0,0-2.8,0,8.79,8.79,0,0,0-2.78.67,4.75,4.75,0,0,0-.71.09,6.21,6.21,0,0,0-1.39.53A4.8,4.8,0,0,0,57.43,46.7Z"/><path class="cls-25" d="M58,47a1.42,1.42,0,0,0-.72,1.2,1.31,1.31,0,0,0-.19.86c0,.14,0,.25,0,.43a5.06,5.06,0,0,0,.24,2.85,1.13,1.13,0,0,0,.12.21,1.93,1.93,0,0,0,.66.55,6.24,6.24,0,0,0,2.73.55l.57,0,1,0,1.19.05c.78,0,1.56,0,2.34,0s1.49.07,2.24.05l.57,0a10.73,10.73,0,0,1,1.13,0h.5c.63,0,1.26,0,1.88.1l.45.06c.42,0,.84,0,1.26.06a4.87,4.87,0,0,0,.66,0c.24,0,.47-.06.71-.08s.55,0,.83,0l.37-.07.14,0a3.52,3.52,0,0,0,1.17-.45,2.25,2.25,0,0,0,.48-.8,6.09,6.09,0,0,0,.32-1.15,5,5,0,0,0-.13-2.67,2,2,0,0,0-.37-.73,3.2,3.2,0,0,0-.59-.54,4.71,4.71,0,0,0-1.34-1,3.79,3.79,0,0,0-.89-.62,4.06,4.06,0,0,0-1-.33,5.23,5.23,0,0,0-1.13-.39A5.93,5.93,0,0,0,72,45.05a7.33,7.33,0,0,0-2.35-.35l-.27,0a4.8,4.8,0,0,0-2.57.07,19.51,19.51,0,0,0-2.71.15,12.37,12.37,0,0,0-2.69.51,5.09,5.09,0,0,0-.7.14,7.39,7.39,0,0,0-1.3.56A4.47,4.47,0,0,0,58,47Z"/><path class="cls-7" d="M59.91,46.53a4.68,4.68,0,0,0-1.34.82,3.42,3.42,0,0,0-.74,1.73,3.84,3.84,0,0,0,.35,3.09c.73.94,2.06,1.08,3.24,1.13,2.36.11,4.73.15,7.09.13.66,0,1.32,0,2,0,1.9.09,3.84.52,5.69,0a2.36,2.36,0,0,0,1-.49,2.06,2.06,0,0,0,.49-.71c.58-1.31.82-3.23-.23-4.2a12.62,12.62,0,0,0-2.69-1.85,17.72,17.72,0,0,0-5.11-1.14,14.54,14.54,0,0,0-2.64,0l-2.62.32a14.4,14.4,0,0,0-3.28.53A11.26,11.26,0,0,0,59.91,46.53Z"/><g class="cls-6"><path class="cls-7" d="M55.19,67.2a.92.92,0,0,1,.53.82.91.91,0,0,1-.91.91.88.88,0,0,1-.63-.26,1,1,0,0,0,.89.55,1,1,0,0,0,.12-2Z"/></g><g class="cls-6"><path class="cls-7" d="M65.42,63.86a1.18,1.18,0,0,1-.5,2.25,1.16,1.16,0,0,1-.82-.34,1.31,1.31,0,0,0,1.16.71,1.31,1.31,0,0,0,.16-2.62Z"/></g><g class="cls-6"><path class="cls-7" d="M67.8,75.85A1.14,1.14,0,0,1,67.32,78a1.16,1.16,0,0,1-.79-.33,1.27,1.27,0,0,0,2.39-.58A1.27,1.27,0,0,0,67.8,75.85Z"/></g><g class="cls-6"><path class="cls-7" d="M68.65,82.82a.73.73,0,0,1-.31,1.39.72.72,0,0,1-.51-.21.8.8,0,0,0,.72.44.81.81,0,0,0,.1-1.62Z"/></g><g class="cls-6"><path class="cls-7" d="M68.89,93.68a1.12,1.12,0,0,1-.47,2.13,1.09,1.09,0,0,1-.78-.32,1.23,1.23,0,0,0,1.1.67A1.25,1.25,0,0,0,70,94.91,1.24,1.24,0,0,0,68.89,93.68Z"/></g><g class="cls-6"><path class="cls-7" d="M77.18,64.6a1.69,1.69,0,0,1-.71,3.22,1.71,1.71,0,0,1-1.18-.48,1.87,1.87,0,0,0,1.66,1,1.88,1.88,0,0,0,.23-3.75Z"/></g><g class="cls-6"><path class="cls-7" d="M77.13,78.82a1,1,0,0,1,.59.91,1,1,0,0,1-1.72.72,1.12,1.12,0,0,0,2.12-.52A1.12,1.12,0,0,0,77.13,78.82Z"/></g><g class="cls-6"><path class="cls-7" d="M77.35,86.89a1,1,0,0,1-.41,1.86,1,1,0,0,1-.68-.28,1.08,1.08,0,1,0,1.09-1.58Z"/></g><g class="cls-6"><path class="cls-7" d="M79.1,73.79a1.23,1.23,0,1,1-1.37,2,1.37,1.37,0,1,0,1.37-2Z"/></g><g class="cls-6"><path class="cls-7" d="M63,119.43a.8.8,0,0,1,.47.73.81.81,0,0,1-.81.81.79.79,0,0,1-.56-.23.9.9,0,0,0,.79.49.9.9,0,0,0,.11-1.8Z"/></g><g class="cls-6"><path class="cls-7" d="M66.75,129.63a1.57,1.57,0,0,1,.92,1.44A1.6,1.6,0,0,1,65,132.22a1.78,1.78,0,1,0,1.79-2.59Z"/></g><g class="cls-6"><path class="cls-7" d="M72.81,114.32a1.29,1.29,0,0,1,.76,1.18,1.31,1.31,0,0,1-1.31,1.31,1.28,1.28,0,0,1-.91-.38,1.43,1.43,0,0,0,1.28.79,1.46,1.46,0,0,0,.18-2.9Z"/></g><g class="cls-6"><path class="cls-7" d="M78.22,108.36a1,1,0,0,1-.42,1.9,1,1,0,0,1-.7-.28,1.1,1.1,0,0,0,1,.6,1.11,1.11,0,0,0,.14-2.22Z"/></g><g class="cls-6"><path class="cls-7" d="M59.59,93.32A1.64,1.64,0,1,1,57.75,96a1.82,1.82,0,1,0,1.84-2.65Z"/></g><g class="cls-6"><path class="cls-7" d="M51.54,62.22a1.48,1.48,0,1,1-1.66,2.4,1.65,1.65,0,1,0,1.66-2.4Z"/></g><g class="cls-6"><path class="cls-7" d="M85.42,64.86a1.45,1.45,0,1,1-1.63,2.36,1.62,1.62,0,1,0,1.63-2.36Z"/></g><g class="cls-6"><path class="cls-7" d="M72.83,69.31a1.55,1.55,0,1,1-1.74,2.52,1.73,1.73,0,1,0,1.74-2.52Z"/></g><g class="cls-6"><path class="cls-7" d="M51.94,73a.94.94,0,0,1,.53.84.92.92,0,0,1-.92.93.93.93,0,0,1-.65-.26,1,1,0,0,0,.91.55A1,1,0,0,0,51.94,73Z"/></g><g class="cls-6"><path class="cls-7" d="M55.22,90.66a1.29,1.29,0,0,1-.55,2.46,1.28,1.28,0,0,1-.89-.36,1.44,1.44,0,1,0,1.44-2.1Z"/></g><g class="cls-6"><path class="cls-7" d="M65,79.84a1.45,1.45,0,0,1,.85,1.32,1.47,1.47,0,0,1-1.46,1.46,1.44,1.44,0,0,1-1-.42A1.62,1.62,0,1,0,65,79.84Z"/></g><g class="cls-6"><path class="cls-7" d="M82.58,89.55A1.32,1.32,0,0,1,82,92.06a1.33,1.33,0,0,1-.92-.38,1.47,1.47,0,1,0,1.47-2.13Z"/></g><g class="cls-6"><path class="cls-7" d="M60.43,106.5A1.31,1.31,0,1,1,59,108.62a1.47,1.47,0,0,0,1.29.78,1.46,1.46,0,0,0,.17-2.9Z"/></g><path class="cls-26" d="M59,136.59c-5.48-31.79-15.23-28.88-11.54-86.21h6.75C49.88,103.53,57.75,112.24,59,136.59Z"/><path class="cls-27" d="M45.47,48.84c-3.09,28.41-.12,43.68,2.76,58.46,2.09,10.74,6.87,19.18,7.57,30.45a1.89,1.89,0,0,0,2.43,1.68,43.75,43.75,0,0,1,9.15-1.18,43.75,43.75,0,0,1,9.15,1.18A1.89,1.89,0,0,0,79,137.75c.7-11.27,5.49-19.71,7.58-30.45,2.87-14.78,5.85-30,2.76-58.46Z"/><path class="cls-28" d="M90.6,48.84H89.3c3.09,28.41.11,43.68-2.76,58.46C84.45,118,79.66,126.48,79,137.75a1.89,1.89,0,0,1-2.43,1.68,43.75,43.75,0,0,0-9.15-1.18,43.75,43.75,0,0,0-9.15,1.18,1.89,1.89,0,0,1-2.43-1.68c-.7-11.27-5.48-19.71-7.57-30.45-2.88-14.78-5.85-30-2.76-58.46H44.16c-5.5,50.9,8.24,59.33,6.67,100.18a1.23,1.23,0,0,0,1.22,1.28H82.71A1.24,1.24,0,0,0,83.94,149C82.36,108.17,96.1,99.74,90.6,48.84Z"/><path class="cls-29" d="M76.26,143.42c-.25.59-1.47.62-3.25.6s-4.2-.07-6.85.11a44.93,44.93,0,0,0-6.62.86c-1.63.34-2.6.8-3.11.41-.23-.2-.24-.62,0-1.28a6,6,0,0,1,1.78-2.06,14.46,14.46,0,0,1,7.68-2.51,16.38,16.38,0,0,1,7.79,1.31C75.6,141.76,76.5,142.87,76.26,143.42Z"/><path class="cls-30" d="M91.83,66c-.15-5.18-.54-10.88-1.23-17.24h-.24A1.51,1.51,0,0,0,91,47.7a2,2,0,0,0-1.3-1.94,2.86,2.86,0,0,0-2.88-3.57,2.92,2.92,0,0,0-4.32-3.34,4,4,0,0,0-6.63-.28c-.43-2.65-6.2-3.14-6.94-.41a3.09,3.09,0,0,0-1.69-1.63V150.25H82.71A1.25,1.25,0,0,0,83.94,149a146.65,146.65,0,0,1,1.89-30.72c0-.27.09-.54.14-.81,1-5.77,2.12-11.18,3.15-16.88a161.91,161.91,0,0,0,2.54-20.39q.18-3.21.23-6.73c0-1.18,0-2.38,0-3.61S91.87,67.32,91.83,66Z"/><path class="cls-3" d="M100.89,48.84c-5.5,50.9,8.24,59.33,6.66,100.18a1.24,1.24,0,0,0,1.23,1.28h30.66a1.24,1.24,0,0,0,1.23-1.28c-1.58-40.85,12.16-49.28,6.66-100.18Z"/><path class="cls-4" d="M102.19,48.84c-3.08,28.41-.11,43.68,2.76,58.46,2.1,10.74,6.88,19.18,7.58,30.45a1.89,1.89,0,0,0,2.43,1.68,43.75,43.75,0,0,1,9.15-1.18,43.75,43.75,0,0,1,9.15,1.18,1.89,1.89,0,0,0,2.43-1.68c.7-11.27,5.49-19.71,7.58-30.45,2.87-14.78,5.84-30,2.76-58.46Z"/><path class="cls-31" d="M101.22,60.4C100,81.67,102.49,94.67,105,107.3c2.1,10.74,6.88,19.18,7.58,30.45a1.89,1.89,0,0,0,2.43,1.68,43.75,43.75,0,0,1,9.15-1.18,43.75,43.75,0,0,1,9.15,1.18,1.89,1.89,0,0,0,2.43-1.68c.7-11.27,5.49-19.71,7.58-30.45,2.46-12.63,5-25.63,3.73-46.9Z"/><g class="cls-6"><path class="cls-7" d="M136.67,96.57a1.59,1.59,0,1,1-1.78,2.58,1.77,1.77,0,1,0,1.78-2.58Z"/></g><g class="cls-6"><path class="cls-7" d="M122.77,112.24a.83.83,0,0,1-.34,1.58.81.81,0,0,1-.58-.24.91.91,0,0,0,.81.5.92.92,0,0,0,.11-1.84Z"/></g><g class="cls-6"><path class="cls-7" d="M121.32,101.39a1.8,1.8,0,1,1-2,2.92,2,2,0,1,0,2-2.92Z"/></g><g class="cls-6"><path class="cls-7" d="M130,95a1.26,1.26,0,1,1-1.41,2A1.4,1.4,0,1,0,130,95Z"/></g><g class="cls-6"><path class="cls-7" d="M116.93,75.68a1.1,1.1,0,0,1-.46,2.09,1.07,1.07,0,0,1-.76-.31,1.21,1.21,0,0,0,2.29-.57A1.23,1.23,0,0,0,116.93,75.68Z"/></g><g class="cls-6"><path class="cls-7" d="M119.3,89.26a.79.79,0,0,1,.46.72.8.8,0,0,1-.8.8.77.77,0,0,1-.55-.23.88.88,0,0,0,.78.48.89.89,0,0,0,.89-.89A.88.88,0,0,0,119.3,89.26Z"/></g><g class="cls-6"><path class="cls-7" d="M112.17,82.83A1.31,1.31,0,1,1,110.7,85a1.47,1.47,0,0,0,1.29.78,1.46,1.46,0,0,0,.18-2.9Z"/></g><path class="cls-8" d="M142.5,60.86a9.9,9.9,0,0,1,4.09.09,13.12,13.12,0,0,0,.14-5.3q-.37-3.32-.74-6.61a1.45,1.45,0,0,0,1.75-1.28,2.06,2.06,0,0,0-1.3-1.95,2.86,2.86,0,0,0-2.88-3.56,3,3,0,0,0-1-3.16,3,3,0,0,0-3.3-.18,4,4,0,0,0-6.63-.29c-.43-2.64-6.2-3.13-6.94-.4-1.36-3-6.1-2.27-6,1.2-1.14-4.82-8.2-2.83-8.42.65-1.79-2-5-.91-6.77,1.12-3-1.54-5.61,2.79-3.6,4.58-3,.92-1,3.83-.38,3.58s1.39-.9,1.75-.37c-.39,3.38-.79,6.76-1.18,10.14a1.46,1.46,0,0,0,.07.88,1.53,1.53,0,0,0,1.34.54,39.59,39.59,0,0,0,5.66,0,8,8,0,0,1,1.69-.09c.66.07,1.3.33,2,.39,1.3.13,2.6-.5,3.89-.31s2.4,1.1,3.62.8c.53-.13,1-.48,1.52-.63,1-.3,2.12.25,3.19.41,2.26.34,4.56-1.06,6.78-.53.42.1.82.27,1.24.33,1.19.16,2.42-.53,3.57-.18.62.19,1.19.67,1.82.54s1.08-1,1.78-1.08,1.42.82,2.23.91A3.13,3.13,0,0,0,142.5,60.86Z"/><path class="cls-9" d="M105.07,41.52c-2.86-1.45-5.33,2.67-3.43,4.39-2.83.88-.93,3.65-.37,3.43s1.32-.84,1.66-.33c-.39,3.25-.76,6.5-1.11,9.73a1.44,1.44,0,0,0,.08.85c.23.43.81.51,1.3.53a39.2,39.2,0,0,0,4.6.07l.93-.08a9.13,9.13,0,0,1,1.65-.08c.65.06,1.26.31,1.91.37,1.27.12,2.54-.47,3.81-.29s2.35,1,3.54.76c.52-.12,1-.46,1.47-.6,1-.28,2,.23,3.07.39a5.39,5.39,0,0,0,1.39,0c1.72-.17,3.46-.9,5.15-.5.4.09.79.25,1.2.31,1.15.15,2.33-.5,3.44-.17.59.18,1.15.64,1.75.51s1-.92,1.72-1,1.37.77,2.15.85a2.72,2.72,0,0,0,1-.17,2.71,2.71,0,0,1,.41-.09,11,11,0,0,1,3.53.14,8.18,8.18,0,0,0,.34-2.25,22.75,22.75,0,0,0-.17-2.86c-.23-2.14-.46-4.27-.71-6.39A1.38,1.38,0,0,0,147,47.78a2,2,0,0,0-1.26-1.87,2.8,2.8,0,0,0-2.8-3.43,2.85,2.85,0,0,0-4.19-3.21,3.88,3.88,0,0,0-6.39-.29c-.39-2.21-4.73-2.85-6.26-1.18a2,2,0,0,0-.44.78c-1.32-2.86-5.87-2.15-5.78,1.14a3.57,3.57,0,0,0-4.21-2.66c-2,.25-3.88,1.58-4,3.31a2.93,2.93,0,0,0-1.14-.76,4.07,4.07,0,0,0-2.75.07A6.34,6.34,0,0,0,105.07,41.52Z"/><path class="cls-10" d="M105.64,41.84c-2.72-1.35-5.06,2.56-3.28,4.2-2.67.85-.88,3.48-.35,3.28s1.24-.77,1.56-.28c-.37,3.11-.72,6.23-1,9.33a1.4,1.4,0,0,0,.08.81c.23.42.79.5,1.26.53a33.62,33.62,0,0,0,4.49.09c.31,0,.61,0,.91-.06a7.94,7.94,0,0,1,1.61-.08c.64.06,1.24.29,1.88.35,1.24.12,2.48-.44,3.71-.27s2.31,1,3.47.72c.5-.12.92-.44,1.41-.57,1-.27,2,.22,3,.37a5.38,5.38,0,0,0,1.33,0c1.66-.16,3.33-.85,5-.47.38.09.76.24,1.15.3,1.11.15,2.25-.47,3.32-.15.57.17,1.1.6,1.69.48s1-.88,1.66-1,1.32.73,2.07.8a2.63,2.63,0,0,0,1-.17l.4-.09a11.34,11.34,0,0,1,3.39.11,7.56,7.56,0,0,0,.35-2.16,21.42,21.42,0,0,0-.14-2.77c-.2-2-.42-4.12-.67-6.17a1.3,1.3,0,0,0,1.52-1.22A2,2,0,0,0,145.09,46a2.72,2.72,0,0,0-2.71-3.29,2.81,2.81,0,0,0-1-2.87,2.84,2.84,0,0,0-3-.21,3.85,3.85,0,0,0-3-1.74,3.78,3.78,0,0,0-3.14,1.44c-.4-2.1-4.54-2.71-6-1.14a1.9,1.9,0,0,0-.43.74c-1.29-2.7-5.65-2-5.6,1.07A3.5,3.5,0,0,0,116,37.53c-1.92.23-3.76,1.49-4,3.14a2.89,2.89,0,0,0-1.11-.71,4,4,0,0,0-2.67.1A6.19,6.19,0,0,0,105.64,41.84Z"/><path class="cls-11" d="M106.21,42.16c-2.58-1.25-4.79,2.45-3.12,4-2.52.81-.84,3.3-.34,3.13s1.16-.71,1.46-.24c-.35,3-.69,6-.95,8.92a1.34,1.34,0,0,0,.08.77,1.47,1.47,0,0,0,1.23.54,30.45,30.45,0,0,0,4.38.12c.29,0,.59,0,.88-.06a8.4,8.4,0,0,1,1.58-.07c.62.06,1.21.28,1.83.33,1.21.11,2.42-.42,3.63-.25s2.26.93,3.39.67c.48-.1.89-.41,1.36-.53.93-.25,1.89.21,2.85.35a5.48,5.48,0,0,0,1.28,0c1.6-.15,3.2-.79,4.77-.43.37.08.73.22,1.11.27,1.06.15,2.16-.43,3.18-.13.55.16,1.07.57,1.63.45s1-.82,1.6-.91,1.27.68,2,.75a2.68,2.68,0,0,0,.93-.16l.39-.09a11.35,11.35,0,0,1,3.24.07,7,7,0,0,0,.36-2.07,19.94,19.94,0,0,0-.11-2.67c-.18-2-.38-4-.64-6a1.23,1.23,0,0,0,1.4-1.19,1.9,1.9,0,0,0-1.18-1.71A2.65,2.65,0,0,0,141.79,43a2.68,2.68,0,0,0-3.92-3A3.76,3.76,0,0,0,135,38.35a3.66,3.66,0,0,0-3,1.35c-.41-2-4.35-2.57-5.8-1.09a1.77,1.77,0,0,0-.42.7c-1.25-2.56-5.42-1.92-5.4,1-.54-1.93-2.39-2.52-4-2.32-1.87.23-3.64,1.42-3.88,3a2.81,2.81,0,0,0-1.09-.66,4,4,0,0,0-2.58.13A6.21,6.21,0,0,0,106.21,42.16Z"/><path class="cls-12" d="M106.78,42.49c-2.43-1.16-4.52,2.33-3,3.83-2.37.77-.79,3.12-.33,3s1.08-.64,1.36-.19c-.34,2.85-.65,5.7-.87,8.52a1.21,1.21,0,0,0,.09.73,1.45,1.45,0,0,0,1.18.54,27.63,27.63,0,0,0,4.27.15q.44,0,.87-.06a8.82,8.82,0,0,1,1.54-.06c.6,0,1.18.26,1.78.31,1.19.11,2.37-.39,3.55-.24s2.2.89,3.31.64c.46-.1.86-.38,1.31-.5a7.13,7.13,0,0,1,2.73.32,5.14,5.14,0,0,0,1.24,0c1.53-.14,3.07-.74,4.57-.4a9.64,9.64,0,0,0,1.06.26c1,.14,2.07-.4,3.06-.12.53.15,1,.53,1.56.43s1-.78,1.54-.86,1.23.64,1.92.7a2.74,2.74,0,0,0,.89-.16l.37-.08a11.17,11.17,0,0,1,3.11,0,7.14,7.14,0,0,0,.37-2,20,20,0,0,0-.09-2.56c-.15-1.91-.34-3.84-.6-5.73a1.16,1.16,0,0,0,1.28-1.16,1.84,1.84,0,0,0-1.15-1.63,2.58,2.58,0,0,0-2.54-3,2.65,2.65,0,0,0-1-2.59,2.7,2.7,0,0,0-2.81-.22,3.64,3.64,0,0,0-2.77-1.58,3.57,3.57,0,0,0-2.89,1.25c-.43-1.86-4.17-2.41-5.57-1a1.67,1.67,0,0,0-.41.66c-1.22-2.4-5.2-1.81-5.22.94-.54-1.8-2.37-2.35-4-2.16-1.81.23-3.52,1.34-3.8,2.81a2.8,2.8,0,0,0-1.06-.6,4.08,4.08,0,0,0-2.5.16A5.9,5.9,0,0,0,106.78,42.49Z"/><path class="cls-13" d="M107.35,42.81c-2.29-1.06-4.25,2.22-2.8,3.64a1.51,1.51,0,0,0-.33,2.83c.44-.13,1-.58,1.27-.15-.32,2.72-.61,5.44-.79,8.11a1.19,1.19,0,0,0,.09.7,1.43,1.43,0,0,0,1.15.54,25,25,0,0,0,4.16.18c.28,0,.56,0,.84-.06a8.36,8.36,0,0,1,1.5-.05c.59.05,1.16.24,1.75.29,1.15.1,2.31-.36,3.46-.22s2.15.83,3.24.6c.43-.1.81-.36,1.25-.47a7,7,0,0,1,2.62.3,5.17,5.17,0,0,0,1.18,0c1.46-.13,2.94-.69,4.38-.37a8.92,8.92,0,0,0,1,.25c1,.13,2-.37,2.93-.1.5.14,1,.49,1.49.39s.92-.72,1.49-.8,1.17.59,1.84.64a2.31,2.31,0,0,0,.85-.15l.35-.07a11.36,11.36,0,0,1,3,0,6.55,6.55,0,0,0,.38-1.91,18.42,18.42,0,0,0-.06-2.46c-.13-1.84-.31-3.7-.57-5.51.55.12,1.16-.47,1.17-1.13a1.84,1.84,0,0,0-1.11-1.56,2.51,2.51,0,0,0-2.45-2.86,2.57,2.57,0,0,0-1-2.45,2.62,2.62,0,0,0-2.68-.23,3.55,3.55,0,0,0-2.66-1.49,3.48,3.48,0,0,0-2.77,1.15c-.43-1.75-4-2.27-5.34-1a1.7,1.7,0,0,0-.4.61c-1.18-2.24-5-1.69-5,.88-.54-1.68-2.35-2.18-3.86-2-1.76.21-3.4,1.25-3.71,2.64a2.66,2.66,0,0,0-1-.54,4,4,0,0,0-2.41.18A5.83,5.83,0,0,0,107.35,42.81Z"/><path class="cls-14" d="M107.91,43.14c-2.14-1-4,2.1-2.64,3.45a1.44,1.44,0,0,0-.31,2.68c.4-.11.93-.52,1.17-.11-.31,2.58-.58,5.18-.71,7.71a1.24,1.24,0,0,0,.09.66,1.45,1.45,0,0,0,1.11.54,22.79,22.79,0,0,0,4.06.2l.82,0a8.87,8.87,0,0,1,1.46,0c.57,0,1.13.23,1.7.28,1.13.09,2.25-.34,3.37-.21s2.11.77,3.17.55c.42-.08.78-.33,1.2-.43a6.74,6.74,0,0,1,2.5.28,5.34,5.34,0,0,0,1.13,0c1.4-.12,2.81-.63,4.19-.33a10,10,0,0,0,1,.23c.93.13,1.89-.34,2.79-.09.49.13.94.46,1.44.37s.88-.67,1.42-.74,1.13.54,1.76.58a2.57,2.57,0,0,0,.82-.14l.33-.08a12.19,12.19,0,0,1,2.83,0,6.3,6.3,0,0,0,.39-1.82,18.61,18.61,0,0,0,0-2.36c-.11-1.77-.27-3.57-.53-5.3.5.1,1.05-.46,1-1.09a1.79,1.79,0,0,0-1.06-1.48A2.46,2.46,0,0,0,140,43.66a2.53,2.53,0,0,0-1-2.31,2.57,2.57,0,0,0-2.56-.23A3.47,3.47,0,0,0,134,39.71a3.36,3.36,0,0,0-2.65,1.06c-.44-1.63-3.78-2.13-5.1-.94a1.49,1.49,0,0,0-.39.56c-1.16-2.09-4.75-1.57-4.84.82-.54-1.56-2.34-2-3.78-1.83-1.7.21-3.28,1.18-3.63,2.48a2.71,2.71,0,0,0-1-.49,3.94,3.94,0,0,0-2.33.21A5.78,5.78,0,0,0,107.91,43.14Z"/><path class="cls-15" d="M108.48,43.46c-2-.87-3.7,2-2.48,3.27a1.36,1.36,0,0,0-.3,2.52c.37-.08.86-.45,1.08-.06-.3,2.45-.55,4.91-.64,7.3a1.14,1.14,0,0,0,.1.63,1.44,1.44,0,0,0,1.07.54,20.56,20.56,0,0,0,3.94.23l.8,0a9.72,9.72,0,0,1,1.43,0c.56,0,1.1.21,1.66.26,1.09.08,2.19-.31,3.28-.19s2,.71,3.09.51c.4-.08.75-.31,1.15-.4a6.73,6.73,0,0,1,2.38.26,4.88,4.88,0,0,0,1.08,0c1.34-.11,2.68-.58,4-.3.31.07.61.18.93.22.89.12,1.81-.31,2.67-.08.46.12.9.43,1.37.34s.84-.62,1.36-.68,1.08.49,1.69.53a2.38,2.38,0,0,0,.78-.14l.32-.07a12.14,12.14,0,0,1,2.69-.07,6,6,0,0,0,.39-1.73,17,17,0,0,0,0-2.26,44.81,44.81,0,0,0-.5-5.08c.46.07,1-.47.93-1.07a1.72,1.72,0,0,0-1-1.39,2.39,2.39,0,0,0-2.28-2.59,2.44,2.44,0,0,0-1-2.17,2.48,2.48,0,0,0-2.43-.24,3.38,3.38,0,0,0-2.43-1.32,3.24,3.24,0,0,0-2.52.95c-.46-1.51-3.59-2-4.88-.89a1.52,1.52,0,0,0-.38.52c-1.12-1.93-4.52-1.45-4.65.76-.54-1.44-2.32-1.84-3.68-1.67-1.66.21-3.17,1.1-3.56,2.32a2.6,2.6,0,0,0-1-.44,4,4,0,0,0-2.24.24A5.68,5.68,0,0,0,108.48,43.46Z"/><path class="cls-16" d="M109.05,43.78c-1.86-.77-3.43,1.89-2.32,3.08a1.3,1.3,0,0,0-.29,2.38c.33-.06.78-.39,1,0a68.44,68.44,0,0,0-.56,6.9,1,1,0,0,0,.1.58,1.43,1.43,0,0,0,1,.55,18.64,18.64,0,0,0,3.83.26l.77,0a9.25,9.25,0,0,1,1.39,0c.55,0,1.08.19,1.62.24,1.07.08,2.14-.28,3.2-.17s2,.66,3,.47c.38-.07.71-.29,1.09-.37a6.39,6.39,0,0,1,2.28.24,5.79,5.79,0,0,0,1,0c1.27-.1,2.55-.53,3.8-.26.3.06.59.16.9.2.84.11,1.71-.28,2.54-.07.44.12.85.4,1.3.32s.81-.57,1.31-.63,1,.45,1.6.48a2.68,2.68,0,0,0,.74-.13l.31-.07a12.9,12.9,0,0,1,2.55-.1,5.31,5.31,0,0,0,.4-1.66,15.51,15.51,0,0,0,0-2.16,37,37,0,0,0-.46-4.85c.4,0,.84-.47.8-1a1.68,1.68,0,0,0-1-1.32,2.34,2.34,0,0,0-2.2-2.44,2.33,2.33,0,0,0-3.26-2.28,3.31,3.31,0,0,0-2.3-1.24,3.14,3.14,0,0,0-2.41.86c-.46-1.39-3.4-1.84-4.64-.84a1.4,1.4,0,0,0-.37.47c-1.09-1.77-4.3-1.33-4.47.7-.53-1.31-2.3-1.66-3.59-1.5-1.6.2-3,1-3.48,2.15a2.53,2.53,0,0,0-1-.39,4.11,4.11,0,0,0-2.16.27A5.55,5.55,0,0,0,109.05,43.78Z"/><path class="cls-17" d="M109.62,44.11c-1.72-.68-3.16,1.77-2.16,2.89a1.23,1.23,0,0,0-.28,2.22c.3,0,.7-.32.88,0a53.5,53.5,0,0,0-.48,6.49,1,1,0,0,0,.1.55,1.46,1.46,0,0,0,1,.55,17,17,0,0,0,3.72.29l.76,0a8.7,8.7,0,0,1,1.35,0c.53,0,1,.18,1.57.22,1,.07,2.08-.25,3.12-.15s2,.6,2.93.42c.36-.06.68-.25,1-.33a6.39,6.39,0,0,1,2.16.22,4.5,4.5,0,0,0,1,0,13.79,13.79,0,0,1,3.61-.22c.29.06.56.15.85.19.81.1,1.63-.25,2.41,0a3.28,3.28,0,0,0,1.24.28c.47-.07.78-.52,1.25-.57s1,.4,1.53.43a2.4,2.4,0,0,0,.7-.13c.1,0,.19,0,.29-.06a14.16,14.16,0,0,1,2.41-.14,5,5,0,0,0,.41-1.57,14.06,14.06,0,0,0,.06-2.06,28.59,28.59,0,0,0-.43-4.64c.36,0,.74-.47.69-1a1.65,1.65,0,0,0-.94-1.24,2.31,2.31,0,0,0-2.12-2.31,2.31,2.31,0,0,0-.95-1.89,2.37,2.37,0,0,0-2.18-.25A3.18,3.18,0,0,0,133,41.08a3,3,0,0,0-2.28.76c-.48-1.28-3.21-1.7-4.42-.79a1.32,1.32,0,0,0-.36.42c-1-1.62-4.08-1.22-4.27.64-.54-1.19-2.29-1.49-3.51-1.34a4.2,4.2,0,0,0-3.4,2,2.54,2.54,0,0,0-.93-.34,4.09,4.09,0,0,0-2.07.3A5.48,5.48,0,0,0,109.62,44.11Z"/><path class="cls-17" d="M110.19,44.43c-1.57-.58-2.89,1.66-2,2.71a1.17,1.17,0,0,0-.27,2.07c.27-.06.63-.26.79.07a43.74,43.74,0,0,0-.4,6.09,1,1,0,0,0,.1.51,1.44,1.44,0,0,0,1,.54,14.33,14.33,0,0,0,3.61.32l.73,0a9.69,9.69,0,0,1,1.32,0c.51,0,1,.16,1.53.2,1,.07,2-.22,3-.13a11.22,11.22,0,0,0,2.85.38c.34-.06.65-.23,1-.3a6.56,6.56,0,0,1,2,.2,5.64,5.64,0,0,0,.92,0,13.08,13.08,0,0,1,3.41-.18c.27,0,.53.14.81.17a21.78,21.78,0,0,1,2.28,0,3.3,3.3,0,0,0,1.18.26c.44-.07.74-.47,1.18-.52s.94.36,1.46.37a2.19,2.19,0,0,0,.66-.12l.27-.06a16.34,16.34,0,0,1,2.28-.17,5,5,0,0,0,.42-1.48,14.15,14.15,0,0,0,.08-2,24,24,0,0,0-.4-4.42c.32,0,.64-.47.58-1a1.67,1.67,0,0,0-.91-1.17,2.26,2.26,0,0,0-2-2.16,2.27,2.27,0,0,0-1-1.75,2.36,2.36,0,0,0-2-.27,3.21,3.21,0,0,0-2.07-1.06,2.94,2.94,0,0,0-2.16.67c-.49-1.16-3-1.56-4.19-.75a1.42,1.42,0,0,0-.35.38c-1-1.46-3.85-1.1-4.08.57-.53-1.06-2.26-1.31-3.42-1.17a4.33,4.33,0,0,0-3.32,1.83,2.54,2.54,0,0,0-.91-.28,4,4,0,0,0-2,.33A5.22,5.22,0,0,0,110.19,44.43Z"/><path class="cls-18" d="M110.75,44.76c-1.42-.49-2.61,1.54-1.84,2.51a1.1,1.1,0,0,0-.26,1.92c.23,0,.55-.19.69.12A34.36,34.36,0,0,0,109,55a1,1,0,0,0,.11.48,1.43,1.43,0,0,0,.92.54,13.05,13.05,0,0,0,3.5.35l.72,0a10.77,10.77,0,0,1,1.27,0c.5,0,1,.16,1.49.19,1,.06,2-.2,2.94-.11a12.08,12.08,0,0,0,2.78.34c.33-.05.62-.21.94-.27a6.08,6.08,0,0,1,1.93.18,5.06,5.06,0,0,0,.87,0,12.94,12.94,0,0,1,3.22-.15c.26.05.51.13.76.16.72.09,1.46-.19,2.16,0a2.9,2.9,0,0,0,1.11.23c.42-.06.71-.41,1.13-.46s.89.31,1.37.32a2.32,2.32,0,0,0,.63-.11l.26-.06c.72-.14,1.46-.14,2.13-.21a4.49,4.49,0,0,0,.43-1.39,14.18,14.18,0,0,0,.12-1.86,20.84,20.84,0,0,0-.37-4.2c.26,0,.53-.48.45-.94a1.61,1.61,0,0,0-.86-1.09,2.24,2.24,0,0,0-1.94-2,2.24,2.24,0,0,0-.94-1.61,2.27,2.27,0,0,0-1.93-.28,3.13,3.13,0,0,0-1.95-1,2.92,2.92,0,0,0-2,.57c-.51-1-2.83-1.41-4-.69a1.07,1.07,0,0,0-.34.33c-1-1.3-3.63-1-3.9.51-.53-.93-2.24-1.14-3.33-1a4.42,4.42,0,0,0-3.24,1.66,2.54,2.54,0,0,0-.88-.23,4.09,4.09,0,0,0-1.9.36A5.11,5.11,0,0,0,110.75,44.76Z"/><path class="cls-19" d="M111.32,45.08c-1.28-.39-2.34,1.43-1.68,2.33a1.05,1.05,0,0,0-.25,1.77c.2,0,.48-.13.59.16a27,27,0,0,0-.24,5.28,1,1,0,0,0,.11.43,1.47,1.47,0,0,0,.89.55,11.8,11.8,0,0,0,3.39.38l.69,0c.41,0,.83,0,1.24,0s1,.14,1.45.17c.95.06,1.9-.17,2.85-.09a13.14,13.14,0,0,0,2.7.3c.31,0,.58-.19.89-.24a6.58,6.58,0,0,1,1.81.15,5.62,5.62,0,0,0,.82,0,12.84,12.84,0,0,1,3-.11c.24,0,.48.11.72.14.67.08,1.36-.16,2,0a3.07,3.07,0,0,0,1.05.21c.39-.06.68-.37,1.07-.41s.84.27,1.3.27a2.45,2.45,0,0,0,.59-.11l.24,0c.67-.14,1.37-.16,2-.24a4.35,4.35,0,0,0,.43-1.32,12.51,12.51,0,0,0,.15-1.75,16.39,16.39,0,0,0-.34-4,.82.82,0,0,0,.34-.92,1.6,1.6,0,0,0-.83-1,2.22,2.22,0,0,0-1.85-1.89,2.15,2.15,0,0,0-2.73-1.75,3.11,3.11,0,0,0-1.84-.89,2.87,2.87,0,0,0-1.91.47c-.51-.92-2.63-1.27-3.73-.65a1.53,1.53,0,0,0-.33.29c-.94-1.15-3.4-.86-3.7.45-.53-.81-2.23-1-3.24-.84a4.59,4.59,0,0,0-3.17,1.5,2.34,2.34,0,0,0-.85-.18,4.25,4.25,0,0,0-1.81.39A5.07,5.07,0,0,0,111.32,45.08Z"/><path class="cls-20" d="M111.89,45.4c-1.14-.29-2.07,1.32-1.52,2.15a1,1,0,0,0-.24,1.61c.16.06.4-.07.49.21a21.1,21.1,0,0,0-.16,4.87.92.92,0,0,0,.11.4,1.48,1.48,0,0,0,.85.55,10.74,10.74,0,0,0,3.28.41h.67c.4,0,.8,0,1.2,0s.94.12,1.41.15c.92.05,1.85-.14,2.77-.07a13,13,0,0,0,2.62.25c.29,0,.55-.15.83-.2a6.58,6.58,0,0,1,1.71.13,4.83,4.83,0,0,0,.76,0,12.87,12.87,0,0,1,2.84-.08c.23,0,.45.1.67.13.64.07,1.28-.13,1.9,0a3.08,3.08,0,0,0,1,.17c.36,0,.64-.31,1-.35s.79.22,1.21.22a2.54,2.54,0,0,0,.55-.1l.23-.06c.63-.13,1.28-.16,1.86-.27a3.77,3.77,0,0,0,.44-1.23,12.62,12.62,0,0,0,.18-1.65,13.87,13.87,0,0,0-.3-3.77.84.84,0,0,0,.22-.88,1.67,1.67,0,0,0-.79-.93,2.25,2.25,0,0,0-1.77-1.74,2.15,2.15,0,0,0-2.6-1.62,3.07,3.07,0,0,0-1.72-.81,2.85,2.85,0,0,0-1.78.38c-.53-.81-2.44-1.13-3.5-.6a1.28,1.28,0,0,0-.32.24c-.91-1-3.18-.75-3.52.39-.53-.69-2.21-.79-3.15-.67A4.9,4.9,0,0,0,116.23,44a2.71,2.71,0,0,0-.82-.12,4.43,4.43,0,0,0-1.73.42A5,5,0,0,0,111.89,45.4Z"/><path class="cls-21" d="M112.46,45.73c-1-.2-1.8,1.2-1.36,2-.84.42-.35,1.36-.23,1.47s.32,0,.4.25a16.41,16.41,0,0,0-.09,4.47.81.81,0,0,0,.12.36,1.48,1.48,0,0,0,.81.55,9.5,9.5,0,0,0,3.17.43h.65c.39,0,.77,0,1.16,0s.91.11,1.36.13c.9,0,1.79-.11,2.69-.05a14.51,14.51,0,0,0,2.54.21c.27,0,.52-.13.78-.17a6.55,6.55,0,0,1,1.59.11c.24,0,.48,0,.71,0a13.84,13.84,0,0,1,2.65-.05l.63.12c.59.07,1.19-.09,1.77,0a3.28,3.28,0,0,0,.92.15c.34,0,.61-.27,1-.3s.74.18,1.14.17a3.06,3.06,0,0,0,.51-.1l.21-.05c.59-.12,1.19-.17,1.72-.31a3.53,3.53,0,0,0,.45-1.14,12.24,12.24,0,0,0-.06-5.1.9.9,0,0,0,.1-.85,1.66,1.66,0,0,0-.74-.85,2.34,2.34,0,0,0-1.69-1.61,2.27,2.27,0,0,0-.91-1.18,2.32,2.32,0,0,0-1.55-.3,3.1,3.1,0,0,0-1.61-.72,2.94,2.94,0,0,0-1.66.27,3.32,3.32,0,0,0-3.27-.54,1.44,1.44,0,0,0-.31.19c-.87-.83-3-.63-3.33.33-.52-.56-2.19-.62-3.06-.51a5.35,5.35,0,0,0-3,1.16,2.91,2.91,0,0,0-.8-.07,4.86,4.86,0,0,0-1.64.45A5,5,0,0,0,112.46,45.73Z"/><path class="cls-22" d="M113,46.05c-.85-.1-1.53,1.1-1.21,1.77-.68.38-.3,1.18-.21,1.31s.24.06.3.3a12.3,12.3,0,0,0,0,4.06,1,1,0,0,0,.12.33,1.64,1.64,0,0,0,.77.55,8.64,8.64,0,0,0,3.06.46h.63c.38,0,.75,0,1.13,0s.88.09,1.32.11c.86,0,1.73-.08,2.59,0a15.88,15.88,0,0,0,2.47.18c.25,0,.48-.11.73-.14a6.61,6.61,0,0,1,1.47.09c.22,0,.44,0,.66,0a13.48,13.48,0,0,1,2.46,0c.2,0,.39.08.58.1.55.06,1.11-.06,1.64,0a3.19,3.19,0,0,0,.86.12c.32,0,.57-.21.89-.24s.7.13,1.06.11a2,2,0,0,0,.48-.09l.2,0c.54-.12,1.1-.19,1.58-.35a3.29,3.29,0,0,0,.46-1,11.13,11.13,0,0,0,.23-1.46,9.39,9.39,0,0,0-.23-3.32,1.1,1.1,0,0,0,0-.82,1.79,1.79,0,0,0-.71-.78,2.43,2.43,0,0,0-1.59-1.46,2.52,2.52,0,0,0-.91-1,2.44,2.44,0,0,0-1.43-.3,3.35,3.35,0,0,0-1.49-.64,3,3,0,0,0-1.54.18,3.43,3.43,0,0,0-3-.5,1.08,1.08,0,0,0-.3.16c-.84-.69-2.73-.52-3.14.26a5.38,5.38,0,0,0-3-.35,6,6,0,0,0-2.93,1,2.81,2.81,0,0,0-.77,0,4.89,4.89,0,0,0-1.56.47A4.73,4.73,0,0,0,113,46.05Z"/><path class="cls-23" d="M113.59,46.38a1.29,1.29,0,0,0-1,1.58c-.53.34-.28,1-.21,1.16s.17.12.21.34a9.54,9.54,0,0,0,.07,3.66,1.19,1.19,0,0,0,.12.29,1.76,1.76,0,0,0,.74.55,8,8,0,0,0,3,.49H117c.36,0,.72,0,1.08,0s.85.07,1.28.09c.84,0,1.68-.05,2.51,0a17.49,17.49,0,0,0,2.39.13c.23,0,.45-.08.68-.1a7.8,7.8,0,0,1,1.36.07c.2,0,.4,0,.61,0a15.5,15.5,0,0,1,2.26,0l.54.09c.5,0,1,0,1.51,0a3.64,3.64,0,0,0,.79.1c.3,0,.54-.16.84-.19s.64.09,1,.06a3.39,3.39,0,0,0,.44-.08l.18,0a9.75,9.75,0,0,0,1.44-.38,3.17,3.17,0,0,0,.47-1,9.22,9.22,0,0,0,.26-1.35,7.62,7.62,0,0,0-.2-3.1,1.36,1.36,0,0,0-.13-.79,2,2,0,0,0-.67-.7A2.72,2.72,0,0,0,134.15,46a2.73,2.73,0,0,0-.91-.91,2.54,2.54,0,0,0-1.3-.31,3.38,3.38,0,0,0-1.37-.55,3.14,3.14,0,0,0-1.41.08,3.83,3.83,0,0,0-2.81-.45,1.15,1.15,0,0,0-.29.11,2.74,2.74,0,0,0-3,.2,6.68,6.68,0,0,0-2.89-.18,7,7,0,0,0-2.85.83,3.15,3.15,0,0,0-.74,0,5.56,5.56,0,0,0-1.47.5A4.86,4.86,0,0,0,113.59,46.38Z"/><path class="cls-24" d="M114.16,46.7a1.29,1.29,0,0,0-.88,1.39c-.38.31-.23.83-.2,1a1.48,1.48,0,0,1,.11.38,7.2,7.2,0,0,0,.15,3.25,1,1,0,0,0,.12.25,1.85,1.85,0,0,0,.71.56,7.16,7.16,0,0,0,2.83.52h.59l1,0c.41,0,.82.06,1.24.07.8,0,1.61,0,2.42,0s1.54.13,2.31.09c.22,0,.42,0,.63-.07a8.57,8.57,0,0,1,1.24.05H127a17.9,17.9,0,0,1,2.07.07l.49.07c.47,0,.93,0,1.39,0a4.4,4.4,0,0,0,.73.06c.26,0,.5-.11.77-.13s.6,0,.91,0a3.14,3.14,0,0,0,.4-.08l.16,0a4.82,4.82,0,0,0,1.3-.41,2.74,2.74,0,0,0,.48-.89,6.92,6.92,0,0,0,.29-1.25,6.21,6.21,0,0,0-.16-2.89,1.64,1.64,0,0,0-.26-.75,2.27,2.27,0,0,0-.62-.62,3.32,3.32,0,0,0-1.43-1.19,2.77,2.77,0,0,0-2.07-1.08,4.11,4.11,0,0,0-1.26-.47,4.31,4.31,0,0,0-1.29,0,4.58,4.58,0,0,0-2.58-.39l-.27.06a3.33,3.33,0,0,0-2.77.14,9.34,9.34,0,0,0-2.8,0,8.79,8.79,0,0,0-2.77.67,4.75,4.75,0,0,0-.71.09,6.21,6.21,0,0,0-1.39.53A4.68,4.68,0,0,0,114.16,46.7Z"/><path class="cls-25" d="M114.73,47a1.4,1.4,0,0,0-.72,1.2,1.31,1.31,0,0,0-.19.86c0,.14,0,.25,0,.43a5.15,5.15,0,0,0,.23,2.85,2.39,2.39,0,0,0,.13.21,1.84,1.84,0,0,0,.66.55,6.21,6.21,0,0,0,2.73.55l.56,0,1,0,1.19.05c.78,0,1.56,0,2.34,0s1.49.07,2.24.05l.57,0a10.73,10.73,0,0,1,1.13,0h.5c.63,0,1.26,0,1.88.1l.45.06c.42,0,.84,0,1.26.06a4.87,4.87,0,0,0,.66,0c.24,0,.47-.06.71-.08s.55,0,.83,0l.36-.07.15,0a3.52,3.52,0,0,0,1.17-.45,2.41,2.41,0,0,0,.48-.8,6.09,6.09,0,0,0,.32-1.15,5,5,0,0,0-.13-2.67,2.19,2.19,0,0,0-.37-.73,3.2,3.2,0,0,0-.59-.54,4.71,4.71,0,0,0-1.34-1,3.79,3.79,0,0,0-.89-.62,4.06,4.06,0,0,0-1.05-.33,5.23,5.23,0,0,0-1.13-.39,6,6,0,0,0-1.17-.11,7.33,7.33,0,0,0-2.35-.35l-.27,0a4.8,4.8,0,0,0-2.57.07,19.51,19.51,0,0,0-2.71.15,12.59,12.59,0,0,0-2.7.51,5.28,5.28,0,0,0-.69.14,7.39,7.39,0,0,0-1.3.56A4.47,4.47,0,0,0,114.73,47Z"/><path class="cls-7" d="M116.63,46.53a4.77,4.77,0,0,0-1.33.82,3.34,3.34,0,0,0-.74,1.73,3.8,3.8,0,0,0,.35,3.09c.72.94,2.06,1.08,3.24,1.13q3.54.16,7.09.13c.66,0,1.32,0,2,0,1.9.09,3.84.52,5.69,0a2.48,2.48,0,0,0,1-.49,2.06,2.06,0,0,0,.49-.71c.58-1.31.81-3.23-.23-4.2a12.87,12.87,0,0,0-2.69-1.85,17.72,17.72,0,0,0-5.11-1.14,14.54,14.54,0,0,0-2.64,0l-2.62.32a14.4,14.4,0,0,0-3.28.53A11.41,11.41,0,0,0,116.63,46.53Z"/><g class="cls-6"><path class="cls-7" d="M111.92,67.2a.92.92,0,0,1,.53.82.91.91,0,0,1-.91.91.88.88,0,0,1-.63-.26,1,1,0,0,0,.89.55,1,1,0,0,0,.12-2Z"/></g><g class="cls-6"><path class="cls-7" d="M122.15,63.86a1.18,1.18,0,0,1-.5,2.25,1.16,1.16,0,0,1-.82-.34,1.31,1.31,0,0,0,1.16.71,1.31,1.31,0,0,0,.16-2.62Z"/></g><g class="cls-6"><path class="cls-7" d="M124.53,75.85a1.14,1.14,0,1,1-1.27,1.84,1.25,1.25,0,0,0,1.12.68,1.26,1.26,0,0,0,.15-2.52Z"/></g><g class="cls-6"><path class="cls-7" d="M125.37,82.82a.73.73,0,0,1-.3,1.39.72.72,0,0,1-.51-.21.8.8,0,0,0,.71.44.82.82,0,0,0,.82-.82A.81.81,0,0,0,125.37,82.82Z"/></g><g class="cls-6"><path class="cls-7" d="M125.62,93.68a1.12,1.12,0,1,1-1.26,1.81,1.25,1.25,0,0,0,2.36-.58A1.24,1.24,0,0,0,125.62,93.68Z"/></g><g class="cls-6"><path class="cls-7" d="M133.91,64.6A1.69,1.69,0,1,1,132,67.34a1.87,1.87,0,0,0,1.66,1,1.88,1.88,0,0,0,.23-3.75Z"/></g><g class="cls-6"><path class="cls-7" d="M133.86,78.82a1,1,0,0,1,.58.91,1,1,0,0,1-1.71.72,1.12,1.12,0,0,0,2.12-.52A1.12,1.12,0,0,0,133.86,78.82Z"/></g><g class="cls-6"><path class="cls-7" d="M134.08,86.89a1,1,0,0,1-.42,1.86,1,1,0,0,1-.67-.28,1.08,1.08,0,1,0,1.09-1.58Z"/></g><g class="cls-6"><path class="cls-7" d="M135.83,73.79a1.23,1.23,0,0,1-.52,2.35,1.28,1.28,0,0,1-.86-.35,1.39,1.39,0,0,0,1.22.74,1.37,1.37,0,0,0,.16-2.74Z"/></g><g class="cls-6"><path class="cls-7" d="M119.73,119.43a.8.8,0,0,1,.47.73.81.81,0,0,1-.81.81.84.84,0,0,1-.57-.23.92.92,0,0,0,.8.49.91.91,0,0,0,.91-.91A.9.9,0,0,0,119.73,119.43Z"/></g><g class="cls-6"><path class="cls-7" d="M123.48,129.63a1.6,1.6,0,1,1-1.79,2.59,1.78,1.78,0,1,0,1.79-2.59Z"/></g><g class="cls-6"><path class="cls-7" d="M129.54,114.32a1.31,1.31,0,0,1-.55,2.49,1.28,1.28,0,0,1-.91-.38,1.43,1.43,0,0,0,1.28.79,1.46,1.46,0,0,0,.18-2.9Z"/></g><g class="cls-6"><path class="cls-7" d="M135,108.36a1,1,0,0,1-.43,1.9,1,1,0,0,1-.69-.28,1.1,1.1,0,0,0,1,.6,1.11,1.11,0,0,0,.14-2.22Z"/></g><g class="cls-6"><path class="cls-7" d="M116.32,93.32A1.64,1.64,0,1,1,114.48,96a1.82,1.82,0,1,0,1.84-2.65Z"/></g><g class="cls-6"><path class="cls-7" d="M108.27,62.22a1.48,1.48,0,0,1-.63,2.82,1.48,1.48,0,0,1-1-.42,1.65,1.65,0,1,0,1.66-2.4Z"/></g><g class="cls-6"><path class="cls-7" d="M142.14,64.86a1.44,1.44,0,0,1,.84,1.31,1.45,1.45,0,0,1-2.46,1,1.62,1.62,0,1,0,1.62-2.36Z"/></g><g class="cls-6"><path class="cls-7" d="M129.56,69.31a1.55,1.55,0,1,1-1.74,2.52,1.73,1.73,0,1,0,1.74-2.52Z"/></g><g class="cls-6"><path class="cls-7" d="M108.67,73a.94.94,0,0,1,.53.84.92.92,0,0,1-.93.93.91.91,0,0,1-.64-.26,1,1,0,0,0,.91.55,1,1,0,0,0,.13-2.06Z"/></g><g class="cls-6"><path class="cls-7" d="M112,90.66a1.29,1.29,0,0,1-.55,2.46,1.32,1.32,0,0,1-.9-.36,1.44,1.44,0,0,0,2.72-.67A1.45,1.45,0,0,0,112,90.66Z"/></g><g class="cls-6"><path class="cls-7" d="M121.73,79.84a1.45,1.45,0,0,1,.85,1.32,1.47,1.47,0,0,1-1.46,1.46,1.44,1.44,0,0,1-1-.42,1.62,1.62,0,1,0,1.63-2.36Z"/></g><g class="cls-6"><path class="cls-7" d="M139.31,89.55a1.32,1.32,0,0,1-.55,2.51,1.33,1.33,0,0,1-.92-.38,1.46,1.46,0,1,0,1.47-2.13Z"/></g><g class="cls-6"><path class="cls-7" d="M117.16,106.5a1.31,1.31,0,1,1-1.46,2.12,1.45,1.45,0,1,0,1.46-2.12Z"/></g><path class="cls-26" d="M115.7,136.59c-5.48-31.79-15.23-28.88-11.54-86.21h6.75C106.61,103.53,114.48,112.24,115.7,136.59Z"/><path class="cls-27" d="M102.19,48.84c-3.08,28.41-.11,43.68,2.76,58.46,2.1,10.74,6.88,19.18,7.58,30.45a1.89,1.89,0,0,0,2.43,1.68,43.75,43.75,0,0,1,9.15-1.18,43.75,43.75,0,0,1,9.15,1.18,1.89,1.89,0,0,0,2.43-1.68c.7-11.27,5.49-19.71,7.58-30.45,2.87-14.78,5.84-30,2.76-58.46Z"/><path class="cls-28" d="M147.33,48.84H146c3.08,28.41.11,43.68-2.76,58.46-2.09,10.74-6.88,19.18-7.58,30.45a1.89,1.89,0,0,1-2.43,1.68,43.75,43.75,0,0,0-9.15-1.18,43.75,43.75,0,0,0-9.15,1.18,1.89,1.89,0,0,1-2.43-1.68c-.7-11.27-5.48-19.71-7.58-30.45-2.87-14.78-5.84-30-2.76-58.46h-1.3c-5.5,50.9,8.24,59.33,6.66,100.18a1.24,1.24,0,0,0,1.23,1.28h30.66a1.24,1.24,0,0,0,1.23-1.28C139.09,108.17,152.83,99.74,147.33,48.84Z"/><path class="cls-29" d="M133,143.42c-.26.59-1.47.62-3.25.6s-4.2-.07-6.85.11a44.93,44.93,0,0,0-6.62.86c-1.63.34-2.6.8-3.11.41-.23-.2-.24-.62,0-1.28a6,6,0,0,1,1.78-2.06,14.46,14.46,0,0,1,7.68-2.51,16.38,16.38,0,0,1,7.79,1.31C132.33,141.76,133.23,142.87,133,143.42Z"/><path class="cls-30" d="M148.56,66c-.16-5.18-.54-10.88-1.23-17.24h-.24a1.51,1.51,0,0,0,.65-1.08,2,2,0,0,0-1.3-1.94,2.86,2.86,0,0,0-2.88-3.57,2.92,2.92,0,0,0-4.32-3.34,4,4,0,0,0-6.63-.28c-.43-2.65-6.2-3.14-6.94-.41A3.09,3.09,0,0,0,124,36.53V150.25h15.46a1.25,1.25,0,0,0,1.23-1.29,146.65,146.65,0,0,1,1.89-30.72c.05-.27.09-.54.14-.81,1-5.77,2.12-11.18,3.15-16.88a161.91,161.91,0,0,0,2.54-20.39q.18-3.21.23-6.73c0-1.18,0-2.38,0-3.61S148.6,67.32,148.56,66Z"/></g></g></g></svg>