<svg xmlns="http://www.w3.org/2000/svg" viewBox="0 0 188.32 188.32"><defs><style>.cls-1{fill:#f6bec8;}.cls-2{fill:#e85d75;}</style></defs><title>win</title><g id="Capa_2" data-name="Capa 2"><g id="Layer_5" data-name="Layer 5"><circle class="cls-1" cx="94.16" cy="94.16" r="94.16" transform="translate(-39 94.16) rotate(-45)"/><g id="Bnw3qK"><path class="cls-2" d="M29.45,60.68c7.3,17.51,10.68,23.06,18,28.72C39.18,77.58,32.29,65.3,34.33,50c1,2.73,1.94,5.47,3,8.17,7.28,18.39,20.11,32.43,35.67,44,11.53,8.56,14,20.86,14.73,33.6.47,7.77-3.34,9.13-11.21,8.35-2.47-.24-3-1.84-1.71-3.88.93-1.53,2-3,3.61-5.29-6.89,4.23-13.16,6.16-19.68.65l8.75-4.05c-8,1.44-15.82,2.51-22.48-5l17.4-2.91-.12-.86c-2.1.24-4.19.51-6.29.73-1.69.18-3.38.38-5.08.45-10.3.39-13.13-1.47-17.17-11.35,7,1.17,13.47,5,20.72,3.67-17.55-3-27.85-11.43-28.85-24.33,2.82,3,5.17,6.14,8.08,8.56a39.71,39.71,0,0,0,10,5.72c-10.07-7-18.93-14.56-18.52-28.43L40.32,94.1l.82-.53C31.76,84.49,28.15,73.43,29.45,60.68Z"/><path class="cls-2" d="M144.16,89.41c9.22-7.57,14.3-17.67,17.85-28.77,1.3,12.71-2.08,23.8-11.07,33.26,2.59-2.5,5.29-4.9,7.74-7.53s4.81-5.64,7.21-8.48c1.2,6.52-1.07,17.5-18.17,27.86,2.9,0,6.47-1.65,10-5,2.81-2.69,5.34-5.68,8-8.58.46,11.36-10.78,20.69-28.64,24.16,7.21,1.25,13.6-2.45,20.4-3.67-1.92,7.85-6.16,11.33-14,11.35-2.43,0-4.88-.17-7.31-.39s-4.6-.58-6.91-.88l-.15.88,17.27,2.93c-2.79,3.6-6.2,5.6-10.32,5.7-4,.09-7.93-.54-12.37-.89l8.59,4c-3.08,4.75-9.06,4.86-18.88-.11,1.32,2,2.43,3.39,3.3,5,1.32,2.37.73,3.73-2,3.95-7.5.62-10.84-.4-11.11-9-.23-7.36,2.59-14.12,5.14-20.9a22.33,22.33,0,0,1,8-10.69,120.63,120.63,0,0,0,27.36-26.95,90.1,90.1,0,0,0,12.08-23.76,11.42,11.42,0,0,1,1.27-2.78C159.21,65.28,152.43,77.57,144.16,89.41Z"/></g><path class="cls-2" d="M132,58.66a10.63,10.63,0,0,1-.42,2.69,11.26,11.26,0,0,1-1.11,2.48,17,17,0,0,1-3.53,4.07,32.86,32.86,0,0,1-9.3,5.42,60,60,0,0,1-21.18,4.09A62.33,62.33,0,0,1,75,74.14a33.31,33.31,0,0,1-9.8-5.28,17.84,17.84,0,0,1-3.89-4.34A13.24,13.24,0,0,1,60,61.74a11.8,11.8,0,0,1-.49-3.08,11.65,11.65,0,0,1,.41-3.11,13,13,0,0,1,1.21-2.83A17.79,17.79,0,0,1,65,48.21a34,34,0,0,1,9.78-5.68A58.4,58.4,0,0,1,96.46,38.9c1.83.06,3.67.17,5.49.34s3.64.5,5.44.85a54.66,54.66,0,0,1,10.47,3.3,33.38,33.38,0,0,1,9.27,5.79,17.25,17.25,0,0,1,3.46,4.24,11.61,11.61,0,0,1,1.06,2.52A10.41,10.41,0,0,1,132,58.66Zm-.4,0a10.1,10.1,0,0,0-.44-2.57,11,11,0,0,0-1.1-2.36,15.5,15.5,0,0,0-3.57-3.79,30.85,30.85,0,0,0-9.37-4.55,55.17,55.17,0,0,0-10.25-2,80.52,80.52,0,0,0-10.41-.47,76.2,76.2,0,0,0-10.35.88,55.45,55.45,0,0,0-10,2.46,30.1,30.1,0,0,0-8.87,4.68c-2.53,2-4.5,4.77-4.53,7.74s1.81,5.83,4.32,8a30.64,30.64,0,0,0,8.84,5.07,60.24,60.24,0,0,0,20.58,3.7A67.71,67.71,0,0,0,107,74.85a55.33,55.33,0,0,0,10.33-2.32,31.17,31.17,0,0,0,9.35-4.93,15.66,15.66,0,0,0,3.49-3.95,11.14,11.14,0,0,0,1-2.4A9.94,9.94,0,0,0,131.6,58.66Z"/></g></g></svg>